<?xml version="1.0" standalone="no"?>
<!DOCTYPE svg PUBLIC "-//W3C//DTD SVG 20010904//EN"
 "http://www.w3.org/TR/2001/REC-SVG-20010904/DTD/svg10.dtd">
<svg version="1.0" xmlns="http://www.w3.org/2000/svg"
 width="666.000000pt" height="375.000000pt" viewBox="0 0 666.000000 375.000000"
 preserveAspectRatio="xMidYMid meet">

<g transform="translate(0.000000,375.000000) scale(0.100000,-0.100000)"
fill="#000000" stroke="none">
<path d="M3114 3202 c2 -4 -35 -6 -82 -4 -141 4 -434 -18 -459 -34 -12 -8 -30
-14 -40 -13 -12 1 -10 3 7 9 24 8 24 8 -7 9 -17 1 -34 -3 -37 -8 -3 -5 -21 -8
-38 -6 -46 4 -84 -5 -66 -16 9 -6 7 -9 -9 -9 -13 0 -23 4 -23 10 0 6 -19 7
-47 3 -56 -7 -63 -11 -43 -23 17 -11 -30 -7 -65 5 -13 5 -16 4 -7 -2 8 -6 -6
-9 -39 -10 -28 0 -55 -6 -59 -12 -4 -8 -18 -10 -36 -6 -21 5 -25 4 -15 -3 10
-7 2 -10 -30 -10 -69 0 -80 -2 -73 -14 5 -7 -2 -9 -20 -6 -14 3 -26 1 -26 -4
0 -6 -7 -7 -16 -4 -10 4 -26 -1 -37 -11 -11 -10 -17 -12 -13 -5 4 7 1 12 -8
12 -9 0 -16 -3 -16 -7 0 -5 -12 -9 -28 -10 -15 -1 -65 -14 -112 -28 -103 -31
-111 -33 -128 -34 -7 -1 -10 -5 -7 -11 3 -5 0 -7 -8 -4 -8 3 -20 -2 -27 -11
-7 -8 -18 -15 -24 -15 -6 0 -4 5 4 11 12 9 11 9 -5 4 -11 -4 -30 -10 -42 -12
-36 -8 -27 -23 10 -18 26 4 28 3 7 -3 -25 -8 -25 -8 7 -15 18 -3 41 -4 50 -1
17 5 17 5 0 -6 -9 -6 -26 -9 -37 -6 -11 3 -29 9 -40 12 -14 4 -20 1 -18 -8 4
-15 -71 -21 -89 -6 -7 6 -26 3 -54 -10 l-42 -20 36 -13 c20 -7 34 -16 32 -20
-3 -4 -21 2 -42 12 -29 15 -39 16 -51 6 -8 -6 -18 -11 -21 -10 -15 7 -39 -9
-34 -23 3 -9 -1 -14 -12 -14 -10 0 -13 5 -9 12 5 7 3 8 -5 3 -7 -4 -11 -15 -8
-25 3 -13 0 -16 -14 -13 -16 4 -17 8 -8 20 9 10 2 8 -22 -4 -19 -10 -37 -22
-40 -26 -3 -5 -10 -8 -15 -8 -17 1 -44 -10 -44 -19 0 -5 6 -7 13 -4 8 3 14 -2
14 -11 0 -16 -22 -21 -32 -6 -7 13 -43 5 -64 -12 -9 -8 -30 -22 -48 -31 -17
-8 -37 -21 -45 -28 -7 -7 -30 -22 -50 -32 -20 -11 -35 -24 -32 -28 3 -4 1 -8
-4 -8 -5 0 -9 -7 -9 -15 0 -8 4 -15 8 -15 7 0 23 31 21 41 -1 4 6 6 16 5 9 0
16 4 15 10 -1 6 5 11 14 11 12 0 9 -6 -10 -23 -15 -12 -23 -24 -19 -27 4 -2 2
-2 -5 -1 -16 4 -24 -21 -10 -35 15 -15 -6 -14 -22 2 -12 10 -13 9 -7 -7 6 -17
5 -17 -11 -5 -15 12 -16 12 -10 -4 4 -10 7 -21 7 -23 0 -3 5 -2 12 2 7 4 8 3
4 -4 -7 -11 -56 -9 -76 3 -6 3 -7 11 -4 17 4 6 10 5 16 -3 8 -11 9 -10 4 3 -3
10 -1 20 4 23 6 4 10 -3 10 -14 0 -12 4 -21 10 -21 5 0 7 7 4 15 -4 8 1 17 9
21 8 3 14 13 12 22 -2 9 -4 19 -4 21 -1 3 -13 -7 -28 -21 -16 -13 -43 -35 -60
-47 -18 -12 -33 -29 -33 -37 0 -8 -5 -14 -11 -14 -20 0 -69 -41 -63 -52 4 -6
3 -8 -3 -5 -12 8 -51 -44 -46 -61 3 -6 9 -10 13 -7 17 10 -10 -58 -30 -77 -11
-10 -20 -28 -20 -38 0 -11 -4 -20 -10 -20 -12 0 -14 36 -2 43 4 2 2 3 -4 1 -6
-1 -11 4 -11 11 0 7 8 10 17 8 23 -6 53 31 45 56 -9 30 -19 26 -50 -19 -15
-22 -32 -40 -38 -40 -6 0 -3 -6 7 -13 14 -10 17 -21 12 -44 -7 -29 -36 -55
-36 -33 0 6 5 10 11 10 7 0 9 10 5 28 -5 20 -4 23 4 12 8 -13 10 -13 10 3 0
30 -24 18 -52 -26 -30 -47 -38 -73 -23 -70 6 1 11 -7 11 -17 0 -10 -4 -17 -8
-14 -4 2 -11 -4 -17 -13 -6 -10 -11 -13 -11 -6 0 6 5 15 10 18 12 8 13 25 1
25 -14 0 -41 -77 -34 -96 5 -13 3 -15 -7 -9 -8 5 -11 4 -6 -3 3 -6 1 -14 -5
-17 -5 -4 -8 -14 -5 -22 4 -9 1 -22 -6 -31 -20 -23 -21 -227 -3 -246 17 -17
20 -30 5 -21 -5 3 -10 2 -10 -4 0 -5 5 -13 10 -16 6 -4 8 -10 5 -15 -2 -4 1
-25 8 -46 9 -23 16 -33 21 -26 4 7 4 16 1 22 -3 5 -1 10 4 10 14 0 14 -16 1
-40 -7 -13 -5 -27 6 -49 16 -32 39 -33 31 -2 -3 14 1 17 19 13 31 -6 30 -16
-1 -30 -26 -12 -31 -23 -17 -36 4 -4 7 -11 7 -15 0 -12 32 -40 39 -34 9 9 7
25 -2 19 -4 -2 -13 -1 -20 3 -7 4 5 7 27 7 38 0 39 -1 20 -17 -10 -9 -19 -22
-19 -28 0 -7 -5 -9 -12 -5 -7 4 -2 -6 12 -22 14 -16 28 -30 31 -32 3 -1 15 -9
25 -17 18 -15 18 -15 -1 -8 -20 6 -20 6 -1 -15 23 -27 48 -29 39 -5 -3 10 -13
26 -21 36 -23 26 -6 20 22 -8 14 -14 21 -25 16 -25 -6 0 -9 -3 -9 -7 3 -21 -2
-33 -13 -27 -7 5 -8 3 -4 -5 6 -10 12 -9 24 2 30 25 49 27 68 4 10 -12 12 -16
4 -9 -20 17 -57 15 -64 -4 -4 -11 13 -34 56 -76 72 -68 178 -153 178 -142 0 3
6 1 13 -5 8 -6 17 -8 21 -4 7 7 19 10 71 18 22 3 26 2 15 -5 -8 -5 -26 -10
-40 -11 -23 0 -23 -1 -5 -9 11 -5 16 -9 11 -9 -5 -1 -2 -9 5 -18 7 -10 -1 -5
-19 11 -18 17 -32 25 -32 19 0 -17 59 -63 81 -63 14 0 18 -4 13 -12 -5 -9 -2
-8 9 1 10 8 20 11 24 7 3 -3 0 -6 -8 -6 -9 -1 -6 -7 8 -19 22 -19 69 -18 57 0
-3 5 0 9 5 9 6 0 11 -4 11 -9 0 -5 3 -18 7 -28 6 -16 5 -16 -10 -4 -10 8 -20
12 -23 9 -5 -6 43 -39 61 -42 7 -1 20 -7 28 -14 11 -10 21 -9 47 1 27 12 29
15 13 19 -11 3 -29 1 -39 -4 -17 -8 -17 -8 -3 4 9 7 31 13 49 13 27 0 34 -4
37 -23 3 -21 0 -23 -26 -17 -18 4 -32 2 -37 -6 -4 -8 -3 -9 4 -5 7 4 12 3 12
-3 0 -6 7 -7 17 -4 12 5 14 3 8 -8 -8 -12 -6 -12 8 0 15 12 17 12 12 -1 -4 -9
4 -19 20 -26 15 -7 25 -8 25 -2 0 6 -7 10 -15 10 -8 0 -15 5 -15 10 0 6 7 10
15 10 8 0 15 -5 15 -11 0 -6 9 -8 20 -4 14 4 20 2 18 -7 -2 -8 5 -12 17 -10
16 2 17 1 5 -7 -9 -7 -19 -6 -27 1 -8 6 -16 8 -19 5 -6 -6 19 -21 61 -37 24
-9 26 -8 19 12 -6 20 -5 21 9 9 9 -7 14 -17 11 -22 -8 -14 79 -49 107 -43 20
5 21 4 9 -6 -13 -10 -13 -11 1 -7 9 3 31 -3 48 -14 35 -21 45 -24 36 -9 -3 5
-2 10 3 10 6 0 12 -7 16 -15 3 -8 14 -15 24 -15 10 0 23 -5 29 -11 8 -8 15 -5
26 11 15 21 17 21 39 5 l23 -16 -24 3 c-13 2 -26 -2 -28 -9 -3 -7 3 -11 14 -8
10 1 32 6 48 9 l30 7 -30 -15 c-16 -8 -25 -15 -20 -15 6 -1 68 -17 140 -35 71
-19 133 -32 138 -29 4 2 13 0 20 -5 7 -6 34 -13 60 -16 27 -3 53 -8 57 -11 5
-3 24 -8 42 -10 18 -2 55 -8 81 -14 27 -6 64 -8 83 -5 21 3 34 1 34 -6 0 -7 6
-8 18 -2 9 5 31 5 47 1 l30 -8 -32 3 c-18 1 -33 -1 -33 -6 0 -9 35 -10 67 -2
13 4 20 11 16 17 -3 5 17 -2 44 -17 28 -15 59 -27 69 -25 11 1 39 -1 63 -5 24
-5 87 -10 140 -12 53 -3 186 -9 296 -15 142 -8 255 -8 395 0 107 6 218 12 247
13 58 2 50 18 -9 18 -21 0 -38 3 -38 8 0 4 19 6 43 5 40 -2 41 -2 9 6 -45 12
-55 25 -12 16 43 -9 52 -14 45 -25 -6 -9 29 -20 68 -20 16 0 26 4 22 10 -3 6
-2 10 4 10 5 0 11 -5 13 -12 3 -9 11 -9 35 1 16 7 41 9 55 6 15 -4 29 -2 32 4
4 6 27 9 54 6 l47 -4 -44 9 c-61 13 -69 25 -16 25 24 0 39 -3 32 -7 -15 -9 44
-14 123 -9 31 1 33 3 16 13 -14 8 -24 8 -40 -2 -19 -12 -20 -12 -7 3 7 10 28
17 46 17 19 0 35 4 37 9 2 4 26 11 53 14 28 4 44 4 37 1 -6 -3 -10 -9 -8 -13
3 -4 -5 -7 -17 -6 -25 2 -81 -15 -73 -22 2 -3 38 1 80 8 82 14 99 32 40 44
-20 3 -34 9 -31 12 9 8 88 -8 82 -17 -10 -17 13 -19 74 -8 44 8 60 15 57 25
-4 10 -1 11 14 3 25 -14 30 -13 24 5 -4 8 -2 15 4 15 6 0 12 -5 14 -12 3 -7
14 -9 30 -5 21 6 24 11 20 32 -6 35 22 55 73 53 l40 -1 -35 -4 c-37 -5 -70
-28 -70 -49 0 -20 14 -24 41 -10 13 7 31 11 39 9 8 -2 6 1 -4 8 -15 9 -24 9
-39 0 -15 -10 -18 -10 -15 0 2 7 26 18 52 25 25 7 52 17 59 22 7 5 29 8 50 7
26 -2 40 1 44 11 3 8 10 14 15 14 7 0 6 -5 -1 -14 -9 -11 -7 -15 9 -19 11 -3
18 -1 14 4 -3 5 3 8 13 7 36 -3 54 2 47 13 -4 7 0 9 12 5 22 -7 52 9 40 21 -5
4 -10 3 -13 -3 -6 -17 -63 -4 -63 15 0 13 9 17 35 17 26 0 31 -2 20 -9 -9 -5
-23 -6 -31 -3 -9 3 -12 1 -9 -4 8 -14 25 -12 57 4 15 8 39 16 55 19 15 2 22 2
16 0 -7 -3 -13 -12 -12 -21 0 -10 3 -12 5 -5 3 7 12 9 20 6 8 -3 14 0 14 7 0
7 7 10 15 6 8 -3 15 -1 15 5 0 5 6 9 13 7 6 -1 34 8 61 20 27 12 52 22 56 22
4 0 10 9 13 20 3 11 11 20 19 19 10 0 10 -2 1 -6 -21 -8 -15 -22 7 -16 11 3
20 10 20 16 0 6 3 7 7 4 3 -4 12 1 20 11 8 9 12 11 8 5 -4 -9 -1 -11 9 -7 9 3
13 11 9 17 -4 6 0 8 10 4 8 -3 21 1 27 8 7 8 17 12 24 8 6 -3 7 -2 3 3 -5 5
-12 9 -15 9 -4 0 -12 4 -19 8 -6 4 -22 3 -35 -2 -12 -6 -17 -10 -10 -10 7 -1
10 -6 7 -11 -9 -15 -24 -3 -22 18 1 19 52 28 63 11 4 -6 12 -5 22 3 9 8 13 8
9 2 -4 -7 -1 -14 6 -16 18 -7 38 2 31 14 -3 5 0 9 7 7 25 -3 35 1 57 21 12 12
22 18 22 15 0 -3 13 2 29 11 17 10 27 22 24 27 -3 6 -1 7 5 3 21 -13 51 16 47
46 -2 16 1 26 6 23 5 -4 9 -1 9 4 0 6 -4 11 -10 11 -5 0 -10 7 -10 15 0 22 18
18 25 -4 4 -13 13 -18 26 -16 11 2 17 0 14 -6 -4 -5 -11 -6 -17 -3 -7 4 -8 2
-4 -4 4 -8 2 -10 -7 -6 -8 3 -17 -1 -20 -9 -8 -21 25 -11 54 16 13 12 26 22
29 21 13 -2 179 139 212 181 12 16 18 26 12 23 -5 -4 -10 2 -10 13 0 10 6 19
13 19 15 0 37 49 28 59 -9 8 -26 -22 -20 -36 2 -7 -1 -13 -6 -13 -7 0 -9 9 -4
23 3 12 7 27 7 33 1 6 12 10 24 8 12 -1 25 4 28 11 3 8 14 18 24 24 18 10 19
9 8 -14 -6 -13 -19 -26 -28 -29 -22 -5 -24 -25 -2 -22 9 1 21 11 27 22 6 10
18 24 26 31 9 7 12 13 6 13 -6 0 -6 3 0 8 20 14 46 63 39 74 -4 7 -3 8 4 4 7
-4 12 -2 12 3 0 21 -5 26 -20 23 -12 -2 -12 -1 -2 6 13 9 21 44 23 102 1 20 2
21 6 6 4 -17 7 -14 19 13 8 18 11 37 8 42 -3 5 -1 9 5 9 5 0 11 -6 14 -12 2
-7 8 4 12 24 9 47 1 271 -11 289 -9 15 -11 20 -13 45 0 8 -6 12 -11 9 -6 -4
-8 -10 -5 -15 3 -4 -2 -11 -11 -14 -11 -4 -13 -13 -9 -28 6 -17 4 -20 -4 -12
-15 13 -23 112 -11 119 5 3 7 13 4 23 -5 13 -4 14 4 3 10 -13 8 -44 -4 -83 -8
-25 3 -22 21 6 14 22 15 28 1 60 -8 20 -20 36 -25 36 -6 0 -11 9 -11 20 0 11
-5 20 -11 20 -5 0 -7 5 -4 10 3 6 -1 13 -9 16 -9 3 -13 10 -10 15 3 5 -2 9
-10 9 -14 0 -21 19 -17 43 1 5 -4 7 -11 4 -7 -2 -12 -10 -10 -16 1 -7 -2 -10
-8 -6 -7 4 -7 12 0 24 11 21 4 32 -16 24 -8 -3 -14 0 -14 6 0 6 5 11 11 11 5
0 7 5 4 11 -4 6 -13 8 -20 5 -7 -2 -19 1 -26 7 -11 10 -11 9 -1 -4 6 -9 9 -19
5 -22 -3 -4 -1 -13 5 -20 7 -8 9 -17 5 -21 -4 -4 -1 -11 7 -16 8 -6 11 -10 5
-10 -20 0 -30 16 -31 50 0 26 -6 38 -23 46 l-22 11 25 5 c14 3 31 0 38 -6 7
-6 -23 26 -67 71 -44 45 -82 80 -85 78 -4 -2 -12 5 -20 15 -10 14 -18 16 -32
9 -10 -5 -18 -14 -18 -20 0 -6 8 -5 21 2 17 9 20 8 14 -2 -5 -7 -4 -10 2 -6
22 14 50 -57 32 -80 -13 -15 -3 -33 17 -33 8 0 14 -7 14 -15 0 -20 -10 -18
-37 4 -27 22 -28 29 -10 50 9 10 11 25 6 41 -4 14 -8 18 -8 10 -1 -13 -2 -13
-11 0 -5 8 -24 15 -41 15 -20 0 -34 6 -36 15 -4 13 -3 13 6 0 6 -8 11 -13 12
-10 0 3 2 13 4 23 3 14 -1 17 -13 12 -9 -3 -13 -3 -9 1 4 4 0 12 -8 18 -13 9
-11 11 11 13 15 0 22 -2 16 -6 -7 -4 -4 -11 8 -19 12 -7 20 -8 20 -2 0 5 -5
10 -11 10 -5 0 -8 4 -5 9 4 5 -18 24 -46 41 -29 18 -55 36 -58 39 -3 4 -17 14
-32 24 -24 15 -29 15 -41 2 -13 -13 -16 -13 -21 1 -3 8 -11 12 -17 8 -8 -4 -7
-9 2 -16 10 -6 6 -7 -11 -2 -14 4 -30 7 -37 7 -6 0 -9 10 -7 23 3 18 1 22 -10
18 -21 -8 -36 4 -29 21 8 23 28 18 43 -10 14 -26 30 -33 30 -14 0 5 5 7 11 3
8 -4 3 -12 -12 -21 -17 -10 -18 -12 -4 -7 11 3 26 7 33 7 6 0 12 3 12 6 0 8
-81 59 -100 63 -8 2 -17 6 -20 10 -6 8 -180 89 -197 92 -7 1 -15 5 -19 8 -3 4
-13 4 -22 1 -10 -4 -13 -2 -8 5 5 8 2 10 -9 5 -14 -5 -14 -8 -3 -15 10 -8 10
-9 -2 -5 -8 2 -15 9 -15 15 0 16 -42 44 -49 33 -3 -5 -24 -8 -47 -7 -22 1 -42
-1 -45 -6 -3 -4 -10 -8 -16 -8 -5 0 0 9 13 20 20 16 21 19 7 20 -10 0 -18 -4
-18 -10 0 -5 -8 -10 -17 -10 -15 0 -15 2 -4 9 11 7 7 10 -15 14 -22 3 -20 4
11 4 22 0 51 -2 65 -5 22 -5 23 -6 5 -13 -15 -5 -12 -7 12 -6 18 1 33 5 33 8
0 8 -91 35 -104 31 -5 -2 -12 1 -15 6 -10 15 -149 62 -166 56 -8 -4 -15 -2
-15 3 0 13 -86 34 -106 26 -12 -4 -15 -3 -10 5 5 8 0 12 -13 13 -29 2 -34 3
-48 12 -6 4 -14 1 -16 -5 -4 -10 -6 -10 -6 -1 -1 16 -76 36 -103 27 -15 -4
-18 -3 -13 6 5 9 2 10 -13 6 -11 -4 -23 -2 -27 4 -4 6 -15 8 -25 5 -10 -3 -21
-1 -25 5 -4 6 -16 8 -26 5 -11 -4 -26 -2 -33 4 -7 6 -33 13 -57 15 -24 3 -44
6 -44 7 0 4 -53 10 -92 11 -24 1 -43 5 -43 10 0 4 -7 8 -16 8 -14 0 -15 -2 -3
-17 12 -15 12 -16 -4 -10 -10 4 -24 7 -30 7 -7 0 -6 4 2 9 13 8 -24 17 -89 21
-19 1 -74 7 -175 20 -44 5 -199 12 -345 15 -146 3 -271 8 -278 10 -7 3 -11 1
-8 -3z m-239 -32 c8 -12 -13 -16 -67 -10 -22 2 -22 2 2 10 36 11 58 11 65 0z
m714 -6 c2 -2 -12 -4 -33 -4 -22 0 -35 4 -31 10 5 9 52 4 64 -6z m-904 -4 c-3
-5 -14 -10 -23 -10 -15 0 -15 2 -2 10 20 13 33 13 25 0z m345 0 c0 -5 -9 -10
-20 -10 -11 0 -20 5 -20 10 0 6 9 10 20 10 11 0 20 -4 20 -10z m370 -6 c0 -2
-7 -4 -15 -4 -8 0 -15 4 -15 10 0 5 7 7 15 4 8 -4 15 -8 15 -10z m313 9 c-7
-2 -19 -2 -25 0 -7 3 -2 5 12 5 14 0 19 -2 13 -5z m51 -24 c-2 -4 8 -12 23
-18 25 -10 25 -11 3 -5 -14 3 -45 12 -70 19 l-45 15 43 -6 c38 -5 41 -4 36 13
-5 14 -4 15 4 3 6 -8 9 -17 6 -21z m-1104 3 c20 -6 26 -10 15 -11 -11 0 -38 6
-60 15 -40 15 -19 13 45 -4z m1200 8 c-25 -8 -25 -8 5 -11 l30 -2 -29 -4 c-23
-4 -26 -7 -15 -15 12 -8 12 -9 -1 -5 -8 2 -14 10 -12 16 1 7 -8 10 -25 6 l-28
-5 30 14 c17 9 39 15 50 15 16 -1 15 -2 -5 -9z m-1287 -17 c-7 -2 -21 -2 -30
0 -10 3 -4 5 12 5 17 0 24 -2 18 -5z m1432 -15 c2 -2 -26 -4 -63 -4 -37 0 -57
2 -44 4 12 2 22 7 22 11 0 8 76 -2 85 -11z m-1676 2 c-6 -5 -18 -6 -26 -3 -19
8 -16 11 13 11 17 0 22 -3 13 -8z m196 0 c3 -5 -1 -10 -9 -10 -8 0 -18 5 -21
10 -3 6 1 10 9 10 8 0 18 -4 21 -10z m98 3 c-7 -2 -19 -2 -25 0 -7 3 -2 5 12
5 14 0 19 -2 13 -5z m1517 -9 c0 -2 -9 -4 -20 -4 -11 0 -20 4 -20 9 0 5 9 7
20 4 11 -3 20 -7 20 -9z m-1673 0 c-3 -3 -12 -4 -19 -1 -8 3 -5 6 6 6 11 1 17
-2 13 -5z m206 -1 c-7 -2 -19 -2 -25 0 -7 3 -2 5 12 5 14 0 19 -2 13 -5z
m-517 -40 c-10 -10 -19 5 -10 18 6 11 8 11 12 0 2 -7 1 -15 -2 -18z m2124 17
c0 -5 -2 -10 -4 -10 -3 0 -8 5 -11 10 -3 6 -1 10 4 10 6 0 11 -4 11 -10z
m-2276 -21 c-4 -8 6 -9 37 -5 42 5 42 5 10 -5 -36 -11 -66 -5 -56 11 3 5 8 10
11 10 3 0 2 -5 -2 -11z m2346 4 c0 -5 -14 -9 -32 -9 -17 -1 -36 -8 -43 -17 -6
-9 -16 -12 -24 -8 -22 14 22 39 72 40 15 1 27 -2 27 -6z m108 -16 c17 0 32 -4
32 -8 0 -4 8 -5 19 -2 10 3 22 -1 27 -8 5 -9 2 -11 -9 -6 -9 3 -19 2 -22 -3
-4 -6 -14 -6 -26 1 -11 6 -34 7 -50 4 -18 -4 -36 -2 -44 5 -20 17 -7 33 19 24
11 -4 36 -7 54 -7z m-2482 -6 c-4 -5 0 -11 6 -14 7 -3 -6 -4 -28 -2 -34 3 -41
0 -40 -13 0 -9 -5 -17 -11 -16 -7 1 -34 2 -60 4 -27 1 -39 4 -28 7 11 2 27 7
35 10 21 8 51 14 78 15 12 0 22 4 22 9 0 5 7 9 16 9 8 0 13 -4 10 -9z m2353
-5 c-2 -2 -15 -7 -29 -10 l-25 -7 25 15 c21 12 42 14 29 2z m119 -33 c-10 -2
-26 -2 -35 0 -10 3 -2 5 17 5 19 0 27 -2 18 -5z m246 -12 c4 -5 0 -12 -6 -15
-7 -3 1 -4 17 -1 25 4 27 3 12 -6 -22 -13 -40 -8 -43 14 -2 18 11 23 20 8z
m-3014 -32 c-6 -10 -18 -19 -28 -18 -14 0 -14 2 2 8 17 7 18 8 3 14 -9 3 -31
0 -49 -8 -18 -8 -26 -14 -18 -15 10 0 11 -3 3 -11 -8 -8 -17 -8 -30 -1 -16 9
-12 13 31 32 28 11 57 18 69 14 14 -4 17 -3 12 6 -5 9 -4 11 3 6 9 -5 9 -13 2
-27z m88 21 c12 0 22 -4 22 -10 0 -11 -57 -2 -80 12 -11 7 -8 8 10 4 14 -3 35
-6 48 -6z m-14 -29 c2 -3 -11 -6 -29 -7 -21 0 -31 4 -28 11 4 12 50 9 57 -4z
m2922 4 c16 -8 22 -15 14 -15 -8 1 -24 7 -34 15 -25 19 -16 19 20 0z m95 -3
c-7 -2 -18 1 -23 6 -8 8 -4 9 13 5 13 -4 18 -8 10 -11z m34 9 c3 -5 2 -12 -3
-15 -5 -3 -9 1 -9 9 0 17 3 19 12 6z m103 -40 c11 -6 10 -10 -4 -15 -9 -3 -19
-4 -22 -1 -3 3 1 5 9 5 11 0 11 2 -1 10 -8 5 -10 10 -5 10 6 0 16 -4 23 -9z
m-3393 -11 c-3 -5 -14 -10 -23 -9 -14 0 -13 2 3 9 27 11 27 11 20 0z m-71 -54
c-5 -14 -36 -26 -64 -25 -8 0 1 8 20 19 42 23 51 24 44 6z m3626 -26 c0 -5
-13 -10 -30 -10 -16 0 -30 5 -30 10 0 6 14 10 30 10 17 0 30 -4 30 -10z
m-3844 -31 c3 -5 10 -9 16 -9 6 0 5 7 -3 17 -13 15 -12 15 10 4 17 -10 20 -15
11 -21 -18 -11 -79 -5 -93 9 -9 9 -8 11 7 5 13 -5 17 -4 13 3 -5 7 0 9 13 6
11 -3 23 -9 26 -14z m3993 3 c10 -10 7 -11 -16 -6 -38 9 -51 22 -20 21 13 -1
30 -8 36 -15z m-59 -6 c0 -3 -4 -8 -10 -11 -5 -3 -10 -1 -10 4 0 6 5 11 10 11
6 0 10 -2 10 -4z m-1050 -34 c30 -9 31 -10 10 -12 -23 -1 -23 -2 -5 -10 14 -6
15 -9 5 -9 -9 -1 -23 8 -33 19 -9 11 -27 20 -39 19 -22 0 -22 -1 -3 -9 l20 -9
-20 -1 -20 -1 20 -10 20 -9 -20 3 c-11 2 -19 9 -17 16 2 9 -3 11 -13 8 -8 -4
-15 -2 -15 3 0 20 40 21 110 2z m80 9 c0 -5 12 -12 28 -14 21 -3 19 -4 -11 -6
-27 -1 -36 2 -31 11 5 8 2 9 -10 5 -10 -4 -15 -3 -11 3 8 13 35 13 35 1z m197
3 c-3 -3 -12 -4 -19 -1 -8 3 -5 6 6 6 11 1 17 -2 13 -5z m147 -23 c16 -7 27
-14 24 -16 -7 -7 -82 23 -86 35 -3 8 1 9 14 2 11 -5 32 -15 48 -21z m-7 23
c-3 -3 -12 -4 -19 -1 -8 3 -5 6 6 6 11 1 17 -2 13 -5z m33 -4 c0 -5 -5 -10
-11 -10 -5 0 -7 5 -4 10 3 6 8 10 11 10 2 0 4 -4 4 -10z m759 -30 c5 0 17 -3
27 -7 13 -5 15 -3 9 8 -8 12 -6 12 8 0 23 -19 11 -33 -17 -20 -17 8 -30 8 -47
-1 -20 -9 -22 -9 -8 2 14 11 14 15 2 26 -7 7 -10 18 -7 24 5 7 10 3 15 -10 5
-12 13 -22 18 -22z m-1026 23 c-7 -2 -19 -2 -25 0 -7 3 -2 5 12 5 14 0 19 -2
13 -5z m168 -20 c13 -15 12 -15 -10 -4 -13 8 -39 11 -57 8 -19 -3 -34 -2 -34
4 0 17 86 10 101 -8z m171 2 c0 -5 -5 -11 -11 -13 -6 -2 -11 4 -11 13 0 9 5
15 11 13 6 -2 11 -8 11 -13z m-3528 -10 c24 -18 21 -18 -29 0 -32 11 -35 14
-15 14 14 0 34 -6 44 -14z m3230 3 c-3 -5 14 -8 38 -7 48 2 97 -9 177 -40 42
-16 57 -18 63 -8 7 11 12 2 9 -17 -1 -5 6 -5 16 -1 10 4 27 10 38 12 l20 5
-20 -16 c-20 -17 -20 -17 4 -10 15 4 21 2 17 -4 -3 -5 1 -13 10 -16 10 -4 13
-2 8 7 -4 6 5 1 19 -12 27 -24 27 -24 27 -3 0 15 -8 24 -26 28 -24 6 -25 8 -9
17 24 13 57 -25 51 -58 -3 -14 4 -32 17 -46 12 -13 21 -28 19 -33 -2 -4 5 -6
14 -2 11 4 15 2 11 -8 -3 -8 -1 -17 6 -19 9 -3 9 -7 1 -18 -6 -8 -14 -45 -18
-84 -3 -38 -15 -94 -26 -124 -10 -30 -16 -59 -12 -65 4 -6 7 -30 8 -53 1 -31
-3 -40 -13 -36 -19 7 -16 -7 5 -23 9 -7 12 -14 5 -14 -6 0 -15 5 -18 10 -4 6
-16 8 -28 4 -22 -6 -22 -6 1 11 12 9 19 21 16 27 -5 7 -1 9 9 5 19 -7 20 -6
11 17 -5 14 -8 14 -21 1 -8 -8 -11 -19 -8 -25 3 -5 2 -10 -4 -10 -6 0 -18 -12
-27 -26 -14 -20 -15 -27 -5 -33 10 -6 9 -10 -3 -14 -9 -4 -16 -12 -16 -18 0
-7 -8 -22 -17 -33 -17 -20 -17 -20 1 -6 17 13 19 13 14 0 -3 -8 -14 -15 -26
-15 -12 0 -33 -11 -47 -25 -14 -14 -36 -36 -50 -49 -13 -14 -21 -29 -18 -34 3
-5 -3 -4 -14 2 -16 8 -28 5 -59 -16 -21 -15 -42 -31 -46 -37 -7 -10 18 -67 34
-77 5 -3 9 -9 8 -13 -4 -18 74 -108 108 -124 20 -9 40 -21 44 -27 4 -5 34 -9
67 -9 45 2 58 -1 55 -11 -3 -7 0 -16 7 -21 8 -4 10 -3 5 4 -4 7 -3 12 1 12 9
0 37 -40 38 -55 0 -5 9 -9 20 -7 17 2 18 1 5 -8 -13 -10 -13 -11 0 -8 8 2 22
18 31 36 9 17 20 28 24 24 5 -4 5 2 1 13 -4 11 -4 16 0 12 9 -9 35 13 28 24
-3 5 2 6 10 3 20 -8 21 13 1 32 -13 14 -15 14 -15 0 0 -9 -4 -16 -10 -16 -5 0
-7 -8 -4 -17 5 -15 4 -15 -4 -4 -8 11 -6 24 4 45 12 25 12 28 1 14 -8 -10 -18
-18 -22 -18 -4 0 -2 6 4 14 7 8 10 31 7 56 -5 40 -4 42 13 26 10 -9 21 -16 26
-16 5 0 0 7 -11 15 -17 13 -17 14 -2 15 9 0 20 -5 23 -10 3 -5 11 -10 18 -10
18 0 -26 29 -45 30 -9 0 -20 5 -24 12 -4 6 -3 8 3 5 6 -4 14 1 17 10 4 9 1 20
-6 25 -10 6 -10 8 -1 8 7 0 18 10 24 23 11 19 10 20 -3 9 -13 -10 -17 -10 -22
3 -8 23 4 45 25 45 13 0 17 -5 12 -17 -6 -17 -6 -17 10 -1 9 9 17 23 17 32 0
8 5 18 10 21 6 4 9 12 8 19 -2 7 30 42 70 77 40 35 67 66 61 68 -7 2 -20 -7
-29 -19 -17 -22 -41 -21 -39 3 0 9 2 9 6 0 2 -7 9 -13 14 -13 6 0 8 4 4 9 -6
11 34 37 49 33 5 -2 6 4 3 12 -7 18 12 26 52 21 17 -2 31 1 31 6 0 6 4 8 9 5
4 -3 17 1 27 9 18 14 17 15 -11 10 -24 -4 -26 -3 -10 4 l20 10 -20 1 c-11 1
-15 4 -8 6 6 3 30 -4 52 -16 23 -11 41 -16 41 -10 0 5 -5 10 -11 10 -6 0 -17
7 -25 15 -12 12 -12 15 -2 15 10 0 10 2 -1 9 -9 6 -5 9 13 9 23 0 24 -2 10
-13 -15 -11 -13 -13 17 -25 19 -7 46 -14 61 -15 39 -4 60 -13 53 -25 -3 -5 -1
-10 4 -10 6 0 11 7 11 15 0 8 -4 15 -10 15 -16 0 -12 17 6 24 8 3 12 2 9 -4
-8 -13 13 -52 24 -45 5 2 14 -2 21 -10 10 -12 7 -15 -14 -21 -14 -3 -31 -4
-38 -1 -8 4 -7 6 5 6 9 1 17 6 17 11 0 14 -16 12 -29 -3 -13 -16 -5 -27 20
-27 9 0 20 -7 23 -16 3 -8 10 -13 14 -10 5 3 7 -6 4 -19 -2 -14 -8 -25 -13
-25 -13 0 -37 -53 -33 -74 1 -11 -2 -27 -7 -35 -8 -12 -9 -10 -5 9 l5 25 -17
-22 c-17 -22 -44 -25 -59 -8 -4 4 -2 5 6 0 10 -6 12 -4 6 5 -6 10 -11 9 -22
-5 -7 -11 -13 -14 -13 -8 0 12 -13 11 -42 -2 -10 -4 -15 -12 -12 -17 4 -6 1
-9 -7 -6 -14 5 -24 -1 -65 -39 -14 -13 -27 -23 -29 -23 -3 0 -9 0 -15 0 -5 0
-16 -13 -24 -29 l-15 -28 47 10 c26 5 59 10 75 11 25 1 41 16 16 16 -5 0 -7 5
-4 10 3 6 1 10 -4 10 -6 0 -11 -4 -11 -10 0 -5 -5 -10 -11 -10 -8 0 -8 5 1 15
8 9 8 15 2 15 -6 0 -12 -5 -14 -12 -3 -8 -7 -6 -11 5 -3 9 -3 16 1 16 21 -3
32 2 26 13 -4 7 -3 8 5 4 6 -4 9 -12 6 -17 -4 -5 -2 -9 3 -9 17 0 22 13 9 28
-10 13 -9 14 3 10 10 -3 15 -19 16 -49 0 -24 4 -59 8 -78 6 -24 4 -36 -5 -42
-11 -7 -11 -9 -1 -9 7 0 24 12 38 28 14 15 24 20 21 11 -7 -21 8 -46 17 -30 4
6 2 11 -5 11 -7 0 -10 2 -7 5 3 3 13 3 22 -1 17 -7 23 -44 6 -44 -5 0 -10 -7
-10 -16 0 -8 -4 -12 -10 -9 -5 3 -10 4 -10 1 0 -2 -3 -13 -6 -23 -5 -15 -4
-16 6 -3 10 13 11 13 7 0 -2 -8 -9 -15 -15 -15 -7 0 -25 -12 -41 -27 -16 -16
-36 -28 -45 -28 -9 0 -19 -7 -22 -15 -4 -8 -24 -25 -45 -37 -21 -12 -39 -25
-39 -29 0 -4 -8 -10 -17 -12 -15 -4 -14 -5 3 -6 11 0 29 -8 40 -16 10 -8 26
-15 34 -15 9 0 5 7 -10 17 -14 10 -28 17 -32 15 -5 -1 -8 3 -8 9 0 5 15 16 33
24 34 14 61 38 52 46 -2 3 5 5 15 5 10 0 17 -2 15 -4 -2 -3 0 -14 6 -25 7 -12
7 -17 1 -13 -6 3 -12 1 -15 -6 -2 -7 -2 -2 0 10 3 16 0 23 -9 19 -7 -2 -12
-12 -10 -22 2 -10 -1 -14 -7 -10 -6 3 -11 2 -11 -4 0 -5 6 -12 13 -15 6 -2 1
-4 -12 -3 -13 1 -26 -3 -28 -9 -5 -15 59 -14 70 1 4 6 11 5 18 -5 8 -12 9 -11
4 7 -4 16 0 25 16 33 15 8 19 9 15 1 -4 -6 -2 -11 3 -11 6 0 11 6 12 13 0 10
2 10 6 0 2 -7 9 -13 14 -13 6 0 8 4 5 8 -3 5 4 8 15 7 11 -1 27 -14 35 -30 16
-32 9 -49 -11 -22 -11 15 -14 16 -25 2 -11 -13 -10 -14 4 -9 11 4 16 1 16 -10
0 -9 -5 -16 -11 -16 -5 0 -7 -5 -4 -10 4 -6 12 -4 22 6 36 35 61 46 82 34 24
-12 25 -15 11 -40 -8 -16 -8 -18 5 -14 8 3 12 10 9 15 -3 5 0 9 5 9 7 0 9 -17
6 -45 -5 -47 -22 -91 -32 -81 -3 3 0 12 6 20 7 8 10 24 6 36 -4 11 -2 20 4 20
6 0 11 5 11 12 0 9 -3 9 -11 1 -6 -6 -19 -9 -28 -6 -9 4 -13 2 -8 -2 4 -5 0
-19 -8 -32 -9 -13 -11 -23 -5 -23 6 0 15 10 20 23 9 22 9 22 9 1 1 -26 -23
-49 -40 -38 -8 4 -9 3 -5 -4 4 -7 2 -12 -3 -12 -6 0 -10 -3 -10 -7 1 -5 1 -15
-1 -23 -1 -11 -3 -10 -9 4 -7 17 -8 17 -23 2 -9 -9 -22 -16 -28 -16 -6 0 -8
-5 -4 -11 4 -8 0 -9 -15 -4 -11 3 -31 3 -42 0 -17 -6 -19 -9 -8 -17 10 -7 7
-8 -12 -4 -15 3 -40 -2 -62 -14 -20 -11 -46 -20 -56 -20 -11 0 -21 -5 -23 -12
-2 -6 -14 -12 -27 -13 -12 -1 -26 -7 -31 -14 -5 -9 -10 -10 -14 -2 -10 15 -37
14 -50 -3 -12 -15 -90 -30 -81 -15 4 5 14 9 23 10 9 0 -5 8 -33 17 -27 9 -56
21 -64 26 -20 13 -34 -16 -15 -34 13 -13 16 -13 24 0 14 22 25 3 12 -22 -6
-13 -11 -17 -11 -10 -1 6 -6 12 -13 12 -6 0 -19 7 -29 16 -16 15 -17 18 -3 32
14 13 12 18 -15 46 -17 18 -31 43 -31 56 0 13 -3 21 -6 17 -4 -3 -13 0 -21 8
-11 11 -19 12 -38 3 -14 -6 -25 -17 -25 -24 0 -7 -14 -20 -32 -28 -34 -18 -51
-21 -28 -6 13 8 13 10 -2 10 -9 0 -20 -5 -23 -10 -9 -15 -133 -6 -148 10 -10
10 -7 10 12 0 16 -8 26 -9 30 -2 4 7 12 8 21 2 8 -6 26 -10 40 -9 17 0 7 6
-30 19 -79 29 -190 88 -224 118 -25 24 -79 98 -112 155 -8 13 -14 15 -19 7 -4
-7 -3 -15 2 -19 13 -8 24 -91 12 -91 -5 0 -9 15 -9 34 0 19 -7 41 -15 50 -10
10 -12 17 -4 21 6 4 8 14 5 22 -4 9 -2 11 5 7 7 -4 -4 24 -24 62 -20 38 -43
85 -52 104 -9 19 -15 26 -13 15 1 -11 -1 -26 -6 -34 -5 -8 -9 -27 -8 -42 0
-16 -3 -29 -8 -29 -4 0 -6 -10 -3 -22 4 -19 3 -20 -6 -8 -9 12 -11 9 -13 -15
-1 -16 -1 -40 0 -52 0 -13 -3 -23 -9 -23 -5 0 -9 -16 -9 -35 0 -19 -9 -50 -20
-70 -21 -38 -25 -49 -12 -41 4 2 9 -4 9 -15 1 -11 -2 -17 -6 -15 -7 5 -33 -39
-50 -86 -8 -20 -15 -25 -31 -21 -15 4 -19 2 -14 -10 4 -12 11 -14 30 -7 15 6
24 6 24 0 0 -6 -10 -10 -22 -10 -17 0 -19 -3 -10 -9 17 -11 -46 -8 -71 3 -9 5
-26 6 -37 3 -12 -3 -18 -1 -14 5 4 6 1 8 -7 6 -8 -3 -13 -11 -11 -17 1 -7 -2
-10 -6 -7 -5 3 -8 20 -6 37 2 17 1 35 -1 40 -6 9 -35 1 -33 -9 2 -20 -4 -22
-18 -7 -9 8 -13 23 -10 31 5 14 9 14 22 3 14 -11 18 -10 31 6 7 11 18 20 23
20 4 0 12 3 16 8 4 4 0 7 -9 7 -8 0 -23 -7 -31 -16 -9 -8 -16 -11 -16 -5 0 5
-10 8 -21 6 -12 -3 -19 -2 -15 2 3 4 -2 15 -11 26 -10 11 -13 18 -8 15 6 -3
16 0 23 8 10 11 9 16 -6 25 -18 11 -18 13 -3 31 9 10 17 26 18 36 1 9 4 27 7
40 3 13 1 20 -5 17 -5 -4 -9 0 -9 7 0 9 -3 9 -10 -2 -6 -9 -10 -10 -10 -3 0 6
5 15 11 19 7 4 8 21 5 43 -5 26 -4 32 3 21 6 -8 11 -28 12 -45 l1 -30 9 30 c5
17 7 38 5 48 -2 9 0 17 4 17 5 0 12 20 16 45 3 25 15 56 25 69 21 26 25 41 9
31 -13 -8 -13 2 2 28 14 25 18 39 25 87 3 19 14 45 25 57 24 26 17 43 -15 37
-22 -5 -22 -5 1 6 13 5 21 14 17 20 -3 6 1 7 10 4 9 -4 15 -3 13 2 -1 5 4 20
11 34 10 17 11 25 2 28 -6 2 -10 13 -10 25 1 17 2 18 6 5 7 -28 17 -21 41 27
23 48 28 70 13 61 -13 -9 -7 19 8 38 7 9 9 16 3 16 -14 0 -22 38 -8 45 8 3 8
7 -1 11 -7 3 -13 13 -13 22 0 15 2 15 10 2 8 -12 10 -10 11 10 l1 25 7 -25 c5
-14 4 -33 -1 -44 -7 -12 -6 -22 2 -30 8 -8 9 -6 4 8 -6 15 -4 17 6 11 9 -6 12
-4 8 6 -3 8 0 26 8 40 17 31 18 44 0 30 -11 -9 -15 -5 -21 21 -6 30 -8 31 -16
13 -9 -19 -9 -18 -5 3 2 12 1 22 -3 22 -4 0 -7 9 -7 19 0 11 3 18 7 15 4 -2
10 2 13 8 3 7 3 1 0 -13 -3 -15 -1 -30 4 -33 6 -3 9 12 8 38 -1 37 1 43 14 36
9 -5 23 -5 30 0 12 7 10 9 -5 9 -66 -2 -110 36 -99 86 4 17 7 44 8 60 1 17 7
29 13 28 6 -1 14 5 17 13 5 12 2 15 -9 10 -10 -3 -14 -2 -9 5 3 6 15 8 26 6
18 -5 65 9 78 23 7 7 38 11 83 11 20 -1 37 3 37 8 0 4 28 9 62 10 34 1 64 4
66 6 9 8 71 2 66 -7z m209 -18 c19 -17 -10 -16 -38 2 l-30 20 30 -7 c17 -3 34
-10 38 -15z m-3464 1 c8 -5 -1 -8 -27 -7 -23 0 -35 4 -29 8 16 10 39 10 56 -1z
m4266 -11 c3 -5 0 -10 -7 -10 -7 0 -24 -3 -38 -6 -24 -6 -25 -6 -5 9 23 19 41
21 50 7z m-4390 -49 c-1 -26 -5 -35 -16 -32 -7 2 -31 6 -53 9 -26 3 -34 7 -25
13 8 4 24 6 36 2 13 -3 23 -1 23 6 0 6 -8 8 -17 4 -16 -6 -16 -5 -4 11 13 15
15 16 23 2 5 -9 6 -21 3 -26 -3 -6 -2 -10 4 -10 17 0 22 19 12 38 -7 14 -6 19
2 19 8 0 13 -14 12 -36z m739 27 c-8 -13 11 -9 26 5 12 10 12 9 1 -5 -9 -12
-21 -15 -47 -11 -28 5 -34 2 -34 -12 0 -13 3 -15 13 -6 9 7 24 8 45 2 34 -10
50 -10 70 2 17 12 32 -1 31 -26 0 -21 -1 -21 -11 3 -7 17 -12 20 -15 11 -3 -7
7 -25 21 -40 23 -22 28 -24 36 -11 5 8 10 11 10 5 0 -5 5 -3 10 5 5 8 10 10
10 4 0 -7 7 -15 16 -18 8 -3 12 -2 9 4 -4 6 1 7 11 3 13 -5 15 -3 9 8 -7 12
-5 12 6 1 12 -11 12 -14 -1 -22 -12 -8 -10 -10 8 -10 24 0 32 -34 10 -43 -8
-4 -7 -6 4 -6 9 -1 18 -7 21 -13 2 -7 3 -5 2 5 -2 9 1 17 6 17 5 0 9 -11 9
-25 0 -29 -7 -31 -32 -8 -10 9 -18 11 -18 5 0 -6 10 -19 23 -29 12 -10 21 -26
19 -35 -2 -10 2 -18 9 -18 8 0 5 -7 -6 -20 -10 -11 -15 -23 -11 -28 4 -4 13 1
20 11 7 9 15 17 18 17 9 0 1 -46 -12 -69 -9 -18 -8 -27 4 -46 19 -28 20 -39 5
-29 -18 11 1 -39 20 -53 9 -6 20 -9 25 -6 5 4 6 1 2 -5 -3 -6 -2 -13 3 -16 5
-4 12 7 16 24 4 16 13 30 20 30 9 0 13 11 12 33 -2 27 1 32 18 29 24 -3 58 48
60 89 0 15 6 33 13 41 6 8 8 19 4 23 -4 5 -1 5 6 1 10 -6 10 -13 -3 -33 -9
-14 -14 -27 -12 -30 6 -6 42 33 42 46 0 4 8 15 18 25 9 10 15 21 12 26 -3 4 3
7 13 6 13 -1 16 6 15 30 -2 21 4 37 17 49 11 10 20 15 20 10 0 -4 -7 -13 -16
-20 -13 -9 -14 -16 -6 -31 9 -16 11 -16 12 -3 0 9 7 22 15 29 8 7 12 17 8 23
-3 5 -2 7 4 4 12 -7 47 16 49 32 1 6 2 16 3 22 0 6 7 9 14 6 7 -3 21 1 32 9
18 13 18 14 -4 14 -12 0 -20 4 -17 9 4 5 0 12 -6 14 -9 4 -10 6 -1 6 6 1 15
-3 18 -9 3 -5 14 -10 23 -10 15 0 15 2 2 11 -13 9 -13 10 0 6 8 -2 14 -9 13
-16 -3 -12 53 -9 65 4 4 5 -1 5 -10 2 -10 -4 -18 -2 -18 3 0 15 58 12 63 -2 3
-10 8 -10 21 1 14 11 19 12 25 3 4 -8 15 -10 26 -6 14 6 16 4 11 -7 -4 -8 -1
-6 7 4 9 10 18 14 21 8 3 -5 0 -12 -6 -15 -10 -3 -8 -9 4 -19 10 -8 15 -17 11
-20 -3 -4 -1 -7 5 -7 16 0 15 27 0 33 -8 3 -6 6 5 6 9 1 17 -3 17 -9 0 -5 8
-10 18 -10 11 0 27 -9 37 -20 15 -17 16 -25 5 -62 -6 -24 -12 -52 -13 -63 -1
-11 -7 -26 -14 -33 -7 -7 -13 -26 -13 -41 0 -16 -5 -43 -11 -60 -8 -23 -8 -36
-1 -43 12 -12 4 -78 -10 -93 -7 -7 -8 -3 -5 10 3 11 8 34 11 50 5 25 4 27 -5
12 -6 -11 -12 -35 -14 -55 -1 -21 -5 -44 -8 -52 -4 -8 -15 -52 -26 -97 -11
-45 -22 -87 -26 -93 -3 -5 -3 -15 1 -22 4 -7 8 -22 9 -34 0 -17 -3 -20 -11
-13 -13 10 -26 -15 -29 -56 -2 -25 26 -49 37 -32 5 8 8 8 8 1 0 -5 -7 -19 -15
-30 -13 -16 -14 -16 -9 -1 7 20 -6 22 -26 5 -11 -10 -11 -9 0 7 14 19 14 19
-3 6 -12 -10 -15 -17 -7 -25 13 -13 13 -29 0 -21 -5 3 -10 -1 -10 -10 0 -9 5
-13 10 -10 15 9 12 -4 -5 -21 -12 -13 -17 -40 -15 -79 1 -3 -6 -13 -15 -22 -9
-8 -13 -18 -10 -21 3 -4 9 -1 13 5 4 6 7 -15 7 -47 0 -32 -4 -56 -8 -53 -5 3
-7 18 -5 34 5 30 -6 30 -22 -1 -7 -13 -6 -22 3 -32 6 -7 19 -22 27 -32 12 -16
12 -18 1 -11 -11 6 -13 4 -8 -8 3 -9 2 -19 -3 -22 -6 -4 -10 8 -10 26 0 18 -3
29 -7 25 -7 -7 -8 -11 -19 -79 -4 -21 -12 -41 -18 -43 -7 -3 -11 -18 -10 -35
1 -19 -5 -38 -17 -50 -10 -10 -19 -21 -19 -24 0 -3 0 -9 0 -15 0 -5 -5 -10
-11 -10 -6 0 -9 7 -5 15 3 8 1 15 -3 15 -5 0 -12 -7 -15 -15 -9 -24 19 -29 51
-9 l28 18 -22 -22 c-12 -12 -33 -24 -47 -28 -15 -3 -29 -10 -32 -15 -3 -5 -14
-9 -25 -9 -10 0 -19 -4 -19 -9 0 -11 33 -9 42 3 9 13 71 19 63 6 -3 -6 -17
-10 -31 -10 -14 0 -23 -4 -20 -8 6 -10 -86 -8 -102 2 -7 4 -12 2 -12 -3 0 -6
-5 -11 -11 -11 -5 0 -7 5 -3 12 5 8 1 9 -12 5 -18 -7 -18 -6 1 8 19 15 19 16
-5 13 -21 -3 -26 2 -28 25 -2 15 -8 27 -13 27 -5 0 -9 9 -9 20 0 11 -6 20 -12
21 -10 0 -10 2 0 6 6 2 10 9 7 13 -3 5 -6 31 -7 57 0 31 -3 41 -8 29 -6 -19
-7 -19 -12 2 -4 14 -2 20 4 16 7 -5 9 2 6 19 -3 15 -2 24 3 22 4 -3 10 1 13 7
3 7 3 0 0 -17 -4 -22 -3 -26 4 -15 18 27 18 90 1 90 -6 0 -8 -9 -4 -22 4 -16
4 -19 -3 -9 -6 8 -15 10 -23 6 -8 -5 -3 4 11 19 25 27 25 28 5 42 -20 15 -29
74 -12 74 5 0 6 -11 3 -25 -5 -20 1 -32 31 -60 20 -19 42 -35 47 -35 6 0 1 7
-11 15 -26 18 -25 47 6 165 16 57 18 83 11 115 -12 51 -12 75 -1 75 5 0 7 -9
4 -19 -3 -11 0 -28 7 -38 10 -15 10 -14 5 11 -4 18 -2 32 6 37 15 9 29 108 17
115 -8 5 -11 -13 -9 -46 0 -10 -1 -11 -5 -2 -8 17 -27 15 -20 -3 5 -14 -5 -19
-29 -16 -5 1 -1 -6 9 -14 17 -13 17 -15 4 -15 -9 0 -20 -5 -24 -12 -4 -6 -3
-8 4 -4 6 4 9 -4 7 -21 -2 -16 2 -34 9 -42 9 -12 8 -13 -3 -6 -11 6 -13 3 -8
-16 4 -18 0 -29 -19 -42 -13 -10 -24 -13 -24 -7 0 6 7 13 16 17 10 4 14 16 13
37 -2 17 1 37 5 44 4 7 5 16 2 19 -8 8 -37 -17 -31 -27 3 -5 -9 -22 -26 -39
-27 -28 -35 -43 -38 -74 -1 -5 -5 -5 -11 -2 -5 3 -10 4 -10 1 0 -2 -3 -12 -7
-22 -5 -12 -3 -15 6 -9 11 6 11 3 1 -16 -18 -35 -23 -38 -16 -9 l7 25 -20 -24
c-12 -13 -21 -28 -21 -35 0 -6 5 -4 10 4 13 19 13 8 0 -24 -6 -18 -6 -26 1
-26 6 0 7 -5 4 -10 -4 -6 -12 -5 -21 4 -16 17 -19 30 -4 21 6 -3 10 -1 10 5 0
18 -24 6 -30 -16 -3 -10 -12 -20 -20 -22 -8 -2 -24 -11 -34 -20 -11 -9 -16
-11 -12 -4 10 17 0 15 -24 -5 -24 -21 -50 -23 -68 -5 -7 6 -22 12 -33 12 -16
0 -19 5 -14 23 4 14 3 18 -3 9 -7 -11 -11 -10 -20 1 -6 7 -13 22 -15 33 -5 34
-18 46 -45 41 -26 -5 -61 18 -47 31 4 4 10 1 12 -5 6 -16 33 -17 33 -2 0 6 -9
13 -20 16 -22 6 -24 11 -11 31 6 10 10 9 14 -7 5 -22 41 -29 52 -11 3 5 0 7
-8 4 -8 -3 -20 3 -28 12 -9 11 -9 15 -2 10 9 -5 11 -2 7 8 -3 9 -9 14 -13 12
-4 -3 -7 4 -7 14 0 11 6 16 16 13 10 -3 8 1 -5 12 -11 9 -19 21 -17 27 1 5 -3
16 -9 24 -6 8 -8 14 -3 14 5 0 1 5 -9 11 -9 6 -15 15 -12 20 4 5 11 6 17 3 5
-4 2 5 -7 20 -10 14 -13 26 -9 26 5 0 9 13 9 29 0 37 -13 27 -17 -14 -2 -16
-7 -33 -13 -37 -6 -5 -4 -12 5 -18 13 -9 8 -14 -12 -12 -3 1 -4 -18 -2 -41 3
-37 2 -38 -5 -12 -8 26 -9 27 -11 8 -1 -13 -3 -26 -5 -30 -1 -5 -5 -21 -10
-38 -4 -16 -12 -35 -17 -42 -6 -7 -11 -30 -11 -52 -1 -21 -6 -37 -11 -34 -4 3
-5 -5 -1 -17 4 -14 3 -20 -3 -16 -11 7 -25 -51 -15 -67 3 -6 1 -7 -5 -3 -12 7
-29 -40 -19 -50 3 -3 -1 -21 -9 -39 -8 -19 -14 -46 -14 -60 0 -14 -7 -28 -14
-31 -8 -3 -22 -28 -31 -55 -18 -52 -33 -69 -45 -49 -5 9 -9 9 -14 1 -4 -6 -2
-19 4 -28 11 -17 11 -17 6 0 -3 10 -2 16 3 13 4 -3 8 -18 9 -35 0 -24 -4 -30
-26 -34 -15 -3 -32 -1 -39 4 -7 7 -14 6 -18 -1 -5 -8 -11 -8 -21 1 -10 8 -14
8 -14 0 0 -20 -32 -12 -56 15 -13 14 -24 32 -24 41 0 13 -3 13 -15 3 -8 -7
-15 -9 -16 -4 0 5 -2 17 -4 27 -2 9 1 15 6 11 5 -3 9 -1 9 5 0 5 -4 12 -8 15
-22 13 -9 119 32 266 18 63 20 81 6 60 -8 -13 -10 -12 -10 3 0 9 7 17 15 17 8
0 14 3 13 8 -1 4 4 24 11 45 7 21 10 45 7 53 -3 9 -1 12 4 9 6 -3 10 0 10 9 0
8 3 22 7 32 5 14 3 16 -13 11 -14 -6 -13 -2 6 14 14 11 19 18 13 14 -18 -9
-16 10 2 25 9 7 14 19 11 27 -3 7 -1 13 4 13 6 0 10 8 9 18 0 10 -3 12 -6 4
-2 -6 -10 -9 -15 -5 -7 4 -9 -1 -6 -13 3 -11 -1 -25 -9 -32 -19 -18 -18 4 2
42 9 16 13 36 11 43 -3 7 -1 13 3 13 5 0 12 -7 15 -16 6 -15 20 -12 22 4 0 4
6 19 12 33 13 32 13 89 -1 89 -5 0 -4 7 3 15 6 8 8 19 4 26 -11 18 -14 78 -4
84 4 3 6 -5 3 -17 -4 -19 -3 -20 6 -8 14 20 15 -4 1 -30 -7 -13 -7 -21 0 -25
6 -4 8 -15 5 -25 -3 -10 -1 -21 5 -25 5 -3 11 0 12 7 2 24 5 33 16 61 16 37
24 77 23 107 -1 20 1 22 9 10 5 -8 10 -12 10 -8 0 3 3 14 7 24 5 13 3 15 -8 9
-12 -8 -12 -6 -1 8 8 9 11 25 7 38 -5 14 -10 18 -14 10 -4 -7 -8 2 -8 19 0 21
3 27 9 18 5 -8 6 2 2 23 -3 20 -2 39 3 42 4 3 8 -5 8 -16 1 -12 5 -33 9 -46 6
-18 5 -22 -4 -16 -8 5 -11 3 -8 -5 8 -26 26 -21 36 10 6 17 8 38 5 47 -4 11
-3 14 6 9 8 -5 12 -3 10 5 -4 32 2 60 11 54 9 -6 14 13 11 41 -1 12 60 70 72
66 4 -1 7 3 7 8 0 6 -5 10 -11 10 -5 0 -7 5 -4 10 4 6 11 8 16 5 5 -4 9 -1 9
4 0 6 -6 11 -12 11 -9 0 -8 4 2 10 8 5 11 10 7 10 -4 0 -3 6 4 13 13 13 71 18
63 5z m62 -6 c0 -11 -8 -19 -19 -19 -18 -2 -18 -1 -2 18 22 23 21 23 21 1z
m34 14 c0 -3 -4 -8 -10 -11 -5 -3 -10 -1 -10 4 0 6 5 11 10 11 6 0 10 -2 10
-4z m40 -52 c0 -32 -15 -37 -16 -6 0 15 -4 36 -8 47 -8 20 -7 20 8 1 9 -11 16
-30 16 -42z m965 46 c4 -6 -1 -20 -11 -31 -21 -23 -42 -26 -23 -2 13 15 11 16
-15 9 -26 -6 -45 4 -46 24 0 10 89 10 95 0z m1062 -10 c-3 -12 2 -25 12 -33 9
-6 21 -19 26 -27 6 -12 5 -13 -6 -2 -7 6 -17 12 -22 12 -4 0 -5 -6 0 -12 4 -7
8 -27 9 -44 0 -25 -2 -29 -12 -20 -8 8 -9 17 -2 29 7 14 5 22 -9 33 -12 9 -14
13 -4 14 10 0 11 3 3 13 -10 12 -6 57 5 57 3 0 3 -9 0 -20z m803 14 c0 -8 -19
-13 -24 -6 -3 5 1 9 9 9 8 0 15 -2 15 -3z m55 -4 c8 -13 -5 -13 -25 0 -13 8
-13 10 2 10 9 0 20 -4 23 -10z m75 -6 c0 -8 -4 -12 -10 -9 -5 3 -10 10 -10 16
0 5 5 9 10 9 6 0 10 -7 10 -16z m-3732 -6 c-3 -7 -11 -13 -18 -13 -7 0 -15 6
-17 13 -3 7 4 12 17 12 13 0 20 -5 18 -12z m2837 -7 c3 -5 1 -12 -5 -16 -5 -3
-10 1 -10 9 0 18 6 21 15 7z m1665 -41 c0 -5 -5 -10 -11 -10 -5 0 -7 5 -4 10
3 6 8 10 11 10 2 0 4 -4 4 -10z m-2760 -33 c0 -5 -4 -5 -10 -2 -5 3 -10 14
-10 23 0 15 2 15 10 2 5 -8 10 -19 10 -23z m2507 27 c-3 -3 -12 -4 -19 -1 -8
3 -5 6 6 6 11 1 17 -2 13 -5z m-3757 -14 c0 -5 -8 -10 -17 -10 -15 0 -16 2 -3
10 19 12 20 12 20 0z m730 -10 c-8 -5 -17 -7 -19 -4 -3 3 1 9 9 14 8 5 17 7
19 4 3 -3 -1 -9 -9 -14z m2515 11 c3 -5 2 -12 -3 -15 -5 -3 -9 1 -9 9 0 17 3
19 12 6z m85 -11 c0 -5 -5 -10 -11 -10 -5 0 -7 5 -4 10 3 6 8 10 11 10 2 0 4
-4 4 -10z m-3326 -27 c-13 -14 -27 -23 -31 -20 -7 7 34 47 48 47 4 0 -3 -12
-17 -27z m4086 -5 c0 -5 4 -7 8 -4 4 2 14 0 22 -6 13 -8 12 -9 -2 -5 -9 3 -19
3 -22 -1 -13 -12 -35 -10 -40 5 -4 9 -2 11 6 7 7 -5 9 -2 5 9 -4 11 -2 14 9
10 7 -3 14 -9 14 -15z m-3380 8 c0 -3 -4 -8 -10 -11 -5 -3 -10 -1 -10 4 0 6 5
11 10 11 6 0 10 -2 10 -4z m529 -34 c-5 -2 -9 -16 -9 -32 0 -15 -7 -34 -17
-41 -15 -13 -15 -12 -5 7 6 12 13 39 16 60 6 52 6 52 15 29 5 -11 4 -21 0 -23z
m-1992 13 c0 -8 -4 -12 -9 -9 -5 3 -6 10 -3 15 9 13 12 11 12 -6z m4068 5 c3
-5 2 -10 -4 -10 -5 0 -13 5 -16 10 -3 6 -2 10 4 10 5 0 13 -4 16 -10z m-2602
-41 c4 -16 3 -19 -5 -11 -14 14 -20 45 -8 37 4 -2 10 -14 13 -26z m1650 -28
c15 -16 23 -32 18 -35 -5 -3 -16 6 -26 20 -9 14 -19 23 -22 20 -3 -3 0 -12 7
-21 7 -8 10 -15 7 -15 -10 0 -57 47 -57 56 0 4 5 3 12 -4 15 -15 28 -15 28 0
0 6 -3 9 -6 5 -6 -6 -34 16 -34 28 0 9 43 -22 73 -54z m955 33 c4 2 5 -21 3
-52 -3 -46 -6 -52 -12 -32 -6 19 -8 14 -6 -22 1 -25 -1 -44 -5 -42 -4 2 -8 -6
-11 -18 -2 -13 -2 4 1 37 3 33 9 68 14 78 5 11 7 31 4 45 -3 15 -3 21 0 14 3
-6 9 -10 12 -8z m-2873 -48 c0 -24 -3 -42 -7 -40 -7 5 -3 84 5 84 2 0 3 -20 2
-44z m2935 15 c0 -6 -4 -13 -10 -16 -5 -3 -10 1 -10 9 0 9 5 16 10 16 6 0 10
-4 10 -9z m-4310 -42 c-6 -10 -22 -26 -35 -35 -14 -9 -25 -23 -25 -30 0 -8 -8
-14 -18 -14 -24 0 -24 31 0 38 10 2 15 9 11 15 -3 5 -2 8 3 4 13 -8 47 20 39
32 -4 7 0 8 11 4 13 -5 15 -3 9 7 -5 9 -4 11 3 6 9 -5 9 -13 2 -27z m3245 13
c-3 -3 -11 0 -18 7 -9 10 -8 11 6 5 10 -3 15 -9 12 -12z m-2377 -53 c-3 -8 -7
-3 -11 10 -4 17 -3 21 5 13 5 -5 8 -16 6 -23z m-855 -20 c4 -16 3 -18 -9 -8
-16 13 -19 29 -5 29 5 0 11 -9 14 -21z m5234 -9 c3 -11 10 -20 15 -20 5 0 6 5
3 10 -10 16 1 11 19 -9 17 -18 16 -19 -8 -17 -14 0 -26 4 -26 7 0 3 -7 14 -15
25 -15 19 -15 19 -9 -1 5 -16 4 -17 -4 -5 -6 8 -8 18 -6 22 9 15 26 8 31 -12z
m-3774 -15 c-3 -9 -8 -14 -10 -11 -3 3 -2 9 2 15 9 16 15 13 8 -4z m27 -5 c-6
-11 -8 -26 -4 -32 4 -7 3 -8 -4 -4 -15 9 -15 29 0 44 18 18 20 15 8 -8z m26
-6 c-4 -9 -9 -15 -11 -12 -3 3 -3 13 1 22 4 9 9 15 11 12 3 -3 3 -13 -1 -22z
m-1650 -9 c-11 -8 -22 -12 -25 -9 -6 6 19 24 34 24 6 -1 1 -7 -9 -15z m4366
-17 c-8 -8 -9 -4 -5 13 4 13 8 18 11 10 2 -7 -1 -18 -6 -23z m-4252 16 c0 -16
-23 -44 -35 -44 -18 0 -19 5 -3 30 12 18 38 28 38 14z m4294 -34 c-5 -5 -10 3
-11 18 -1 22 0 24 9 8 6 -10 6 -22 2 -26z m970 -10 c-3 -2 -9 2 -13 9 -7 11
-9 11 -14 0 -2 -8 -4 -2 -3 13 l1 28 17 -22 c9 -13 14 -25 12 -28z m-5437 -25
c-4 -8 -11 -15 -17 -15 -6 0 -6 7 2 20 14 22 24 19 15 -5z m5517 11 c-3 -8 -1
-17 5 -21 6 -3 11 -11 11 -18 0 -6 -7 -1 -16 11 -8 12 -12 27 -9 32 9 15 15
12 9 -4z m-2890 -2 c23 -9 20 -23 -4 -17 -11 3 -20 9 -20 14 0 11 3 11 24 3z
m56 -34 c0 -5 -2 -10 -4 -10 -3 0 -8 5 -11 10 -3 6 -1 10 4 10 6 0 11 -4 11
-10z m-2645 -19 c-3 -6 -11 -11 -16 -11 -5 0 -4 6 3 14 14 16 24 13 13 -3z
m1555 3 c0 -8 -4 -12 -10 -9 -5 3 -10 10 -10 16 0 5 5 9 10 9 6 0 10 -7 10
-16z m1857 -16 c-3 -8 -6 -5 -6 6 -1 11 2 17 5 13 3 -3 4 -12 1 -19z m1479 10
c-9 -5 -23 -5 -32 0 -12 6 -7 9 16 9 23 0 28 -3 16 -9z m-2656 -75 l-5 -78 -3
64 c-3 56 1 91 10 91 2 0 1 -35 -2 -77z m350 57 c-8 -5 -21 -10 -28 -10 -8 0
-25 -9 -39 -20 -15 -11 -28 -18 -31 -15 -8 8 38 39 68 46 38 10 46 10 30 -1z
m82 -4 c9 -4 27 -2 40 4 20 9 21 9 7 -2 -14 -11 -14 -15 -3 -26 8 -7 14 -18
14 -25 0 -8 -4 -7 -11 3 -8 11 -12 12 -16 3 -3 -9 -11 -9 -29 3 -13 9 -24 14
-24 10 0 -8 71 -52 100 -61 14 -4 31 -15 38 -24 8 -9 11 -10 7 -3 -3 6 -1 12
5 12 7 0 9 -8 5 -20 -4 -12 -1 -22 7 -25 7 -3 14 -24 15 -48 2 -23 8 -54 14
-69 8 -19 8 -32 0 -46 -9 -17 -8 -19 10 -15 14 4 17 8 9 13 -8 5 -7 9 5 13 9
4 13 3 10 -3 -3 -6 -3 -10 2 -10 4 0 8 -11 8 -25 0 -14 -3 -25 -7 -25 -5 0 -8
7 -8 15 0 8 -4 15 -10 15 -14 0 -12 -38 2 -42 9 -3 9 -15 0 -49 -6 -25 -13
-148 -15 -283 -3 -220 -5 -240 -22 -252 -10 -8 -20 -21 -21 -29 -1 -8 -19 -30
-39 -49 -20 -19 -34 -39 -31 -44 3 -5 0 -9 -7 -9 -7 0 -21 -4 -32 -7 -15 -5
-15 -4 3 5 12 7 22 16 22 21 0 5 -4 6 -10 3 -5 -3 -10 -1 -10 5 0 6 -5 8 -10
5 -6 -4 -8 -11 -5 -16 11 -16 -7 -10 -20 8 -7 9 -26 16 -44 16 -17 0 -31 4
-31 9 0 5 -4 7 -8 4 -4 -2 -8 4 -9 14 -1 11 2 22 8 25 5 4 9 18 9 33 0 21 -2
24 -10 12 -6 -9 -10 -10 -10 -3 0 6 4 14 8 17 5 3 9 40 10 83 l2 78 -87 -4
c-80 -3 -109 -13 -97 -32 2 -4 -2 -9 -10 -12 -19 -8 -26 -55 -10 -68 10 -8 14
-8 14 0 0 6 -6 11 -12 11 -10 0 -10 2 0 8 8 5 10 16 6 28 -4 10 -3 16 1 11 5
-4 10 -28 11 -53 l3 -46 -23 21 c-18 17 -25 19 -33 9 -6 -7 -9 -21 -8 -31 2
-10 -7 -24 -20 -33 -13 -9 -27 -29 -30 -45 -4 -16 -11 -27 -15 -24 -5 3 -8 -9
-7 -28 2 -21 -1 -34 -9 -34 -8 0 -10 7 -4 22 7 18 5 21 -12 20 -11 -1 -23 -7
-27 -14 -6 -9 -10 -9 -19 1 -7 9 -7 18 3 31 8 12 15 14 20 8 10 -17 25 -13 25
7 0 13 -2 14 -9 4 -6 -11 -10 -10 -16 5 -5 10 -7 22 -6 26 1 5 -3 5 -9 2 -6
-4 -9 -13 -6 -21 8 -21 -28 -59 -49 -51 -11 5 -15 14 -13 25 3 10 -1 27 -10
38 -13 18 -14 17 -8 -11 l7 -30 -21 25 c-11 14 -20 30 -20 35 0 6 4 4 9 -4 6
-10 10 -10 16 -1 4 6 12 9 19 7 6 -3 20 1 31 9 17 12 17 14 2 14 -9 0 -17 -5
-17 -10 0 -6 -8 -5 -20 2 -11 7 -19 20 -18 29 2 9 -3 23 -10 32 -11 13 -10 15
7 10 15 -4 23 3 34 30 8 19 20 38 26 41 15 10 14 39 -1 31 -7 -4 -6 0 4 7 13
11 14 18 5 33 -9 17 -9 18 5 7 13 -10 17 -10 22 4 7 18 0 34 -15 34 -6 0 -7
-6 -3 -12 4 -7 3 -9 -1 -5 -5 4 -10 14 -11 23 -2 13 0 13 22 -1 24 -16 25 -15
44 31 11 25 17 51 13 56 -3 6 -1 8 5 4 6 -3 13 -2 17 4 3 5 0 10 -7 10 -8 0
-6 4 4 11 14 8 17 20 14 59 -4 39 -1 50 12 55 14 5 15 4 5 -6 -18 -18 -16 -29
5 -29 10 0 13 -3 6 -8 -13 -8 -28 -45 -15 -38 5 3 16 21 25 41 15 31 15 37 1
65 -14 28 -14 30 5 42 11 7 20 24 21 38 l1 25 7 -25 c6 -19 3 -28 -11 -36 -19
-10 -19 -11 -1 -24 10 -8 15 -11 11 -6 -4 5 8 27 27 49 19 22 32 43 30 48 -3
4 -1 11 5 14 8 5 7 12 -2 23 -10 12 -10 14 0 8 6 -4 12 -3 12 3 0 5 -4 13 -10
16 -5 3 -10 12 -10 18 0 8 3 7 9 -2 7 -11 11 -9 21 10 10 17 10 24 1 27 -15 5
-14 34 4 58 18 23 20 11 3 -16 -11 -17 -10 -22 1 -30 12 -7 13 -14 4 -32 -9
-21 -8 -24 11 -26 14 -1 16 2 8 7 -10 6 -7 20 13 62 13 30 25 61 25 70 0 8 5
20 12 27 7 7 9 12 5 12 -9 0 25 34 49 49 17 11 16 11 -6 5 -21 -5 -23 -4 -12
7 10 11 17 11 32 2 15 -10 26 -10 52 2 27 11 29 14 11 15 -12 0 -24 4 -27 8
-6 10 21 8 46 -2z m2088 10 c0 -2 -7 -7 -16 -10 -8 -3 -12 -2 -9 4 6 10 25 14
25 6z m134 -6 c17 6 25 6 21 0 -3 -6 -13 -10 -21 -10 -8 0 -14 -8 -14 -17 -1
-16 -2 -16 -15 1 -8 11 -15 25 -15 30 0 6 4 5 8 -2 7 -10 15 -10 36 -2z
m-3953 -44 c-14 -36 -22 -33 -9 5 6 16 12 28 14 26 3 -2 0 -16 -5 -31z m3999
24 c-8 -5 -24 -9 -35 -9 l-20 0 20 9 c11 5 27 9 35 9 13 1 13 0 0 -9z m-5070
-30 c-27 -39 -34 -39 -12 0 9 16 21 30 25 30 5 0 -1 -13 -13 -30z m5694 11
c15 -17 15 -19 1 -25 -9 -3 -14 -2 -11 2 2 4 1 14 -5 22 -7 12 -9 10 -9 -7 0
-14 -6 -23 -15 -23 -20 0 -19 20 3 36 9 7 17 14 18 14 0 0 9 -8 18 -19z
m-5637 -23 c-3 -8 -6 -5 -6 6 -1 11 2 17 5 13 3 -3 4 -12 1 -19z m2290 -15
c-3 -10 -5 -4 -5 12 0 17 2 24 5 18 2 -7 2 -21 0 -30z m-2227 17 c0 -5 -2 -10
-4 -10 -3 0 -8 5 -11 10 -3 6 -1 10 4 10 6 0 11 -4 11 -10z m2512 -51 l-10
-34 1 42 c1 23 6 38 10 34 5 -5 4 -24 -1 -42z m301 24 c-3 -7 -9 -13 -15 -13
-5 0 -6 5 -2 12 5 8 2 9 -10 5 -9 -4 -15 -3 -11 2 9 15 44 9 38 -6z m587 -40
c0 -17 5 -33 11 -35 6 -2 1 -12 -10 -22 -12 -11 -21 -14 -21 -8 0 7 5 12 10
12 6 0 10 5 10 11 0 5 -3 8 -7 6 -5 -3 -8 17 -8 44 -1 27 3 43 7 36 4 -6 8
-26 8 -44z m41 30 c-12 -20 -14 -14 -5 12 4 9 9 14 11 11 3 -2 0 -13 -6 -23z
m1179 2 c-7 -8 -20 -15 -29 -15 -12 1 -11 5 8 21 26 22 41 18 21 -6z m431 12
c-1 -4 -1 -14 -1 -22 0 -8 -3 -15 -7 -15 -5 0 -8 11 -8 25 0 14 4 24 8 22 5
-1 8 -6 8 -10z m-2824 -59 c-3 -8 -6 -5 -6 6 -1 11 2 17 5 13 3 -3 4 -12 1
-19z m660 10 c4 -7 9 -22 10 -33 3 -20 3 -20 -12 -1 -8 11 -15 16 -15 11 0 -5
-5 -4 -11 2 -12 12 -4 33 11 33 5 0 12 -6 17 -12z m1416 5 c-7 -2 -21 -2 -30
0 -10 3 -4 5 12 5 17 0 24 -2 18 -5z m-3433 -13 c0 -5 -4 -10 -10 -10 -5 0
-10 5 -10 10 0 6 5 10 10 10 6 0 10 -4 10 -10z m3691 -9 c-11 -7 -9 -10 8 -16
13 -4 20 -9 18 -11 -2 -3 -16 1 -31 7 -19 9 -23 15 -14 21 7 4 18 8 23 8 6 0
4 -4 -4 -9z m-4705 -32 c1 -22 -2 -27 -8 -17 -7 9 -8 7 -5 -10 3 -12 1 -20 -4
-16 -11 7 -11 17 1 48 12 33 15 33 16 -5z m5202 9 c-2 -7 -10 -19 -18 -26 -13
-12 -13 -13 1 -9 9 3 16 -1 16 -8 0 -10 -5 -11 -18 -4 -24 12 -32 11 -23 -3 4
-7 3 -8 -4 -4 -18 11 -14 24 7 31 12 4 18 12 14 21 -3 8 1 14 11 14 9 0 15 -6
14 -12z m-5241 -35 c-3 -10 -5 -4 -5 12 0 17 2 24 5 18 2 -7 2 -21 0 -30z
m2610 15 c-3 -8 -6 -5 -6 6 -1 11 2 17 5 13 3 -3 4 -12 1 -19z m55 0 c-7 -7
-12 -8 -12 -2 0 14 12 26 19 19 2 -3 -1 -11 -7 -17z m383 13 c3 -5 1 -12 -5
-16 -5 -3 -10 1 -10 9 0 18 6 21 15 7z m1393 -17 c0 -17 -3 -22 -8 -13 -5 6
-6 18 -3 26 8 19 11 16 11 -13z m-1361 -26 c-3 -7 -5 -2 -5 12 0 14 2 19 5 13
2 -7 2 -19 0 -25z m1643 12 c0 -5 -10 -15 -22 -21 l-23 -12 20 21 c23 24 25
25 25 12z m-1663 -47 c-3 -10 -5 -2 -5 17 0 19 2 27 5 18 2 -10 2 -26 0 -35z
m-2040 -5 c-3 -7 -5 -2 -5 12 0 14 2 19 5 13 2 -7 2 -19 0 -25z m2491 25 c-10
-2 -18 -9 -18 -15 0 -6 -3 -9 -6 -5 -10 10 6 27 24 26 15 -1 15 -2 0 -6z
m2362 -37 c0 -5 -7 -3 -15 4 -8 7 -15 20 -15 28 0 13 3 12 15 -4 8 -10 15 -23
15 -28z m-2360 -1 c-7 -8 -10 -25 -6 -40 4 -14 4 -25 1 -25 -2 0 -8 15 -13 33
-7 25 -5 35 7 44 21 15 27 8 11 -12z m840 0 c-7 -8 -16 -15 -21 -15 -5 0 -1 8
9 18 20 22 31 19 12 -3z m-796 -3 c-12 -9 -24 -24 -27 -32 -3 -10 -6 -7 -6 8
-1 15 7 26 22 32 32 13 34 12 11 -8z m-1203 -19 c13 -16 12 -17 -3 -4 -17 13
-22 21 -14 21 2 0 10 -8 17 -17z m3501 -1 c-12 -2 -20 -8 -17 -13 4 -5 3 -14
-1 -21 -5 -8 -10 -6 -14 8 -10 26 6 43 33 36 l22 -7 -23 -3z m-5832 -2 c0 -5
-4 -10 -10 -10 -5 0 -10 5 -10 10 0 6 5 10 10 10 6 0 10 -4 10 -10z m4335 0
c-3 -5 -12 -10 -18 -10 -7 0 -6 4 3 10 19 12 23 12 15 0z m-2011 -33 c-9 -5
-18 -6 -21 -3 -4 3 -1 6 7 6 10 0 10 3 -1 17 -13 15 -12 15 8 2 19 -11 20 -15
7 -22z m166 19 c0 -3 -4 -8 -10 -11 -5 -3 -10 -1 -10 4 0 6 5 11 10 11 6 0 10
-2 10 -4z m23 -24 c-3 -12 -9 -22 -14 -22 -12 0 -11 7 3 30 15 24 19 21 11 -8z
m-53 -12 c0 -22 -5 -30 -18 -30 -14 0 -19 8 -19 30 0 22 5 30 19 30 13 0 18
-8 18 -30z m1863 15 c-3 -9 -8 -14 -10 -11 -3 3 -2 9 2 15 9 16 15 13 8 -4z
m-4386 -42 c-3 -10 -5 -2 -5 17 0 19 2 27 5 18 2 -10 2 -26 0 -35z m30 25 c-3
-8 -6 -5 -6 6 -1 11 2 17 5 13 3 -3 4 -12 1 -19z m1423 7 c0 -8 6 -15 13 -15
7 -1 5 -6 -6 -14 -11 -9 -14 -17 -8 -21 14 -8 9 -67 -7 -73 -6 -2 -12 1 -12 8
0 6 4 9 8 6 5 -3 9 8 9 24 0 16 -4 27 -9 24 -13 -8 -9 21 4 34 9 9 9 12 0 12
-7 0 -12 7 -12 15 0 8 5 15 10 15 6 0 10 -7 10 -15z m2022 -15 c-2 -16 -6 -30
-8 -30 -2 0 -4 14 -4 30 0 17 4 30 8 30 5 0 7 -13 4 -30z m-1035 -17 c-3 -10
-5 -4 -5 12 0 17 2 24 5 18 2 -7 2 -21 0 -30z m181 12 c-6 -14 -13 -24 -14
-22 -6 6 9 47 17 47 5 0 3 -11 -3 -25z m936 -5 c3 0 6 8 6 17 0 9 3 14 6 10 3
-3 3 -15 -1 -27 -6 -20 -8 -21 -26 -4 -10 9 -19 22 -19 28 0 6 7 3 14 -6 7
-10 16 -18 20 -18z m760 11 c10 -11 13 -22 8 -25 -12 -7 -44 4 -54 18 -4 7
-19 2 -40 -12 l-33 -23 29 26 c16 14 35 24 42 21 43 -18 49 -18 30 -2 -11 9
-15 16 -9 16 5 0 18 -9 27 -19z m-827 -23 c-3 -7 -5 -2 -5 12 0 14 2 19 5 13
2 -7 2 -19 0 -25z m-1529 -24 c-7 -15 -22 -29 -33 -30 -19 -3 -19 -2 1 14 12
9 24 26 28 36 3 10 9 16 12 13 3 -3 0 -18 -8 -33z m587 26 c3 -5 1 -10 -4 -10
-6 0 -11 5 -11 10 0 6 2 10 4 10 3 0 8 -4 11 -10z m-2505 -85 c0 -41 5 -77 10
-80 14 -8 13 -42 -2 -51 -7 -5 -8 -3 -3 6 4 7 3 15 -2 19 -15 9 -28 195 -14
187 6 -4 11 -39 11 -81z m3077 63 c-3 -8 -6 -5 -6 6 -1 11 2 17 5 13 3 -3 4
-12 1 -19z m425 -24 c-10 -12 -19 -20 -21 -18 -3 2 1 10 7 16 15 15 16 32 2
23 -5 -3 -10 1 -10 9 0 13 3 14 19 4 18 -11 18 -13 3 -34z m703 24 c-1 -13 -3
-27 -4 -32 0 -5 -8 -3 -16 4 -14 12 -14 15 1 31 21 24 22 24 19 -3z m685 -3
c-8 -10 -9 -15 -2 -15 6 0 15 7 20 16 7 13 10 13 21 1 10 -13 7 -16 -19 -22
-17 -4 -34 -4 -37 -1 -6 5 15 36 24 36 3 0 0 -7 -7 -15z m175 5 c3 -6 -4 -10
-17 -10 -18 0 -20 2 -8 10 19 12 18 12 25 0z m-3691 -40 c4 -25 3 -31 -4 -20
-5 8 -10 26 -10 39 0 32 6 24 14 -19z m983 18 c-3 -8 -6 -5 -6 6 -1 11 2 17 5
13 3 -3 4 -12 1 -19z m-22 -7 c3 -5 1 -12 -5 -16 -5 -3 -10 1 -10 9 0 18 6 21
15 7z m742 -33 c-3 -7 -5 -2 -5 12 0 14 2 19 5 13 2 -7 2 -19 0 -25z m-1111
-15 c-3 -4 -6 -1 -6 5 0 7 -7 9 -17 5 -15 -6 -16 -5 -3 9 13 14 16 14 23 1 5
-8 6 -17 3 -20z m394 23 c0 -3 -4 -8 -10 -11 -5 -3 -10 -1 -10 4 0 6 5 11 10
11 6 0 10 -2 10 -4z m-33 -12 c-3 -3 -12 -4 -19 -1 -8 3 -5 6 6 6 11 1 17 -2
13 -5z m-1350 -10 c-3 -3 -12 -4 -19 -1 -8 3 -5 6 6 6 11 1 17 -2 13 -5z
m3253 -19 c14 -19 14 -19 -2 -6 -10 7 -18 18 -18 24 0 6 1 8 3 6 1 -2 9 -13
17 -24z m45 13 c3 -3 1 -17 -4 -30 -11 -29 3 -50 27 -41 10 4 13 2 8 -5 -12
-19 -32 -14 -50 12 -11 18 -12 26 -3 29 9 4 9 7 0 18 -7 7 -13 16 -13 20 0 8
26 6 35 -3z m860 -46 c-8 -8 -13 0 -20 33 l-7 30 16 -29 c9 -16 14 -31 11 -34z
m-3262 28 c3 -11 1 -18 -4 -14 -5 3 -9 12 -9 20 0 20 7 17 13 -6z m-913 0 c0
-5 -2 -10 -4 -10 -3 0 -8 5 -11 10 -3 6 -1 10 4 10 6 0 11 -4 11 -10z m22 -18
c-7 -2 -12 -11 -13 -20 0 -10 -3 -12 -5 -5 -3 7 0 22 7 35 9 17 14 19 17 8 3
-7 0 -16 -6 -18z m-1022 8 c0 -5 -2 -10 -4 -10 -3 0 -8 5 -11 10 -3 6 -1 10 4
10 6 0 11 -4 11 -10z m980 -54 c0 -53 -7 -42 -14 19 -4 35 -3 45 4 35 5 -8 10
-33 10 -54z m2117 17 c-3 -10 -5 -2 -5 17 0 19 2 27 5 18 2 -10 2 -26 0 -35z
m765 12 c3 -13 1 -22 -3 -19 -9 5 -13 44 -5 44 2 0 6 -11 8 -25z m738 15 c0
-5 -6 -10 -12 -11 -7 0 -4 -4 7 -9 15 -6 16 -9 4 -9 -21 -1 -29 8 -22 25 6 16
23 19 23 4z m-2102 -31 c-1 -17 -4 -25 -8 -18 -7 10 -2 49 5 49 2 0 3 -14 3
-31z m979 -36 c-3 -10 -5 -4 -5 12 0 17 2 24 5 18 2 -7 2 -21 0 -30z m33 33
c0 -3 -4 -8 -10 -11 -5 -3 -10 -1 -10 4 0 6 5 11 10 11 6 0 10 -2 10 -4z m865
-6 c-3 -5 -2 -10 4 -10 5 0 11 6 14 13 2 6 4 0 4 -15 0 -16 -4 -28 -9 -28 -5
0 -7 4 -4 9 3 5 -1 11 -9 15 -17 6 -20 26 -4 26 5 0 7 -4 4 -10z m1478 -19
c-4 -15 -8 -19 -13 -10 -5 6 -3 18 3 24 16 17 17 14 10 -14z m-3890 -11 c-3
-12 -8 -19 -11 -16 -5 6 5 36 12 36 2 0 2 -9 -1 -20z m1917 12 c0 -13 -30 -52
-41 -52 -5 0 -9 10 -9 23 0 18 2 19 10 7 8 -13 11 -11 16 8 6 20 24 32 24 14z
m-2340 -6 c0 -3 -4 -8 -10 -11 -5 -3 -10 -1 -10 4 0 6 5 11 10 11 6 0 10 -2
10 -4z m2825 -6 c3 -6 -1 -7 -9 -4 -18 7 -21 14 -7 14 6 0 13 -4 16 -10z
m-2388 -22 c-3 -8 -6 -5 -6 6 -1 11 2 17 5 13 3 -3 4 -12 1 -19z m1933 -10 c0
-5 -7 -3 -15 6 -8 8 -15 18 -15 22 0 3 7 1 15 -6 8 -7 15 -17 15 -22z m-2360
2 c0 -5 -4 -10 -9 -10 -6 0 -13 5 -16 10 -3 6 1 10 9 10 9 0 16 -4 16 -10z
m-550 -3 c0 -1 -9 -10 -19 -19 -18 -16 -20 -15 -18 3 1 11 9 19 19 19 10 0 18
-1 18 -3z m356 -57 c-1 -21 -6 -43 -11 -47 -4 -4 -5 0 -2 9 3 9 1 19 -6 21 -9
3 -9 10 1 26 7 12 10 27 6 33 -4 6 -3 8 4 5 5 -4 9 -25 8 -47z m1088 35 c11
-11 16 -12 19 -2 2 6 2 1 0 -13 -3 -14 -8 -29 -13 -34 -5 -5 -6 0 -3 13 3 12
1 21 -6 21 -6 0 -11 -4 -11 -10 0 -16 -17 -12 -24 6 -12 32 12 44 38 19z
m2132 -11 c-11 -7 -22 -11 -25 -8 -3 3 3 12 13 20 11 7 22 11 25 8 3 -3 -3
-12 -13 -20z m-4526 -31 c-11 -17 -11 -17 -6 0 3 10 7 26 7 35 1 15 2 15 6 0
2 -10 -1 -25 -7 -35z m1520 26 c0 -6 -4 -7 -10 -4 -5 3 -10 11 -10 16 0 6 5 7
10 4 6 -3 10 -11 10 -16z m267 -1 c-3 -8 -6 -5 -6 6 -1 11 2 17 5 13 3 -3 4
-12 1 -19z m95 0 c-7 -7 -12 -8 -12 -2 0 6 3 14 7 17 3 4 9 5 12 2 2 -3 -1
-11 -7 -17z m1905 -10 c-3 -7 -5 -2 -5 12 0 14 2 19 5 13 2 -7 2 -19 0 -25z
m-2921 -13 c-1 -29 -16 -35 -16 -7 0 16 8 32 16 32 1 0 1 -11 0 -25z m702 16
c-2 -5 5 -16 15 -23 15 -11 12 -13 -25 -14 -34 -2 -38 0 -18 6 23 7 24 8 6 15
-19 8 -19 9 0 16 10 4 20 8 22 8 1 1 1 -3 0 -8z m2983 -18 c-8 -15 -10 -15
-11 -2 0 17 10 32 18 25 2 -3 -1 -13 -7 -23z m-3284 -5 c-3 -8 -6 -5 -6 6 -1
11 2 17 5 13 3 -3 4 -12 1 -19z m403 12 c0 -5 -4 -10 -10 -10 -5 0 -10 5 -10
10 0 6 5 10 10 10 6 0 10 -4 10 -10z m35 -18 c-8 -8 -25 10 -19 20 4 6 9 5 15
-3 4 -7 6 -15 4 -17z m2120 9 c3 -5 0 -13 -6 -17 -8 -5 -9 -3 -4 6 6 10 4 12
-9 7 -10 -4 -15 -3 -11 3 8 13 22 13 30 1z m-2170 -11 c13 -5 14 -9 5 -9 -8 0
-24 4 -35 9 -13 5 -14 9 -5 9 8 0 24 -4 35 -9z m95 0 c0 -5 -7 -10 -16 -10 -8
0 -12 5 -9 10 3 6 10 10 16 10 5 0 9 -4 9 -10z m2030 -22 c0 -16 -3 -19 -11
-11 -6 6 -8 16 -5 22 11 17 16 13 16 -11z m-21 -33 c0 -5 -4 -3 -9 5 -5 8 -9
22 -9 30 0 16 17 -16 18 -35z m-342 13 c-3 -8 -6 -5 -6 6 -1 11 2 17 5 13 3
-3 4 -12 1 -19z m1757 6 c9 -8 24 -16 34 -17 10 0 18 -9 18 -20 0 -17 -1 -17
-13 -2 -6 10 -25 18 -40 19 -39 2 -60 16 -42 27 19 12 25 11 43 -7z m41 6 c3
-6 -1 -7 -9 -4 -18 7 -21 14 -7 14 6 0 13 -4 16 -10z m-1285 -41 c0 -16 -5
-29 -12 -30 -7 0 -4 -4 7 -9 l20 -9 -20 0 c-17 -1 -17 -3 -5 -11 10 -7 11 -10
2 -10 -19 0 -26 28 -12 45 7 9 10 26 6 41 -5 17 -3 23 4 19 5 -3 10 -19 10
-36z m-3740 -10 c0 -23 -16 -25 -24 -3 -10 25 -7 34 9 28 8 -4 15 -15 15 -25z
m1062 -1 c-8 -8 -9 -4 -5 13 4 13 8 18 11 10 2 -7 -1 -18 -6 -23z m2625 0 c-3
-7 -5 -2 -5 12 0 14 2 19 5 13 2 -7 2 -19 0 -25z m1903 22 c0 -5 -7 -10 -16
-10 -8 0 -12 5 -9 10 3 6 10 10 16 10 5 0 9 -4 9 -10z m-4490 -20 c0 -5 -2
-10 -4 -10 -3 0 -8 5 -11 10 -3 6 -1 10 4 10 6 0 11 -4 11 -10z m950 -70 c-6
-11 -18 -20 -28 -19 -14 0 -14 2 -2 6 22 9 29 24 31 63 l2 35 4 -32 c2 -18 -1
-41 -7 -53z m33 60 c3 -11 1 -20 -4 -20 -5 0 -9 9 -9 20 0 11 2 20 4 20 2 0 6
-9 9 -20z m1692 -9 c9 -19 11 -32 5 -36 -6 -3 -10 -11 -10 -18 0 -8 3 -8 12 1
15 15 31 16 22 0 -5 -7 -2 -9 7 -6 8 3 30 -7 49 -23 19 -16 30 -29 23 -29 -6
0 -15 5 -18 10 -4 6 -11 7 -17 4 -6 -4 -8 -2 -5 3 11 17 -15 29 -55 28 -43 -1
-42 -2 -26 24 9 15 9 25 0 45 -16 36 -6 33 13 -3z m-1742 -19 c-3 -12 -9 -22
-14 -22 -5 0 -3 11 3 25 13 30 20 28 11 -3z m99 19 c-9 -5 -11 -17 -6 -34 4
-17 2 -27 -5 -27 -6 0 -8 7 -4 16 5 14 3 15 -15 5 -27 -14 -32 -14 -32 3 0 10
8 13 21 11 16 -3 20 0 17 13 -4 13 1 18 16 20 14 1 17 -1 8 -7z m3448 3 c0 -8
-19 -13 -24 -6 -3 5 1 9 9 9 8 0 15 -2 15 -3z m-5658 -54 c-7 -12 -8 -21 -2
-25 6 -3 10 -11 10 -16 0 -6 -6 -4 -14 3 -12 12 -13 28 -7 73 0 5 7 3 13 -3
10 -10 10 -17 0 -32z m1765 8 c-3 -8 -6 -5 -6 6 -1 11 2 17 5 13 3 -3 4 -12 1
-19z m1533 2 c0 -5 -5 -10 -11 -10 -5 0 -7 5 -4 10 3 6 8 10 11 10 2 0 4 -4 4
-10z m-2187 -16 c-7 -3 -9 -13 -6 -22 4 -14 3 -14 -5 -2 -12 16 -7 30 11 29 9
0 9 -2 0 -5z m660 -19 c-3 -9 -8 -14 -10 -11 -3 3 -2 9 2 15 9 16 15 13 8 -4z
m1180 -75 c7 0 6 -4 -3 -10 -13 -9 -13 -11 0 -20 8 -5 11 -10 5 -10 -24 0 -30
18 -25 75 l5 60 3 -47 c2 -29 8 -48 15 -48z m-2883 60 c6 -11 7 -20 3 -20 -5
0 -14 9 -21 20 -7 11 -8 20 -2 20 5 0 14 -9 20 -20z m3519 -21 c-8 -5 -9 -9
-3 -9 6 0 11 -6 11 -14 0 -15 -21 -16 -34 -1 -4 4 -2 5 5 1 8 -5 13 -3 11 5
-3 27 1 40 12 33 8 -4 7 -9 -2 -15z m-2478 -20 c-5 -13 -10 -19 -10 -12 -1 15
10 45 15 40 3 -2 0 -15 -5 -28z m672 -1 c-2 -5 0 -8 5 -8 6 0 7 -10 4 -22 -6
-23 -6 -23 -13 2 -7 25 -7 25 -8 -3 -1 -16 4 -37 9 -48 6 -10 7 -19 2 -19 -5
0 -15 14 -22 31 -10 24 -11 36 -2 50 6 10 9 26 5 36 -6 15 -5 16 9 3 9 -8 14
-18 11 -22z m2224 8 c4 -7 15 -15 23 -18 8 -3 -1 -5 -21 -4 -21 0 -34 5 -31
10 3 5 -2 6 -12 3 -10 -4 -22 -7 -27 -7 -6 0 -7 -5 -3 -12 4 -7 3 -8 -4 -4
-15 9 -3 39 13 32 6 -2 18 0 26 5 19 12 27 11 36 -5z m1108 -15 c-3 -6 -11
-11 -16 -11 -5 0 -4 6 3 14 14 16 24 13 13 -3z m-766 -17 c6 -14 9 -30 5 -35
-3 -6 0 -16 6 -24 9 -11 9 -15 1 -15 -6 0 -11 6 -11 13 0 8 -4 7 -10 -3 -6
-10 -7 -3 -3 24 5 31 2 42 -12 52 -15 11 -16 14 -4 14 9 0 21 -12 28 -26z
m726 16 c8 -13 -5 -13 -25 0 -13 8 -13 10 2 10 9 0 20 -4 23 -10z m-2604 -27
c5 -14 8 -31 5 -37 -2 -6 -7 4 -11 22 -9 40 -17 41 -32 1 -9 -22 -17 -30 -27
-26 -9 4 -15 3 -15 -1 1 -4 1 -15 0 -24 -1 -22 -21 -24 -21 -3 0 8 4 15 10 15
5 0 7 6 5 13 -3 6 5 17 17 22 13 6 23 17 22 26 -2 26 36 20 47 -8z m1119 2 c0
-1 -6 -8 -14 -14 -11 -9 -15 -7 -19 8 -3 14 0 17 14 14 11 -3 19 -7 19 -8z
m740 -4 c0 -22 -16 -36 -24 -22 -8 12 3 41 15 41 5 0 9 -9 9 -19z m1121 -8
c-12 -20 -14 -14 -5 12 4 9 9 14 11 11 3 -2 0 -13 -6 -23z m-3374 -5 c-3 -8
-6 -5 -6 6 -1 11 2 17 5 13 3 -3 4 -12 1 -19z m3411 9 c-9 -7 -18 -24 -21 -37
l-4 -25 -2 26 c-1 26 15 49 34 49 5 0 3 -6 -7 -13z m-4638 -42 c0 -7 -10 -12
-23 -11 -14 0 -23 7 -23 18 0 16 1 16 20 0 18 -16 19 -16 6 8 -12 23 -12 24 3
11 10 -7 17 -19 17 -26z m957 3 c-3 -7 -5 -2 -5 12 0 14 2 19 5 13 2 -7 2 -19
0 -25z m1103 22 c0 -5 -4 -10 -10 -10 -5 0 -10 5 -10 10 0 6 5 10 10 10 6 0
10 -4 10 -10z m1398 -26 c12 -8 7 -11 -19 -11 -19 0 -28 2 -21 5 6 2 12 13 13
25 0 15 2 17 6 7 4 -8 13 -20 21 -26z m692 26 c0 -5 -7 -10 -16 -10 -8 0 -12
5 -9 10 3 6 10 10 16 10 5 0 9 -4 9 -10z m40 -5 c0 -8 -4 -15 -8 -15 -5 0 -9
7 -9 15 0 8 4 15 9 15 4 0 8 -7 8 -15z m-4914 -27 c1 -15 -3 -25 -8 -22 -4 3
-5 10 -2 16 4 6 -2 18 -12 25 -19 14 -19 15 1 11 14 -2 20 -12 21 -30z m4294
-9 c0 -4 -4 -11 -10 -14 -5 -3 -7 0 -4 8 3 9 -3 16 -15 20 -12 3 -21 10 -21
16 0 7 10 5 25 -5 14 -9 25 -20 25 -25z m517 35 c-3 -3 -12 -4 -19 -1 -8 3 -5
6 6 6 11 1 17 -2 13 -5z m-2867 -24 c-8 -6 -24 -10 -35 -9 -15 0 -13 3 10 13
32 14 49 11 25 -4z m396 -7 c-7 -7 -26 7 -26 19 0 6 6 6 15 -2 9 -7 13 -15 11
-17z m1111 5 c-3 -8 -6 -5 -6 6 -1 11 2 17 5 13 3 -3 4 -12 1 -19z m633 13
c15 -4 -6 -7 -51 -7 -42 1 -72 4 -65 8 14 9 82 9 116 -1z m1236 -21 c-2 -28
-44 -86 -54 -75 -3 3 -11 -4 -19 -15 -8 -12 -20 -17 -30 -13 -10 4 -14 2 -9
-5 3 -6 1 -14 -5 -18 -8 -4 -9 -3 -5 4 5 8 0 12 -13 12 -24 0 -36 16 -20 26 8
4 9 3 5 -4 -5 -8 1 -12 15 -12 18 0 19 2 9 15 -10 12 -9 15 4 15 10 0 14 -4
11 -10 -3 -5 -1 -10 4 -10 6 0 11 6 11 13 0 8 9 22 20 32 25 22 27 43 3 24
-15 -11 -16 -11 -6 1 7 7 23 15 35 17 13 2 27 10 33 18 13 20 14 20 11 -15z
m-5289 5 c-4 -8 -2 -17 4 -20 5 -4 8 -9 6 -13 -2 -4 8 -18 21 -31 24 -22 25
-22 19 -2 -3 11 -1 21 5 21 6 0 8 -11 6 -24 -4 -19 -1 -24 14 -23 10 1 18 5
18 10 0 4 5 5 10 2 6 -4 8 -11 5 -16 -8 -13 9 -11 22 2 6 6 16 8 22 4 14 -8 4
-26 -12 -24 -33 4 -40 0 -26 -18 13 -15 12 -15 -7 -5 -26 14 -109 92 -109 103
0 4 -3 10 -7 14 -7 7 0 35 9 35 3 0 3 -7 0 -15z m4721 7 c8 -6 2 -9 -18 -9
-20 0 -26 3 -18 9 7 4 15 8 18 8 3 0 11 -4 18 -8z m101 -8 c2 -2 -14 -3 -36
-1 -23 1 -39 5 -37 9 4 6 65 0 73 -8z m-2751 -54 c15 0 15 -2 2 -10 -11 -7
-19 -5 -31 9 -11 13 -20 16 -26 10 -6 -6 -10 1 -10 19 l0 30 25 -29 c13 -16
31 -29 40 -29z m702 56 c0 -2 -9 -6 -20 -9 -11 -3 -18 -1 -14 4 5 9 34 13 34
5z m517 -2 c-3 -3 -12 -4 -19 -1 -8 3 -5 6 6 6 11 1 17 -2 13 -5z m700 0 c-3
-3 -12 -4 -19 -1 -8 3 -5 6 6 6 11 1 17 -2 13 -5z m-3910 -34 c1 -20 -1 -21
-8 -7 -5 9 -17 21 -26 26 -14 7 -13 9 7 8 19 -2 25 -8 27 -27z m103 20 c0 -5
-9 -10 -20 -10 -11 0 -20 5 -20 10 0 6 9 10 20 10 11 0 20 -4 20 -10z m2511
-17 c-12 -20 -14 -14 -5 12 4 9 9 14 11 11 3 -2 0 -13 -6 -23z m2439 18 c0 -5
-7 -12 -16 -15 -22 -9 -24 -8 -24 9 0 8 9 15 20 15 11 0 20 -4 20 -9z m-2419
-33 c-9 -25 -38 -44 -49 -33 -4 3 3 8 15 11 12 3 24 17 28 31 3 14 8 23 11 21
2 -3 0 -16 -5 -30z m1920 13 c-11 -7 -11 -10 0 -14 10 -4 9 -6 -3 -6 -24 -1
-31 16 -11 28 21 11 34 4 14 -8z m-2413 -37 c-3 -14 -5 -12 -10 9 -3 19 -2 25
4 19 6 -6 8 -18 6 -28z m19 -1 c-3 -10 -5 -4 -5 12 0 17 2 24 5 18 2 -7 2 -21
0 -30z m-82 18 c3 -5 2 -12 -3 -15 -5 -3 -9 1 -9 9 0 17 3 19 12 6z m409 0 c3
-5 -1 -14 -9 -21 -9 -8 -15 -8 -15 -2 0 6 6 13 13 15 7 3 5 6 -5 6 -10 1 -18
-6 -18 -15 0 -14 -2 -14 -15 0 -8 8 -15 16 -15 18 0 8 59 7 64 -1z m2044 -11
c13 0 14 -2 3 -12 -11 -10 -14 -10 -18 0 -3 6 -12 12 -21 12 -15 0 -15 2 -2
10 10 6 16 6 18 0 2 -6 11 -10 20 -10z m-348 -5 c11 -13 10 -14 -4 -9 -9 3
-16 10 -16 15 0 13 6 11 20 -6z m230 0 c-7 -8 -18 -15 -24 -14 -7 0 -6 2 2 6
6 2 10 9 6 14 -3 5 2 9 12 9 13 0 14 -3 4 -15z m60 -1 c0 -8 -4 -12 -10 -9 -5
3 -10 10 -10 16 0 5 5 9 10 9 6 0 10 -7 10 -16z m-196 -12 c3 -5 -1 -9 -9 -9
-8 0 -15 4 -15 9 0 4 4 8 9 8 6 0 12 -4 15 -8z m-4114 -21 c0 -5 -13 -12 -30
-16 -16 -4 -30 -13 -30 -21 0 -8 -4 -14 -10 -14 -5 0 -10 5 -10 12 0 6 -3 8
-7 5 -3 -4 2 -17 13 -29 11 -13 13 -18 4 -12 -8 5 -19 9 -25 9 -5 1 -9 7 -7
15 4 19 33 51 41 46 3 -2 15 0 26 5 27 11 35 11 35 0z m2340 -11 c0 -5 -2 -10
-4 -10 -3 0 -8 5 -11 10 -3 6 -1 10 4 10 6 0 11 -4 11 -10z m2565 -39 c-9 -16
-25 -3 -18 15 4 10 9 12 15 6 6 -6 7 -15 3 -21z m-4747 -56 c12 -12 -9 -17
-43 -11 -47 9 -47 31 1 23 20 -3 39 -9 42 -12z m4512 5 c0 -5 -7 -10 -15 -10
-8 0 -15 5 -15 10 0 6 7 10 15 10 8 0 15 -4 15 -10z m46 -29 l25 -20 -30 1
c-23 1 -31 6 -31 20 0 23 6 23 36 -1z m-4676 -1 c0 -5 -5 -10 -11 -10 -5 0 -7
5 -4 10 3 6 8 10 11 10 2 0 4 -4 4 -10z m91 -20 c5 0 1 -8 -8 -18 -12 -13 -21
-16 -28 -9 -7 6 -5 11 4 14 11 5 11 7 0 15 -11 7 -9 8 4 4 10 -3 23 -6 28 -6z
m4571 -10 c17 0 29 -3 25 -6 -3 -3 -22 -6 -43 -6 -27 0 -33 -3 -23 -10 12 -8
12 -9 0 -6 -8 2 -15 12 -17 22 -2 12 2 16 13 12 8 -3 29 -6 45 -6z m-4352 -70
c0 -5 -4 -10 -10 -10 -5 0 -10 5 -10 10 0 6 5 10 10 10 6 0 10 -4 10 -10z
m4075 -20 c-3 -5 -10 -10 -16 -10 -5 0 -9 5 -9 10 0 6 7 10 16 10 8 0 12 -4 9
-10z m110 0 c3 -5 1 -10 -4 -10 -6 0 -11 5 -11 10 0 6 2 10 4 10 3 0 8 -4 11
-10z m-4058 -25 c0 -8 -4 -15 -9 -15 -4 0 -8 5 -8 11 0 6 -7 8 -16 5 -8 -3
-12 -2 -9 4 10 16 42 12 42 -5z m3868 -27 c-2 -10 2 -18 10 -18 8 0 17 -4 20
-10 3 -6 -1 -7 -9 -4 -9 3 -16 1 -16 -5 0 -6 -8 -11 -17 -11 -16 0 -16 2 -3
11 12 9 13 12 1 16 -11 5 -11 7 0 14 10 6 11 9 2 9 -7 0 -13 4 -13 8 0 5 6 9
14 9 8 0 13 -8 11 -19z m-3867 -23 c-3 -3 -9 2 -12 12 -6 14 -5 15 5 6 7 -7
10 -15 7 -18z m148 -65 c-19 -6 -19 -7 3 -13 25 -6 53 1 47 12 -3 4 12 7 32 7
20 1 29 -1 20 -3 -11 -3 -15 -10 -11 -20 5 -14 1 -15 -26 -10 -20 4 -30 3 -26
-3 10 -16 -7 -12 -43 10 -21 13 -42 18 -55 15 -16 -5 -18 -4 -8 3 8 6 30 10
50 10 26 0 31 -2 17 -8z m172 -25 c-17 -14 -48 -24 -48 -15 0 5 7 10 15 10 8
0 15 5 15 11 0 5 5 7 11 4 6 -4 9 -8 7 -10z m152 5 c0 -5 -5 -10 -11 -10 -5 0
-7 5 -4 10 3 6 8 10 11 10 2 0 4 -4 4 -10z m3080 0 c0 -5 -5 -10 -11 -10 -5 0
-7 5 -4 10 3 6 8 10 11 10 2 0 4 -4 4 -10z m-3140 -14 c0 -3 -4 -8 -10 -11 -5
-3 -10 -1 -10 4 0 6 5 11 10 11 6 0 10 -2 10 -4z m3100 0 c0 -11 -19 -15 -25
-6 -3 5 1 10 9 10 9 0 16 -2 16 -4z m-3043 -42 c-3 -3 -12 -4 -19 -1 -8 3 -5
6 6 6 11 1 17 -2 13 -5z m-7 -24 c-14 -4 -34 -8 -45 -8 -16 0 -15 2 5 8 14 4
34 8 45 8 16 0 15 -2 -5 -8z m219 -65 c2 -3 -16 -4 -42 -2 -26 3 -50 7 -53 10
-4 3 15 4 42 1 26 -2 50 -6 53 -9z m141 3 c0 -4 -7 -8 -16 -8 -9 0 -23 -8 -30
-17 -13 -17 -14 -17 -7 2 3 11 10 23 15 26 13 9 38 7 38 -3z m80 -4 c0 -2 -12
-4 -27 -4 -21 0 -24 3 -14 9 13 8 41 5 41 -5z m46 9 c-10 -11 -37 -12 -30 -2
3 5 12 9 21 9 9 0 13 -3 9 -7z m2067 0 c-7 -2 -19 -2 -25 0 -7 3 -2 5 12 5 14
0 19 -2 13 -5z m57 -3 c8 -5 11 -10 5 -11 -5 0 -1 -4 10 -9 19 -8 19 -9 -1 -9
-12 -1 -25 6 -28 15 -3 8 -11 12 -17 8 -8 -4 -9 -3 -5 4 9 14 16 15 36 2z m56
-12 c0 -10 -1 -18 -2 -18 0 0 -8 8 -17 18 -15 16 -15 18 1 18 10 0 18 -8 18
-18z m34 2 c0 -5 -4 -10 -10 -10 -5 0 -10 5 -10 10 0 6 5 10 10 10 6 0 10 -4
10 -10z m-2413 -6 c-3 -3 -12 -4 -19 -1 -8 3 -5 6 6 6 11 1 17 -2 13 -5z
m1683 -4 c-19 -13 -30 -13 -30 0 0 6 10 10 23 10 18 0 19 -2 7 -10z m-1551 -4
c-2 -2 -24 -6 -49 -10 -31 -4 -40 -3 -30 4 13 9 89 15 79 6z m1878 -3 c-8 -7
-77 -6 -85 2 -3 3 16 5 43 5 27 0 45 -3 42 -7z m-1637 -13 c0 -5 -7 -10 -16
-10 -8 0 -12 5 -9 10 3 6 10 10 16 10 5 0 9 -4 9 -10z m270 -1 c-12 -9 -11
-10 6 -6 12 2 28 1 35 -4 17 -11 -34 -12 -71 -2 l-25 7 25 7 c37 11 47 10 30
-2z m-527 -6 c-7 -2 -19 -2 -25 0 -7 3 -2 5 12 5 14 0 19 -2 13 -5z m2154 1
c-3 -3 -12 -4 -19 -1 -8 3 -5 6 6 6 11 1 17 -2 13 -5z m-1799 -16 c10 -10 15
-10 20 -1 8 12 52 14 52 2 0 -3 -15 -9 -32 -12 -18 -3 -42 -8 -53 -12 -16 -6
-17 -5 -5 4 13 10 13 12 0 21 -8 5 -10 10 -4 10 5 0 16 -6 22 -12z m1384 -10
c-6 -6 -20 -7 -32 -3 -16 5 -19 9 -10 15 17 11 54 0 42 -12z m-1215 -4 c-3 -3
-12 -4 -19 -1 -8 3 -5 6 6 6 11 1 17 -2 13 -5z m63 -5 c-11 -8 -6 -9 20 -5 25
5 31 3 23 -5 -7 -7 -26 -8 -55 -3 -39 7 -40 8 -18 15 37 11 47 10 30 -2z
m1313 4 c-7 -2 -19 -2 -25 0 -7 3 -2 5 12 5 14 0 19 -2 13 -5z m-1436 -26
c-29 -5 -61 -6 -79 -1 -24 7 -14 9 48 10 77 1 78 1 31 -9z m1192 9 c-8 -8 -78
-10 -85 -3 -4 4 14 7 41 7 27 0 46 -2 44 -4z m51 -6 c-8 -5 -22 -9 -30 -9 -10
0 -8 3 5 9 27 12 43 12 25 0z m53 3 c-7 -2 -19 -2 -25 0 -7 3 -2 5 12 5 14 0
19 -2 13 -5z m-1163 -13 c15 -5 18 -8 8 -9 -9 -1 -24 -4 -34 -8 -11 -4 -15 -3
-11 4 4 6 1 14 -5 16 -21 9 14 6 42 -3z m-63 -6 c-3 -3 -12 -4 -19 -1 -8 3 -5
6 6 6 11 1 17 -2 13 -5z"/>
<path d="M4385 3050 c3 -5 16 -10 28 -9 21 0 21 1 2 9 -28 12 -37 12 -30 0z"/>
<path d="M4268 2513 c7 -3 16 -2 19 1 4 3 -2 6 -13 5 -11 0 -14 -3 -6 -6z"/>
<path d="M4318 2513 c6 -2 18 -2 25 0 6 3 1 5 -13 5 -14 0 -19 -2 -12 -5z"/>
<path d="M4026 2481 c-3 -5 5 -8 19 -8 14 0 22 3 19 8 -3 5 -11 9 -19 9 -8 0
-16 -4 -19 -9z"/>
<path d="M3970 2458 c0 -4 11 -7 24 -6 14 1 23 6 20 9 -6 10 -44 7 -44 -3z"/>
<path d="M4234 2439 c-5 -9 -2 -10 10 -6 11 4 15 3 10 -4 -4 -8 1 -9 17 -4 13
3 19 3 13 -2 -7 -4 12 -8 45 -9 42 -1 50 1 31 7 -22 8 -21 8 5 3 17 -3 41 -5
55 -5 l25 0 -26 -14 c-20 -11 -35 -12 -60 -5 -19 6 -47 8 -62 4 l-28 -6 28
-24 c15 -13 23 -24 17 -24 -6 0 -21 11 -34 25 -13 14 -19 25 -14 25 5 0 2 4
-6 9 -8 6 -27 7 -42 4 -15 -3 -35 -2 -45 2 -24 11 -66 6 -75 -8 -9 -14 18 -31
34 -21 7 4 8 3 4 -5 -4 -6 -16 -9 -25 -6 -10 3 -23 -1 -30 -8 -9 -11 -6 -14
17 -13 15 1 32 -2 38 -6 8 -6 12 0 12 18 0 14 5 31 11 37 8 8 11 7 11 -5 0 -9
-5 -20 -11 -24 -8 -5 -6 -10 5 -16 13 -8 15 -13 5 -24 -6 -7 -15 -11 -20 -8
-5 3 -6 -3 -2 -12 5 -13 3 -15 -8 -9 -12 7 -12 6 -1 -7 8 -10 9 -19 3 -22 -5
-3 -12 0 -14 6 -3 8 -6 6 -6 -4 -1 -10 3 -18 9 -18 5 0 7 -6 4 -14 -3 -8 0
-17 7 -22 8 -4 10 -3 5 4 -4 7 -2 12 5 12 8 0 8 4 -1 15 -12 14 -7 19 13 16 5
-1 6 3 2 9 -3 5 -2 10 4 10 6 0 17 13 26 30 19 36 19 41 1 34 -8 -3 -16 -2
-19 3 -7 11 21 48 30 40 3 -4 -2 -14 -13 -22 -10 -8 -14 -15 -8 -15 5 0 19 7
30 15 23 17 34 19 34 5 0 -5 -3 -9 -7 -9 -22 4 -21 -4 1 -28 24 -26 24 -28 8
-46 -13 -15 -13 -18 -2 -15 8 2 14 -2 13 -8 -1 -6 -4 -23 -7 -36 -2 -14 -13
-45 -24 -69 -24 -55 -32 -79 -28 -79 21 0 96 43 96 54 0 10 6 13 15 10 8 -4
15 -1 15 5 0 6 6 11 14 11 21 0 40 26 25 36 -7 4 -9 3 -6 -3 7 -11 -22 -28
-31 -18 -3 3 0 5 6 5 7 0 12 5 12 11 0 6 -6 9 -12 6 -7 -2 -13 -11 -13 -20 0
-8 -4 -18 -8 -21 -4 -3 -5 -3 -2 0 2 4 0 15 -6 26 -14 26 -4 54 14 40 7 -6 25
-9 40 -8 15 2 30 -1 34 -7 4 -6 1 -7 -7 -2 -9 6 -11 4 -6 -4 6 -9 13 -8 27 5
15 14 17 20 6 32 -6 8 -12 25 -12 37 -1 26 33 31 52 7 12 -16 13 -16 7 1 -4
12 -2 17 7 15 8 -2 13 2 12 9 -2 7 3 10 10 8 11 -5 14 25 9 72 -3 18 -71 37
-147 39 -38 1 -80 5 -91 9 -14 4 -25 2 -30 -6z m-97 -35 c-3 -3 -12 -4 -19 -1
-8 3 -5 6 6 6 11 1 17 -2 13 -5z m348 -5 c11 -16 1 -19 -13 -3 -7 8 -8 14 -3
14 5 0 13 -5 16 -11z m-201 -55 c9 -8 16 -21 17 -27 0 -7 2 -25 4 -40 2 -18
-1 -30 -11 -34 -17 -6 -19 -34 -3 -50 12 -12 3 -53 -12 -53 -5 0 -9 5 -9 10 0
6 4 10 10 10 5 0 7 7 4 15 -5 12 -10 13 -20 4 -9 -8 -14 -8 -14 -1 0 6 5 14
11 18 6 3 9 15 6 25 -3 11 -1 19 4 19 4 0 5 8 2 18 -6 15 -5 15 10 4 16 -13
17 -6 8 48 -1 3 -6 -2 -12 -10 -8 -12 -9 -10 -4 8 5 17 1 28 -12 37 -10 8 -13
15 -6 15 6 0 19 -7 27 -16z m-103 -31 c-12 -20 -14 -14 -5 12 4 9 9 14 11 11
3 -2 0 -13 -6 -23z m65 -168 c-3 -10 1 -15 12 -16 14 0 14 -2 -3 -9 -26 -11
-44 -12 -27 -1 8 4 13 11 13 15 -2 16 0 26 5 26 3 0 4 -7 0 -15z"/>
<path d="M4188 2423 c6 -2 18 -2 25 0 6 3 1 5 -13 5 -14 0 -19 -2 -12 -5z"/>
<path d="M3960 2390 c0 -4 9 -10 20 -13 11 -3 20 -1 20 5 0 5 6 6 13 2 6 -4 9
-3 5 1 -11 11 -58 16 -58 5z"/>
<path d="M4016 2362 c-3 -5 1 -9 9 -9 8 0 12 4 9 9 -3 4 -7 8 -9 8 -2 0 -6 -4
-9 -8z"/>
<path d="M4111 2341 c-8 -5 -21 -7 -30 -4 -13 4 -14 3 -2 -5 14 -10 51 0 51
13 0 7 -3 6 -19 -4z"/>
<path d="M4210 2320 c0 -5 5 -10 11 -10 5 0 7 5 4 10 -3 6 -8 10 -11 10 -2 0
-4 -4 -4 -10z"/>
<path d="M4416 2285 c-4 -10 -1 -23 5 -29 9 -8 10 -6 5 9 -6 20 -6 20 9 1 19
-24 20 -7 2 18 -13 18 -14 18 -21 1z"/>
<path d="M4090 2236 c0 -2 8 -10 18 -17 15 -13 16 -12 3 4 -13 16 -21 21 -21
13z"/>
<path d="M4010 2220 c-9 -6 -10 -10 -3 -10 6 0 15 5 18 10 8 12 4 12 -15 0z"/>
<path d="M4310 2220 c0 -5 5 -10 11 -10 5 0 7 5 4 10 -3 6 -8 10 -11 10 -2 0
-4 -4 -4 -10z"/>
<path d="M4770 2209 c0 -5 5 -7 10 -4 6 3 10 8 10 11 0 2 -4 4 -10 4 -5 0 -10
-5 -10 -11z"/>
<path d="M5131 2116 c0 -11 3 -15 6 -8 2 6 11 12 18 12 8 0 16 4 19 9 3 5 -6
9 -19 9 -19 0 -25 -6 -24 -22z"/>
<path d="M5395 1970 c-8 -13 9 -20 24 -11 10 6 9 10 -3 14 -8 3 -18 2 -21 -3z"/>
<path d="M5376 1937 c3 -10 9 -15 12 -12 3 3 0 11 -7 18 -10 9 -11 8 -5 -6z"/>
<path d="M4907 1883 c-4 -3 -7 -11 -7 -17 0 -6 5 -5 12 2 6 6 9 14 7 17 -3 3
-9 2 -12 -2z"/>
<path d="M4956 1782 c-3 -5 1 -9 9 -9 8 0 12 4 9 9 -3 4 -7 8 -9 8 -2 0 -6 -4
-9 -8z"/>
<path d="M5226 1781 c-3 -5 6 -8 20 -8 19 0 22 2 13 8 -18 11 -26 11 -33 0z"/>
<path d="M4687 1567 c3 -5 14 -7 24 -4 10 3 20 0 23 -7 2 -6 5 -4 5 5 1 11 -8
16 -29 16 -16 0 -27 -4 -23 -10z"/>
<path d="M4774 1524 c4 -10 -1 -25 -11 -36 -14 -15 -14 -19 -3 -16 12 2 15 -9
16 -54 0 -31 -3 -55 -7 -52 -4 2 -11 0 -14 -6 -4 -6 -1 -9 6 -8 7 2 14 -6 16
-17 3 -15 2 -17 -5 -6 -7 10 -11 10 -17 1 -4 -6 -3 -16 3 -22 19 -19 33 3 31
47 -2 26 3 51 12 61 13 16 12 17 -6 11 -15 -6 -12 0 10 20 17 15 28 27 26 26
-6 -4 -36 40 -34 49 1 3 -5 9 -13 12 -12 5 -15 2 -10 -10z m36 -54 c0 -5 -5
-10 -11 -10 -5 0 -7 5 -4 10 3 6 8 10 11 10 2 0 4 -4 4 -10z"/>
<path d="M5175 1480 c-3 -5 -2 -10 4 -10 5 0 13 5 16 10 3 6 2 10 -4 10 -5 0
-13 -4 -16 -10z"/>
<path d="M5318 1476 c-10 -7 -18 -19 -18 -27 1 -10 5 -8 15 5 9 12 20 16 31
12 14 -5 15 -4 4 9 -7 8 -13 15 -14 15 0 0 -9 -7 -18 -14z"/>
<path d="M5092 1429 c-7 -11 -17 -17 -22 -14 -5 3 -12 0 -16 -6 -4 -8 -3 -9 4
-5 7 4 12 2 12 -3 0 -6 -9 -11 -19 -11 -11 0 -22 -3 -24 -7 -3 -5 8 -8 23 -8
15 0 26 3 23 8 -2 4 0 7 6 7 5 0 13 9 16 20 4 11 11 17 17 14 22 -14 58 -12
58 2 0 8 -3 15 -7 15 -50 8 -60 6 -71 -12z m58 1 c0 -5 -2 -10 -4 -10 -3 0 -8
5 -11 10 -3 6 -1 10 4 10 6 0 11 -4 11 -10z"/>
<path d="M5316 1422 c-3 -5 1 -9 9 -9 8 0 12 4 9 9 -3 4 -7 8 -9 8 -2 0 -6 -4
-9 -8z"/>
<path d="M3790 1400 c-8 -5 -15 -18 -16 -29 -1 -16 2 -18 17 -8 11 7 19 20 19
29 0 21 0 21 -20 8z"/>
<path d="M5115 1400 c3 -5 8 -10 11 -10 2 0 4 5 4 10 0 6 -5 10 -11 10 -5 0
-7 -4 -4 -10z"/>
<path d="M3940 1370 c-8 -5 -11 -12 -7 -16 4 -4 15 0 24 9 18 18 8 23 -17 7z"/>
<path d="M5290 1359 c0 -5 5 -7 10 -4 6 3 10 8 10 11 0 2 -4 4 -10 4 -5 0 -10
-5 -10 -11z"/>
<path d="M1870 2571 c0 -5 5 -13 10 -16 6 -3 10 -2 10 4 0 5 -4 13 -10 16 -5
3 -10 2 -10 -4z"/>
<path d="M1965 2381 c-3 -5 -1 -12 4 -15 5 -3 11 1 15 9 6 16 -9 21 -19 6z"/>
<path d="M2099 2283 c-13 -16 -12 -17 4 -4 9 7 17 15 17 17 0 8 -8 3 -21 -13z"/>
<path d="M1998 2207 c-3 -6 1 -25 8 -42 8 -18 13 -23 14 -12 0 9 5 17 11 17 5
0 7 5 4 10 -4 6 -10 8 -15 5 -5 -3 -12 0 -16 6 -4 8 -3 9 4 5 7 -4 12 -3 12 3
0 16 -17 22 -22 8z"/>
<path d="M2311 2046 c-9 -11 -9 -16 1 -22 7 -4 10 -4 6 1 -4 4 -3 14 3 22 6 7
9 13 6 13 -2 0 -10 -6 -16 -14z"/>
<path d="M2263 1486 c0 -7 6 -13 14 -13 7 0 13 4 13 8 0 4 -6 9 -13 12 -8 3
-14 0 -14 -7z"/>
<path d="M2410 1433 c0 -6 8 -17 18 -24 16 -13 16 -13 2 6 -8 11 -16 22 -17
24 -2 2 -3 0 -3 -6z"/>
<path d="M2407 1329 c4 -13 8 -18 11 -10 2 7 -1 18 -6 23 -8 8 -9 4 -5 -13z"/>
<path d="M1387 1239 c7 -7 15 -10 18 -7 3 3 -2 9 -12 12 -14 6 -15 5 -6 -5z"/>
<path d="M1415 1220 c-3 -5 -1 -10 4 -10 6 0 11 5 11 10 0 6 -2 10 -4 10 -3 0
-8 -4 -11 -10z"/>
<path d="M2733 2692 c-8 -5 1 -8 22 -8 19 0 35 4 35 8 0 10 -41 10 -57 0z"/>
<path d="M535 2400 c3 -5 8 -10 11 -10 2 0 4 5 4 10 0 6 -5 10 -11 10 -5 0 -7
-4 -4 -10z"/>
<path d="M3145 2190 c3 -5 10 -10 16 -10 5 0 9 5 9 10 0 6 -7 10 -16 10 -8 0
-12 -4 -9 -10z"/>
<path d="M3295 1860 c-3 -5 -1 -10 4 -10 6 0 11 5 11 10 0 6 -2 10 -4 10 -3 0
-8 -4 -11 -10z"/>
<path d="M3295 1830 c-4 -6 1 -7 12 -3 16 6 16 5 5 -10 -8 -9 -10 -22 -6 -28
5 -9 10 -5 16 10 12 33 -10 58 -27 31z"/>
<path d="M2801 1779 c9 -21 16 -25 33 -21 20 6 20 6 1 10 -11 3 -25 12 -32 21
-11 13 -11 12 -2 -10z"/>
<path d="M3040 1730 c-8 -5 -10 -10 -5 -10 6 0 3 -5 -5 -10 -12 -8 -12 -10 -1
-10 10 0 11 -3 2 -14 -9 -11 -7 -15 9 -19 18 -4 20 0 20 34 0 21 -1 39 -2 39
-2 0 -10 -5 -18 -10z"/>
<path d="M2635 1300 c-3 -5 -1 -10 4 -10 6 0 11 5 11 10 0 6 -2 10 -4 10 -3 0
-8 -4 -11 -10z"/>
<path d="M3050 1201 c0 -5 7 -14 15 -21 12 -10 15 -10 15 3 0 8 -7 17 -15 21
-8 3 -15 2 -15 -3z"/>
<path d="M2650 1570 c0 -5 5 -10 10 -10 6 0 10 5 10 10 0 6 -4 10 -10 10 -5 0
-10 -4 -10 -10z"/>
<path d="M5430 1480 c0 -5 5 -10 10 -10 6 0 10 5 10 10 0 6 -4 10 -10 10 -5 0
-10 -4 -10 -10z"/>
<path d="M5818 1179 c-11 -6 -15 -16 -11 -26 5 -12 2 -15 -10 -10 -9 3 -21 -1
-29 -11 -12 -15 -11 -16 5 -3 13 11 17 11 17 0 0 -8 9 -4 23 9 13 12 24 29 24
37 0 8 -1 15 -1 15 -1 0 -9 -5 -18 -11z"/>
<path d="M637 1089 c7 -7 15 -10 18 -7 3 3 -2 9 -12 12 -14 6 -15 5 -6 -5z"/>
<path d="M1488 683 c7 -3 16 -2 19 1 4 3 -2 6 -13 5 -11 0 -14 -3 -6 -6z"/>
<path d="M1380 2910 c0 -5 7 -10 16 -10 8 0 12 5 9 10 -3 6 -10 10 -16 10 -5
0 -9 -4 -9 -10z"/>
<path d="M1355 2900 c-3 -6 -11 -8 -16 -5 -5 4 -9 2 -9 -2 0 -5 19 -9 43 -9
23 -1 35 1 27 4 -8 2 -20 9 -27 14 -7 5 -14 5 -18 -2z"/>
<path d="M6134 1605 c-3 -13 -12 -29 -20 -36 -8 -6 -14 -19 -14 -27 0 -13 3
-12 15 4 15 19 15 19 9 -1 -5 -16 -4 -17 4 -5 6 8 9 18 6 22 -3 4 2 21 11 38
8 16 11 30 5 30 -5 0 -12 -11 -16 -25z"/>
<path d="M6105 1510 c-3 -5 -1 -10 4 -10 6 0 11 5 11 10 0 6 -2 10 -4 10 -3 0
-8 -4 -11 -10z"/>
<path d="M5956 1287 c-7 -29 -3 -31 18 -8 14 16 15 19 2 24 -9 4 -16 -2 -20
-16z"/>
<path d="M4955 681 c-7 -12 12 -24 25 -16 11 7 4 25 -10 25 -5 0 -11 -4 -15
-9z"/>
<path d="M4710 611 c0 -5 6 -12 13 -15 6 -3 0 -3 -14 0 -19 4 -26 1 -26 -11 0
-10 6 -14 16 -10 9 4 28 9 44 12 l28 6 -27 13 c-31 16 -34 17 -34 5z"/>
<path d="M4785 610 c-3 -5 -1 -10 4 -10 6 0 11 5 11 10 0 6 -2 10 -4 10 -3 0
-8 -4 -11 -10z"/>
<path d="M2396 442 c-2 -4 4 -9 15 -9 11 -1 17 2 14 8 -7 11 -22 12 -29 1z"/>
</g>
</svg>
