<?xml version="1.0" standalone="no"?>
<!DOCTYPE svg PUBLIC "-//W3C//DTD SVG 20010904//EN"
 "http://www.w3.org/TR/2001/REC-SVG-20010904/DTD/svg10.dtd">
<svg version="1.0" xmlns="http://www.w3.org/2000/svg"
 width="700.000000pt" height="379.000000pt" viewBox="0 0 700.000000 379.000000"
 preserveAspectRatio="xMidYMid meet">

<g transform="translate(0.000000,379.000000) scale(0.100000,-0.100000)"
fill="#000000" stroke="none">
<path d="M3210 3730 c0 -3 -39 -5 -87 -4 -49 1 -124 -1 -168 -5 -72 -7 -75 -8
-25 -10 41 -1 51 -4 42 -13 -9 -9 -26 -9 -75 0 -80 15 -90 15 -81 0 5 -8 -2
-9 -26 -5 -27 6 -31 4 -26 -9 5 -12 2 -15 -10 -10 -8 3 -21 6 -27 7 -7 0 -3 5
8 10 16 7 12 8 -15 5 -19 -3 -68 -8 -107 -12 -46 -4 -70 -10 -66 -17 4 -6 -3
-8 -18 -4 -34 9 -104 -3 -87 -15 8 -6 -1 -8 -27 -4 -27 4 -34 3 -20 -3 19 -9
19 -9 1 -16 -10 -5 -33 -3 -50 3 -38 14 -59 15 -31 1 16 -7 13 -8 -13 -4 -36
5 -173 -20 -182 -34 -3 -5 -20 -7 -37 -6 -18 1 -33 -2 -33 -7 0 -6 -6 -8 -14
-5 -7 3 -25 -1 -39 -8 -15 -7 -35 -11 -47 -8 -12 3 -20 0 -20 -6 0 -7 5 -9 10
-6 6 3 10 1 10 -4 0 -14 -17 -14 -25 0 -7 10 -65 3 -75 -10 -3 -3 -9 -6 -15
-6 -41 -2 -93 -18 -89 -29 2 -6 -4 -12 -16 -13 -11 -1 -20 2 -20 7 0 13 -43
-1 -56 -18 -7 -9 -16 -12 -24 -7 -9 5 -11 4 -6 -4 13 -21 -20 -41 -66 -39 -42
1 -42 1 -6 5 20 2 42 11 48 19 16 18 4 18 -51 -1 -80 -28 -75 -25 -59 -36 11
-7 7 -8 -14 -5 -17 3 -35 1 -40 -3 -6 -5 -31 -14 -56 -21 -72 -19 -92 -45 -42
-53 15 -3 -3 -4 -40 -3 -38 2 -68 -1 -68 -6 0 -4 -9 -8 -20 -8 -10 0 -28 -10
-40 -22 -11 -12 -20 -17 -20 -11 0 6 -22 2 -53 -11 -67 -28 -116 -55 -99 -56
7 0 10 -5 7 -10 -4 -6 -11 -8 -16 -5 -5 4 -9 0 -9 -7 0 -10 -2 -10 -9 0 -7 11
-12 12 -29 1 -11 -7 -26 -22 -32 -34 -6 -12 -9 -13 -6 -3 4 12 1 15 -10 11 -7
-3 -14 -9 -14 -14 0 -5 -6 -9 -14 -9 -8 0 -16 -7 -20 -15 -3 -8 -9 -14 -13
-13 -17 4 -58 -16 -146 -74 -111 -73 -104 -67 -88 -77 9 -6 10 -11 2 -15 -6
-4 -11 -3 -11 3 0 6 -7 8 -15 5 -8 -4 -15 -12 -15 -19 0 -7 -8 -12 -17 -11
-12 0 -19 -7 -21 -21 -2 -13 -7 -23 -12 -23 -5 0 -7 8 -4 18 3 9 -10 0 -30
-20 -20 -21 -36 -36 -36 -33 0 3 -9 -4 -20 -15 -11 -11 -20 -25 -20 -30 0 -6
-3 -9 -7 -8 -5 2 -30 -22 -58 -52 -27 -30 -53 -56 -56 -58 -4 -2 -5 -13 -2
-25 4 -18 3 -19 -6 -7 -8 10 -13 12 -18 4 -43 -62 -75 -116 -70 -120 2 -3 -8
-19 -24 -37 -34 -37 -37 -72 -9 -89 11 -7 20 -17 20 -22 0 -5 -11 1 -25 14
-14 13 -26 22 -28 19 -13 -16 -28 -71 -23 -84 3 -9 2 -14 -3 -11 -16 10 -19
-44 -4 -60 13 -12 12 -17 -6 -40 -13 -16 -21 -21 -21 -12 0 8 5 19 12 26 6 6
9 15 5 18 -15 15 -21 -10 -25 -106 -4 -107 2 -146 18 -120 8 12 10 10 10 -8 0
-13 -4 -20 -10 -17 -14 9 -13 -1 10 -90 21 -83 75 -205 91 -205 5 0 9 -9 9
-20 0 -11 7 -23 15 -26 8 -4 15 -13 15 -21 0 -8 4 -11 10 -8 5 3 7 0 5 -7 -3
-8 10 -32 29 -53 26 -30 35 -35 36 -22 0 10 5 15 10 12 8 -5 7 -11 0 -20 -9
-11 -2 -24 33 -60 40 -40 45 -43 50 -25 3 11 10 20 16 20 7 0 5 -9 -4 -24 -16
-24 -15 -26 22 -60 21 -19 44 -36 51 -36 7 0 11 -4 7 -9 -3 -6 15 -24 40 -41
34 -23 45 -27 45 -15 0 8 5 15 11 15 6 0 9 -9 6 -20 -4 -15 6 -29 36 -54 66
-53 127 -87 145 -82 9 3 31 -1 47 -9 l30 -14 -40 5 c-39 4 -40 4 -15 -11 14
-8 38 -12 55 -10 23 4 25 3 10 -4 -18 -7 -17 -10 15 -29 37 -23 46 -22 36 3
-3 10 -11 13 -18 9 -10 -5 -10 -4 -1 6 6 7 9 19 6 26 -3 8 0 14 6 14 6 0 11
-9 11 -19 0 -11 7 -27 16 -35 12 -12 12 -16 2 -16 -7 -1 2 -14 20 -29 41 -35
121 -68 131 -53 4 6 11 5 19 -4 11 -12 10 -14 -5 -14 -10 0 0 -9 22 -19 40
-18 70 -14 87 13 5 7 13 5 25 -6 9 -10 13 -21 9 -25 -4 -4 -11 -1 -16 7 -8 13
-12 13 -27 -2 -16 -17 -16 -18 9 -18 15 0 31 -7 35 -15 9 -15 18 -14 88 10 11
3 4 -3 -15 -15 -19 -12 -27 -19 -17 -16 20 6 49 -3 42 -14 -6 -9 44 -32 55
-25 5 3 10 0 12 -6 2 -6 28 -14 58 -19 30 -4 46 -8 35 -9 -11 -2 18 -15 64
-31 46 -16 90 -26 99 -23 9 4 13 2 9 -4 -9 -15 17 -10 37 6 9 8 16 9 16 3 0
-6 12 -15 28 -21 25 -9 24 -10 -13 -6 l-40 5 35 -14 c19 -7 51 -12 70 -10 19
1 28 0 20 -3 -20 -8 119 -43 145 -37 16 4 17 3 5 -5 -13 -9 -13 -11 2 -11 9 0
20 5 23 10 3 6 18 9 33 9 24 -2 24 -2 5 -6 -13 -2 -23 -8 -23 -12 0 -7 117
-34 200 -47 14 -2 39 -6 55 -8 17 -3 42 -9 56 -15 15 -5 44 -8 65 -6 27 2 34
1 23 -7 -10 -7 -1 -8 29 -4 29 4 41 3 37 -4 -3 -5 -3 -10 2 -10 4 0 42 -5 83
-11 41 -5 103 -10 138 -10 35 1 61 -3 58 -7 -6 -10 54 -16 144 -17 36 0 67 -3
70 -7 8 -10 230 -17 230 -7 0 5 10 9 23 8 20 0 21 -1 2 -8 -13 -5 3 -10 50
-14 100 -10 137 -9 130 3 -3 5 1 10 10 10 9 0 14 -3 12 -8 -6 -8 317 -7 478 2
98 5 150 11 150 16 0 1 33 3 73 4 49 1 76 6 81 15 5 7 10 9 12 3 2 -5 19 -7
36 -5 18 3 30 9 27 14 -3 5 2 9 11 9 9 0 13 -5 10 -10 -8 -13 -12 -13 130 5
66 8 123 15 128 15 18 0 5 29 -15 33 -22 4 -22 4 -2 6 12 0 27 -6 34 -14 14
-17 50 -20 50 -4 0 7 11 8 31 4 19 -4 29 -3 26 2 -3 5 13 10 38 10 24 1 58 5
77 11 18 5 66 16 106 23 l74 13 -24 18 c-28 22 -17 23 22 3 26 -14 29 -14 24
0 -4 9 0 15 9 15 8 0 17 -5 19 -11 5 -15 274 54 271 70 -2 6 2 11 8 11 5 0 8
4 5 9 -4 5 10 5 31 1 20 -5 42 -6 47 -2 6 3 16 7 21 7 23 1 125 38 125 46 0 5
11 9 25 9 14 0 25 5 25 10 0 6 12 10 26 10 32 0 66 18 58 31 -3 6 4 7 20 3 17
-4 26 -2 26 6 0 6 5 8 10 5 6 -4 39 6 73 23 34 16 88 39 120 52 33 13 61 29
64 36 3 8 9 12 13 9 7 -4 42 12 93 42 4 3 3 11 -4 19 -8 10 -8 14 0 14 6 0 11
-4 11 -10 0 -5 7 -10 16 -10 9 0 12 5 8 12 -4 7 -3 8 5 4 6 -4 33 6 60 23 26
17 53 31 59 31 16 0 15 17 0 24 -7 3 0 2 16 -1 20 -4 27 -2 22 5 -5 8 -1 10
10 5 14 -5 16 -3 11 11 -4 10 -3 15 3 11 16 -10 88 44 83 63 -2 10 5 22 17 30
24 15 27 4 3 -14 -10 -7 -15 -16 -11 -20 4 -4 19 5 32 19 14 15 30 27 36 27 5
0 10 4 10 9 0 5 9 12 19 16 12 4 17 12 14 24 -4 15 2 21 26 26 32 7 91 55 91
74 0 6 4 10 8 8 14 -4 127 126 125 144 -2 13 2 16 14 12 12 -5 15 -2 10 10 -4
12 -1 17 10 17 13 0 14 3 5 12 -17 17 -15 33 3 18 12 -10 15 -10 15 3 0 9 -4
19 -10 22 -5 3 -10 14 -9 23 0 14 3 12 16 -6 16 -23 16 -23 48 35 28 51 58
124 60 145 0 3 3 10 8 14 11 11 9 26 -3 19 -5 -3 -10 -2 -10 3 0 6 6 12 14 15
7 3 16 18 19 34 3 15 8 39 12 53 5 21 4 21 -10 -5 -14 -27 -15 -28 -10 -5 2
14 5 33 5 43 0 10 5 15 10 12 6 -4 10 11 10 37 0 28 -3 38 -9 30 -6 -10 -11
-6 -19 16 -9 26 -8 30 4 25 17 -6 19 18 2 35 -7 7 -13 39 -14 70 -1 55 -12 89
-67 203 -19 40 -26 46 -49 45 -25 -2 -26 -1 -13 14 20 23 19 30 -15 70 l-29
35 -9 -25 c-9 -22 -11 -23 -17 -7 -8 19 -30 24 -22 4 3 -7 -3 -13 -12 -13 -15
0 -17 10 -15 69 l2 69 -54 51 c-30 29 -68 59 -84 68 -16 9 -27 19 -23 22 3 4
-8 13 -26 20 -17 7 -28 17 -24 22 5 4 0 5 -10 2 -10 -4 -16 -3 -13 2 9 14 -20
32 -40 25 -16 -5 -16 -4 -4 5 21 14 1 32 -41 37 -18 2 -35 7 -38 10 -3 4 4 4
17 1 12 -3 22 -3 22 -1 0 8 -166 111 -232 144 -38 18 -68 37 -68 42 0 4 -6 8
-14 8 -8 0 -43 16 -79 35 -36 19 -74 35 -85 35 -11 0 -23 7 -26 16 -4 12 -15
15 -36 12 -19 -3 -29 -1 -27 6 5 14 -80 47 -100 39 -9 -4 -14 -2 -10 3 3 5 -6
14 -19 21 -13 6 -24 8 -24 3 0 -12 -44 -20 -54 -10 -7 7 0 10 20 10 29 1 29 1
-11 21 -69 34 -186 71 -212 66 -18 -3 -23 -1 -18 10 4 12 0 14 -15 10 -12 -3
-18 -1 -14 5 5 7 -2 9 -20 4 -14 -3 -26 -2 -26 3 0 5 -37 18 -82 29 -46 12
-114 30 -153 40 -100 27 -148 35 -141 23 4 -5 1 -13 -5 -17 -8 -5 -9 -3 -4 6
6 10 2 12 -16 7 -13 -3 -33 -1 -44 3 -16 7 -14 9 15 10 30 2 25 5 -35 20 -39
10 -85 16 -104 13 -20 -3 -31 -2 -28 3 3 6 -2 10 -11 11 -9 1 -50 9 -91 17
-41 9 -77 14 -79 11 -3 -3 1 -5 8 -5 7 0 11 -3 8 -6 -4 -3 -20 2 -36 10 -17 9
-41 15 -54 14 -13 -1 -38 2 -57 6 -21 5 -31 5 -28 -1 8 -13 -46 -3 -54 10 -4
5 -17 6 -29 2 -18 -6 -20 -9 -9 -16 10 -6 5 -9 -16 -9 -20 0 -25 3 -17 9 18
11 -12 36 -34 27 -8 -3 -24 -1 -35 4 -30 16 -949 36 -949 20z m792 -22 c-9 -9
-15 -9 -24 0 -9 9 -7 12 12 12 19 0 21 -3 12 -12z m123 -8 c-3 -5 -26 -10 -51
-10 -24 0 -44 5 -44 10 0 6 23 10 51 10 31 0 48 -4 44 -10z m-255 -10 c0 -5
-2 -10 -4 -10 -3 0 -8 5 -11 10 -3 6 -1 10 4 10 6 0 11 -4 11 -10z m335 0
c-12 -5 -14 -9 -6 -9 8 -1 12 -3 9 -6 -3 -3 -13 -2 -22 1 -14 5 -15 9 -4 15 7
5 20 8 28 8 10 0 8 -3 -5 -9z m-1342 -7 c-7 -2 -19 -2 -25 0 -7 3 -2 5 12 5
14 0 19 -2 13 -5z m60 -10 c-7 -2 -19 -2 -25 0 -7 3 -2 5 12 5 14 0 19 -2 13
-5z m707 -3 c0 -5 -15 -10 -34 -10 -19 0 -38 5 -41 10 -4 6 10 10 34 10 23 0
41 -4 41 -10z m-837 -17 c-7 -2 -21 -2 -30 0 -10 3 -4 5 12 5 17 0 24 -2 18
-5z m310 0 c-7 -2 -19 -2 -25 0 -7 3 -2 5 12 5 14 0 19 -2 13 -5z m1365 0
c-10 -2 -28 -2 -40 0 -13 2 -5 4 17 4 22 1 32 -1 23 -4z m105 -10 c-7 -2 -19
-2 -25 0 -7 3 -2 5 12 5 14 0 19 -2 13 -5z m77 -22 c0 -16 -19 -23 -41 -16
-17 6 -19 9 -8 16 19 12 49 11 49 0z m-2150 -16 c-14 -17 -46 -20 -55 -5 -3 5
-12 7 -20 3 -8 -3 -15 0 -15 6 0 7 20 11 51 11 45 0 50 -2 39 -15z m-213 -1
c-3 -3 -12 -4 -19 -1 -8 3 -5 6 6 6 11 1 17 -2 13 -5z m2461 -4 c-14 -4 -32
-11 -40 -15 -7 -3 -4 1 6 9 11 9 29 16 40 15 17 -1 16 -2 -6 -9z m-2577 -21
c-16 -6 -28 -6 -35 1 -7 7 1 10 25 9 32 0 33 -1 10 -10z m62 4 c-7 -2 -19 -2
-25 0 -7 3 -2 5 12 5 14 0 19 -2 13 -5z m162 -3 c3 -5 2 -10 -4 -10 -5 0 -13
5 -16 10 -3 6 -2 10 4 10 5 0 13 -4 16 -10z m-120 -10 c-3 -5 -14 -10 -23 -9
-14 0 -13 2 3 9 27 11 27 11 20 0z m2420 0 c3 -6 -1 -7 -9 -4 -18 7 -21 14 -7
14 6 0 13 -4 16 -10z m65 6 c0 -2 -9 -6 -20 -9 -11 -3 -18 -1 -14 4 5 9 34 13
34 5z m-143 -12 c-3 -3 -12 -4 -19 -1 -8 3 -5 6 6 6 11 1 17 -2 13 -5z m-2590
-26 c-3 -8 -6 -5 -6 6 -1 11 2 17 5 13 3 -3 4 -12 1 -19z m2973 -13 c7 -9 10
-19 6 -22 -4 -4 -10 -3 -14 3 -4 6 -16 16 -27 22 -20 11 -20 11 1 12 12 0 27
-7 34 -15z m-3092 -6 c-2 -6 -8 -10 -13 -10 -5 0 -11 4 -13 10 -2 6 4 11 13
11 9 0 15 -5 13 -11z m3152 -3 c0 -2 -7 -7 -16 -10 -8 -3 -12 -2 -9 4 6 10 25
14 25 6z m70 -6 c0 -5 -5 -10 -11 -10 -5 0 -7 5 -4 10 3 6 8 10 11 10 2 0 4
-4 4 -10z m-3323 -6 c-3 -3 -12 -4 -19 -1 -8 3 -5 6 6 6 11 1 17 -2 13 -5z
m3428 -14 c-3 -5 -12 -10 -18 -10 -7 0 -6 4 3 10 19 12 23 12 15 0z m175 -44
c0 -3 -4 -8 -10 -11 -5 -3 -10 -1 -10 4 0 6 5 11 10 11 6 0 10 -2 10 -4z
m-3700 -16 c0 -5 -7 -10 -16 -10 -8 0 -12 5 -9 10 3 6 10 10 16 10 5 0 9 -4 9
-10z m3740 0 c0 -5 -4 -10 -10 -10 -5 0 -10 5 -10 10 0 6 5 10 10 10 6 0 10
-4 10 -10z m-70 -4 c0 -11 -19 -15 -25 -6 -3 5 1 10 9 10 9 0 16 -2 16 -4z
m30 -10 c0 -2 -7 -7 -16 -10 -8 -3 -12 -2 -9 4 6 10 25 14 25 6z m95 -6 c13
-6 15 -9 5 -9 -8 0 -22 4 -30 9 -18 12 -2 12 25 0z m-2981 -25 c3 -8 1 -15 -4
-15 -6 0 -10 7 -10 15 0 8 2 15 4 15 2 0 6 -7 10 -15z m91 -10 c6 -6 20 -15
33 -19 12 -4 22 -14 22 -22 0 -20 -17 -17 -40 6 -11 11 -24 20 -30 20 -5 0
-10 4 -10 9 0 4 -12 6 -27 3 -25 -5 -27 -4 -14 12 15 18 48 14 66 -9z m38 18
c-7 -2 -19 -2 -25 0 -7 3 -2 5 12 5 14 0 19 -2 13 -5z m1424 1 c-3 -3 -12 -4
-19 -1 -8 3 -5 6 6 6 11 1 17 -2 13 -5z m346 -1 c-7 -2 -21 -2 -30 0 -10 3 -4
5 12 5 17 0 24 -2 18 -5z m152 0 c-11 -3 -25 -10 -32 -15 -7 -5 -18 -6 -24 -2
-16 9 15 23 51 22 20 0 21 -1 5 -5z m-388 -9 c-3 -3 -12 -4 -19 -1 -8 3 -5 6
6 6 11 1 17 -2 13 -5z m40 0 c-3 -3 -12 -4 -19 -1 -8 3 -5 6 6 6 11 1 17 -2
13 -5z m140 0 c-3 -3 -12 -4 -19 -1 -8 3 -5 6 6 6 11 1 17 -2 13 -5z m-301
-19 c20 -19 4 -20 -22 0 -12 9 -14 14 -6 15 7 0 20 -7 28 -15z m124 -5 c3 -4
52 -10 110 -13 111 -6 207 -23 227 -39 7 -6 20 -8 28 -4 9 3 13 2 10 -3 -3 -5
20 -15 52 -21 31 -7 67 -19 79 -26 12 -8 28 -12 37 -9 10 5 15 1 14 -12 -1
-10 4 -17 11 -15 6 1 12 -5 12 -14 0 -8 10 -32 21 -52 20 -34 21 -46 14 -135
-4 -64 -10 -95 -17 -90 -6 3 -8 1 -4 -5 3 -6 2 -13 -2 -16 -5 -3 -15 -27 -22
-53 -7 -27 -18 -54 -24 -62 -8 -11 -8 -15 2 -18 18 -7 15 -21 -5 -19 -12 1
-22 -12 -30 -38 -8 -22 -30 -57 -51 -78 -38 -41 -59 -57 -170 -129 -59 -39
-62 -43 -49 -63 7 -11 23 -38 36 -59 12 -20 27 -35 32 -32 5 4 6 -1 3 -10 -5
-11 0 -18 15 -22 11 -3 18 -10 15 -15 -8 -13 27 -38 46 -33 8 3 22 0 30 -6 12
-8 10 -9 -7 -4 -13 3 -23 4 -23 1 0 -11 83 -48 123 -54 l42 -8 0 -94 c0 -76 3
-99 18 -114 23 -27 22 -43 -2 -22 -21 19 -22 19 -85 -41 -13 -13 -40 -25 -60
-28 -63 -8 -231 58 -301 117 -35 31 -132 168 -149 213 -6 16 -9 17 -17 5 -9
-12 -10 -11 -4 5 3 10 -1 33 -9 50 -8 16 -19 43 -26 59 -6 16 -15 25 -19 20
-11 -12 -38 -125 -47 -194 -4 -30 -15 -72 -26 -93 -11 -21 -16 -47 -13 -58 4
-11 2 -19 -5 -19 -7 0 -10 -8 -7 -20 3 -11 2 -18 -3 -15 -10 6 -40 -39 -40
-61 0 -11 -6 -15 -20 -11 -17 4 -20 0 -20 -25 0 -28 -2 -30 -27 -24 -16 4 -41
9 -57 11 -38 6 -47 21 -44 70 3 37 1 40 -24 42 -21 2 -29 -4 -37 -25 -5 -16
-10 -20 -10 -10 -1 9 -9 19 -18 21 -10 2 -8 3 4 2 26 -2 33 11 22 43 -6 14 -5
21 0 17 5 -3 12 -1 16 5 3 5 1 10 -4 10 -14 0 -14 37 -1 45 6 4 8 15 5 26 -4
10 -2 19 3 19 6 0 12 16 14 35 2 19 0 35 -5 35 -6 0 -5 5 0 13 6 6 16 41 23
77 7 36 19 76 26 90 15 29 34 109 34 141 0 13 10 33 22 46 14 15 17 23 8 23
-11 0 -10 3 2 13 18 14 71 160 54 150 -6 -3 -1 4 12 16 16 16 20 29 16 46 -4
15 -2 25 5 25 6 0 11 6 11 13 0 8 6 27 14 43 23 49 29 74 15 74 -7 0 -10 2 -7
5 3 3 17 1 32 -4 17 -7 26 -7 26 -1 0 6 -5 10 -11 10 -14 0 -59 51 -59 66 0
19 26 35 45 27 12 -4 16 -3 12 4 -5 7 0 9 12 6 10 -3 22 0 25 6 5 8 -12 11
-54 11 -54 0 -64 3 -86 27 -20 22 -24 34 -19 58 14 61 14 81 -1 103 -9 13 -13
26 -10 29 3 3 11 -6 17 -21 14 -31 28 -34 26 -6 -1 11 -6 20 -11 20 -5 0 -7 3
-4 6 4 3 16 0 28 -6 17 -9 31 -8 68 7 25 9 58 18 72 19 14 0 40 2 58 2 43 3
41 16 -5 29 l-38 11 40 -5 c22 -3 42 -9 45 -13z m248 13 c-10 -2 -26 -2 -35 0
-10 3 -2 5 17 5 19 0 27 -2 18 -5z m152 -13 c0 -5 -2 -10 -4 -10 -3 0 -8 5
-11 10 -3 6 -1 10 4 10 6 0 11 -4 11 -10z m-2035 -10 c3 -6 -1 -13 -10 -16
-19 -8 -30 0 -20 15 8 14 22 14 30 1z m1562 4 c-3 -3 -12 -4 -19 -1 -8 3 -5 6
6 6 11 1 17 -2 13 -5z m-2670 -26 c-3 -8 -6 -5 -6 6 -1 11 2 17 5 13 3 -3 4
-12 1 -19z m1162 -15 c9 -6 28 -10 44 -8 15 2 27 0 27 -5 0 -4 9 -10 20 -13
11 -3 24 -16 29 -29 6 -12 10 -18 10 -11 1 20 41 26 66 9 30 -20 31 -40 6
-103 -10 -26 -16 -54 -14 -60 3 -7 0 -13 -5 -13 -6 0 -13 -24 -17 -52 -4 -29
-10 -69 -15 -88 -5 -19 -10 -51 -11 -70 -2 -19 -6 -39 -10 -45 -6 -10 -50
-184 -53 -215 -1 -8 -8 -26 -15 -39 -10 -19 -10 -22 0 -16 9 6 10 3 5 -10 -15
-41 -34 -113 -46 -175 -6 -36 -16 -67 -20 -70 -5 -3 -5 -12 0 -20 5 -9 5 -20
-2 -28 -11 -12 -22 -67 -32 -144 -1 -15 -9 -34 -16 -43 -7 -9 -14 -29 -15 -45
-3 -31 -20 -60 -37 -60 -5 0 -13 10 -18 23 -8 19 -9 17 -9 -15 -1 -20 4 -40 9
-43 6 -4 8 -11 4 -16 -3 -5 -10 -6 -16 -3 -8 5 -9 1 -5 -11 6 -15 3 -17 -23
-13 -20 3 -30 0 -30 -9 0 -17 -52 -17 -68 -1 -7 7 -17 14 -22 14 -6 1 -15 2
-21 3 -6 0 -9 8 -5 16 3 8 -2 22 -11 31 -9 9 -17 28 -18 43 -1 14 -5 42 -9 62
-6 26 -3 45 8 67 20 38 22 87 4 76 -7 -4 -5 1 4 12 16 18 49 159 50 216 1 15
5 25 9 22 5 -3 9 5 9 18 0 37 30 170 45 205 20 43 19 50 -5 23 -11 -13 -20
-31 -20 -42 0 -10 -4 -18 -8 -18 -14 0 -103 -143 -98 -157 3 -6 -3 -15 -13
-18 -11 -3 -24 -19 -31 -35 -7 -16 -16 -27 -21 -24 -5 3 -9 -3 -9 -14 0 -10
-8 -26 -18 -36 -11 -9 -28 -34 -38 -56 -15 -31 -27 -42 -61 -52 -23 -6 -40
-15 -37 -20 3 -4 -6 -10 -20 -14 -26 -6 -96 28 -96 47 0 5 -5 9 -11 9 -5 0 -7
-4 -4 -10 3 -5 1 -10 -4 -10 -6 0 -11 16 -11 36 0 23 -7 43 -18 53 -20 17 -26
51 -9 48 5 -1 12 3 14 10 3 9 -9 8 -47 -3 -29 -8 -55 -13 -58 -10 -3 3 3 6 13
6 15 0 16 2 4 18 -13 15 -12 16 3 4 22 -18 64 -6 48 13 -6 7 -7 20 -4 29 5 12
0 19 -15 23 -17 4 -19 8 -10 19 9 11 8 18 -1 29 -6 8 -9 23 -5 35 4 12 2 20
-5 20 -6 0 -10 8 -9 18 5 52 -5 49 -21 -8 -10 -36 -37 -126 -60 -200 -23 -74
-47 -153 -52 -175 -20 -83 -51 -175 -59 -181 -5 -3 -9 -15 -9 -27 -1 -41 -41
-74 -53 -44 -3 6 -6 2 -6 -10 -1 -13 -5 -23 -11 -23 -5 0 -10 -8 -10 -19 0
-13 -9 -20 -27 -24 -16 -3 -37 -8 -48 -12 -25 -8 -75 28 -75 54 0 10 -8 17
-20 17 -11 0 -19 -5 -19 -11 3 -22 -2 -35 -12 -35 -5 0 -7 6 -3 12 11 17 13
38 18 151 2 54 10 104 16 112 6 8 9 19 5 26 -4 6 -3 14 2 18 13 8 56 177 56
219 0 18 4 27 8 21 4 -7 10 2 14 22 4 19 23 81 43 139 19 58 36 112 36 120 1
9 6 22 11 30 6 8 18 40 27 70 9 30 26 82 38 115 12 33 23 76 24 96 0 21 4 35
7 33 6 -3 42 72 54 114 3 12 13 22 21 22 11 0 14 7 10 23 -3 12 -3 16 0 10 8
-18 27 -16 21 1 -8 20 24 43 56 40 29 -3 34 5 16 23 -8 8 -7 13 2 18 7 5 10 4
6 -2 -10 -16 37 -55 56 -47 11 4 17 1 17 -8 0 -7 9 -19 20 -26 12 -7 25 -23
31 -35 9 -20 9 -20 4 5 -6 29 2 58 16 58 5 0 9 -7 9 -16 0 -8 -4 -12 -10 -9
-5 3 -10 1 -10 -4 0 -6 9 -11 19 -11 25 0 64 -36 79 -73 10 -22 10 -27 0 -21
-7 5 -5 -4 5 -19 10 -15 17 -45 17 -71 0 -25 5 -48 11 -51 6 -4 8 -14 4 -22
-3 -9 2 -24 11 -34 10 -11 12 -19 6 -19 -7 0 -12 -7 -12 -15 0 -20 25 -8 37
18 9 20 10 20 26 -11 8 -18 12 -32 8 -32 -4 0 -13 10 -18 23 -11 22 -11 22
-18 -5 -4 -16 -11 -25 -16 -22 -5 3 -9 1 -9 -5 0 -19 19 -21 30 -4 10 16 11
16 6 1 -3 -9 -2 -19 2 -21 4 -2 1 -2 -6 -1 -17 5 -26 -21 -14 -41 7 -13 26 10
97 117 91 137 155 220 213 275 19 17 31 36 28 42 -4 6 -1 9 7 5 8 -3 20 3 28
12 11 14 10 19 -14 36 -15 11 -27 23 -27 27 0 10 39 11 45 0 3 -5 -2 -6 -12
-2 -17 6 -17 5 0 -13 17 -18 77 -27 77 -11 0 4 9 7 19 7 25 0 36 17 22 34 -6
7 -8 16 -4 20 4 4 10 1 12 -6 2 -7 11 -18 20 -25z m3058 31 c-3 -3 -12 -4 -19
-1 -8 3 -5 6 6 6 11 1 17 -2 13 -5z m-3943 -40 c5 -14 4 -15 -9 -4 -17 14 -19
20 -6 20 5 0 12 -7 15 -16z m37 -7 c-10 -9 -11 -8 -5 6 3 10 9 15 12 12 3 -3
0 -11 -7 -18z m192 3 c3 -11 1 -18 -4 -14 -5 3 -9 12 -9 20 0 20 7 17 13 -6z
m558 3 c8 -9 9 -14 2 -10 -6 4 -13 1 -16 -5 -3 -7 -4 -3 -4 10 1 26 1 26 18 5z
m262 10 c-7 -2 -13 -11 -13 -19 0 -16 -26 -19 -35 -5 -3 5 -1 12 5 16 5 3 10
0 10 -7 0 -8 5 -6 11 5 5 9 15 17 22 16 9 0 9 -2 0 -6z m1882 -2 c11 -5 28 -4
39 1 13 7 16 7 12 -1 -4 -7 1 -11 12 -11 12 0 22 -9 25 -22 5 -20 4 -21 -6 -7
-18 23 -47 31 -66 17 -9 -7 -13 -8 -8 -3 4 5 -5 14 -20 21 -31 14 -20 17 12 5z
m-2805 -11 c0 -5 -4 -10 -10 -10 -5 0 -10 5 -10 10 0 6 5 10 10 10 6 0 10 -4
10 -10z m27 -12 c-3 -8 -6 -5 -6 6 -1 11 2 17 5 13 3 -3 4 -12 1 -19z m921 8
c-7 -8 -15 -12 -17 -11 -5 6 10 25 20 25 5 0 4 -6 -3 -14z m27 -16 c-3 -5 -11
-10 -16 -10 -6 0 -7 5 -4 10 3 6 11 10 16 10 6 0 7 -4 4 -10z m-772 -18 c-13
-2 -23 -8 -23 -14 0 -6 -2 -9 -5 -6 -14 13 7 35 28 30 l22 -7 -22 -3z m-833 4
c0 -2 -9 -6 -20 -9 -11 -3 -20 -1 -20 4 0 5 9 9 20 9 11 0 20 -2 20 -4z m460
0 c0 -2 -7 -6 -15 -10 -8 -3 -15 -1 -15 4 0 6 7 10 15 10 8 0 15 -2 15 -4z
m4160 -11 c0 -1 -10 -5 -23 -7 -14 -3 -24 0 -24 7 0 7 10 10 24 7 13 -2 23 -6
23 -7z m-4700 -3 c0 -5 -15 -9 -32 -9 -27 -1 -29 1 -13 7 27 11 45 12 45 2z
m850 -13 c0 -6 -4 -7 -10 -4 -5 3 -10 11 -10 16 0 6 5 7 10 4 6 -3 10 -11 10
-16z m1907 -2 c1 -11 1 -18 0 -16 -2 2 -8 11 -15 20 -9 12 -9 16 1 16 7 0 14
-9 14 -20z m-2304 -4 c-7 -2 -21 -2 -30 0 -10 3 -4 5 12 5 17 0 24 -2 18 -5z
m431 -33 c10 -13 9 -13 -6 -1 -10 7 -18 21 -17 30 0 13 1 14 6 1 3 -8 11 -22
17 -30z m33 8 c-3 -7 -5 -2 -5 12 0 14 2 19 5 13 2 -7 2 -19 0 -25z m853 28
c0 -3 -4 -8 -10 -11 -5 -3 -10 -1 -10 4 0 6 5 11 10 11 6 0 10 -2 10 -4z
m-1760 -26 c0 -5 -5 -10 -11 -10 -5 0 -7 5 -4 10 3 6 8 10 11 10 2 0 4 -4 4
-10z m1211 -21 c-5 -13 -10 -19 -10 -12 -1 15 10 45 15 40 3 -2 0 -15 -5 -28z
m-781 -9 c0 -11 5 -20 10 -20 6 0 10 7 10 16 0 14 3 14 15 4 14 -11 13 -14 -7
-24 -19 -10 -26 -9 -42 5 -10 10 -15 22 -11 28 10 18 25 13 25 -9z m74 5 c-4
-8 -8 -15 -10 -15 -2 0 -4 7 -4 15 0 8 4 15 10 15 5 0 7 -7 4 -15z m-597 -22
c-8 -7 -37 9 -31 19 3 5 12 4 20 -3 8 -6 13 -14 11 -16z m2830 -33 c0 -22 -3
-42 -6 -45 -4 -2 -7 18 -7 45 0 27 3 47 7 45 3 -3 6 -23 6 -45z m2173 40 c0
-5 -4 -10 -9 -10 -6 0 -13 5 -16 10 -3 6 1 10 9 10 9 0 16 -4 16 -10z m-3720
-20 c0 -5 -5 -10 -11 -10 -5 0 -7 5 -4 10 3 6 8 10 11 10 2 0 4 -4 4 -10z
m-702 -14 c-7 -8 -16 -12 -21 -9 -11 7 2 23 19 23 12 0 12 -2 2 -14z m452 4
c0 -5 -4 -10 -10 -10 -5 0 -10 5 -10 10 0 6 5 10 10 10 6 0 10 -4 10 -10z
m202 -19 c-15 -10 -33 -51 -27 -61 3 -6 2 -10 -3 -10 -6 0 -12 7 -16 15 -3 8
-2 15 3 15 13 0 32 50 24 63 -4 7 1 6 11 -2 9 -8 13 -17 8 -20z m3828 19 c0
-5 -9 -10 -20 -10 -11 0 -20 5 -20 10 0 6 9 10 20 10 11 0 20 -4 20 -10z m-55
-28 c5 -12 16 -22 24 -22 8 0 12 -3 8 -6 -10 -10 -47 7 -47 22 0 8 -4 14 -10
14 -5 0 -10 5 -10 11 0 18 24 4 35 -19z m-5165 8 c0 -5 -5 -10 -11 -10 -5 0
-7 5 -4 10 3 6 8 10 11 10 2 0 4 -4 4 -10z m41 -3 c-1 -12 -15 -9 -19 4 -3 6
1 10 8 8 6 -3 11 -8 11 -12z m654 -15 c-9 -2 -15 -15 -15 -33 0 -16 -4 -29 -9
-29 -5 0 -11 -6 -14 -12 -2 -7 -3 -6 -2 2 2 8 6 24 11 34 6 15 4 17 -7 11 -8
-5 -6 1 4 13 11 11 16 26 12 32 -4 7 1 6 14 -2 17 -10 18 -14 6 -16z m512 6
c-3 -8 -6 -5 -6 6 -1 11 2 17 5 13 3 -3 4 -12 1 -19z m4048 12 c3 -5 -1 -10
-10 -10 -9 0 -13 5 -10 10 3 6 8 10 10 10 2 0 7 -4 10 -10z m-3851 -25 c-4 -8
-11 -15 -16 -15 -6 0 -5 6 2 15 7 8 14 15 16 15 2 0 1 -7 -2 -15z m1626 6 c0
-5 12 -12 28 -14 15 -3 9 -4 -14 -3 -29 1 -40 5 -37 14 6 14 23 16 23 3z
m-3095 -11 c3 -6 -1 -7 -9 -4 -9 3 -16 1 -16 -5 0 -6 5 -11 12 -11 6 0 9 -2 7
-5 -7 -7 -49 6 -49 15 0 7 16 15 42 19 4 0 10 -3 13 -9z m45 6 c0 -11 -19 -15
-25 -6 -3 5 1 10 9 10 9 0 16 -2 16 -4z m1947 -18 c-3 -8 -6 -5 -6 6 -1 11 2
17 5 13 3 -3 4 -12 1 -19z m3388 12 c13 -5 14 -9 5 -9 -8 0 -24 4 -35 9 -13 5
-14 9 -5 9 8 0 24 -4 35 -9z m-4018 -32 c-3 -8 -6 -5 -6 6 -1 11 2 17 5 13 3
-3 4 -12 1 -19z m-1427 3 c0 -5 -9 -13 -20 -16 -11 -3 -20 -11 -20 -16 0 -5
-8 -9 -17 -9 -14 0 -11 6 12 25 32 26 45 31 45 16z m1460 -1 c0 -5 -5 -10 -11
-10 -5 0 -7 5 -4 10 3 6 8 10 11 10 2 0 4 -4 4 -10z m570 -37 c-11 -17 -11
-17 -6 0 3 10 7 26 7 35 1 15 2 15 6 0 2 -10 -1 -25 -7 -35z m-2000 17 c0 -5
-2 -10 -4 -10 -3 0 -8 5 -11 10 -3 6 -1 10 4 10 6 0 11 -4 11 -10z m5468 -19
c-7 -12 -19 -21 -27 -21 -10 0 -7 8 9 25 27 29 37 27 18 -4z m-4168 15 c0 -3
-4 -8 -10 -11 -5 -3 -10 -1 -10 4 0 6 5 11 10 11 6 0 10 -2 10 -4z m143 -16
c-3 -11 -9 -20 -15 -20 -5 0 -4 9 2 20 6 11 12 20 14 20 2 0 2 -9 -1 -20z
m4067 0 c0 -5 -8 -10 -17 -10 -15 0 -16 2 -3 10 19 12 20 12 20 0z m-4203 -24
c-3 -8 -1 -17 6 -19 7 -2 9 -8 5 -12 -4 -4 -14 -2 -22 4 -12 10 -13 16 -3 26
16 18 20 18 14 1z m1863 4 c0 -5 -5 -10 -11 -10 -5 0 -7 5 -4 10 3 6 8 10 11
10 2 0 4 -4 4 -10z m-1740 -17 c0 -3 -7 -3 -15 1 -9 3 -15 0 -15 -10 0 -8 -5
-12 -10 -9 -16 10 8 35 26 28 8 -3 14 -7 14 -10z m-660 -8 c0 -8 -2 -15 -4
-15 -2 0 -6 7 -10 15 -3 8 -1 15 4 15 6 0 10 -7 10 -15z m530 -37 c0 -6 -6 -5
-15 2 -8 7 -15 14 -15 16 0 2 7 1 15 -2 8 -4 15 -11 15 -16z m4284 -7 c-2 -3
-12 3 -22 13 -16 17 -16 18 5 5 12 -7 20 -15 17 -18z m-4215 3 c-14 -17 -25
-18 -32 -1 -3 7 5 13 20 13 19 2 22 -1 12 -12z m618 -6 c-3 -8 -6 -5 -6 6 -1
11 2 17 5 13 3 -3 4 -12 1 -19z m24 -5 c-8 -15 -10 -15 -11 -2 0 17 10 32 18
25 2 -3 -1 -13 -7 -23z m3614 7 c-3 -5 -11 -10 -16 -10 -6 0 -7 5 -4 10 3 6
11 10 16 10 6 0 7 -4 4 -10z m-5798 -6 c-3 -3 -12 -4 -19 -1 -8 3 -5 6 6 6 11
1 17 -2 13 -5z m4200 -34 c-1 -21 -1 -38 -2 -37 0 1 -9 12 -20 25 -14 17 -15
23 -5 20 8 -2 15 3 16 10 2 19 4 22 8 22 3 0 4 -18 3 -40z m-862 21 c3 -5 -3
-8 -12 -6 -10 1 -23 -2 -30 -7 -7 -5 -17 -7 -24 -3 -8 5 -8 10 -1 14 17 10 60
12 67 2z m-1800 -11 c3 -5 1 -10 -4 -10 -6 0 -11 5 -11 10 0 6 2 10 4 10 3 0
8 -4 11 -10z m-644 -54 c12 -13 11 -36 -2 -36 -5 0 -7 4 -4 10 3 5 -1 21 -10
34 -10 15 -13 30 -8 38 6 9 9 6 11 -12 2 -14 8 -29 13 -34z m2433 29 c-7 -16
-24 -21 -24 -6 0 8 7 13 27 20 1 1 0 -6 -3 -14z m2546 11 c0 -11 -19 -15 -25
-6 -3 5 1 10 9 10 9 0 16 -2 16 -4z m-5960 -16 c0 -5 -5 -10 -11 -10 -5 0 -7
5 -4 10 3 6 8 10 11 10 2 0 4 -4 4 -10z m4260 -4 c0 -3 -4 -8 -10 -11 -5 -3
-10 -1 -10 4 0 6 5 11 10 11 6 0 10 -2 10 -4z m-4300 -20 c-4 -4 -16 -4 -26 2
-16 9 -14 10 8 9 15 -1 23 -6 18 -11z m6015 4 c3 -5 1 -10 -4 -10 -6 0 -11 5
-11 10 0 6 2 10 4 10 3 0 8 -4 11 -10z m-2615 -10 c0 -5 8 -7 18 -3 14 5 15 3
5 -8 -15 -16 -17 -33 -3 -24 6 3 10 2 10 -3 0 -6 -7 -12 -15 -16 -11 -4 -15 1
-15 17 0 13 -5 28 -12 35 -9 9 -9 12 0 12 7 0 12 -4 12 -10z m-2400 -44 c0
-26 -6 -18 -14 19 -5 22 -4 26 4 15 5 -8 10 -24 10 -34z m1540 34 c0 -5 -4
-10 -10 -10 -5 0 -10 5 -10 10 0 6 5 10 10 10 6 0 10 -4 10 -10z m2175 -8 c-1
-20 -28 -58 -58 -81 -29 -23 -19 -4 17 34 19 19 31 37 26 40 -13 8 -38 -5 -44
-23 -2 -10 -4 -6 -3 8 2 22 17 32 58 39 3 1 5 -7 4 -17z m92 1 c3 -8 -3 -13
-14 -13 -15 0 -16 2 -3 11 11 7 5 8 -22 3 -21 -3 -38 -2 -38 2 0 14 73 10 77
-3z m163 5 c0 -5 -6 -8 -14 -8 -8 0 -20 -2 -28 -3 -7 -2 -10 -2 -5 0 4 3 5 8
3 11 -2 4 7 7 20 7 13 0 24 -3 24 -7z m1107 -14 c-9 -9 -28 6 -21 18 4 6 10 6
17 -1 6 -6 8 -13 4 -17z m-3457 -24 c-5 -8 -18 -24 -29 -34 -19 -17 -21 -18
-21 -2 0 9 5 14 10 11 16 -10 12 12 -5 29 -10 10 -12 17 -4 21 6 4 13 -2 16
-14 3 -12 10 -21 15 -21 6 0 7 11 4 26 -6 22 -5 24 8 12 8 -8 11 -19 6 -28z
m1665 30 c3 -5 1 -10 -4 -10 -6 0 -11 5 -11 10 0 6 2 10 4 10 3 0 8 -4 11 -10z
m-4275 -11 c0 -11 -27 -12 -34 -1 -2 4 4 9 15 9 10 1 19 -2 19 -8z m2804 -26
c-17 -17 -18 -17 -11 0 4 10 7 24 7 30 0 8 3 8 11 0 9 -9 7 -16 -7 -30z
m-2874 23 c0 -3 -4 -8 -10 -11 -5 -3 -10 -1 -10 4 0 6 5 11 10 11 6 0 10 -2
10 -4z m2577 -18 c-3 -8 -6 -5 -6 6 -1 11 2 17 5 13 3 -3 4 -12 1 -19z m251
-8 c23 -16 48 -30 56 -30 8 0 27 -16 42 -35 32 -43 56 -183 36 -216 -8 -13 -9
-26 -2 -44 6 -15 10 -137 10 -278 0 -240 -1 -253 -20 -270 -11 -9 -20 -23 -20
-30 0 -7 -13 -26 -29 -41 -16 -15 -27 -35 -25 -44 5 -21 -3 -33 -41 -56 l-30
-19 33 33 c47 47 41 61 -30 65 -42 3 -85 39 -80 67 2 9 -2 26 -7 37 -7 13 -8
22 -1 26 5 3 10 37 10 75 0 66 -1 69 -22 64 -13 -3 -48 -5 -78 -5 -61 0 -69
-3 -87 -36 -15 -27 -17 -45 -3 -23 7 10 10 11 10 2 0 -7 -7 -15 -15 -18 -8 -4
-15 -11 -15 -16 0 -6 7 -7 16 -4 9 3 12 2 9 -5 -4 -5 -15 -7 -26 -4 -16 5 -19
1 -19 -23 0 -19 -8 -35 -25 -48 -14 -10 -25 -26 -25 -35 0 -9 -6 -22 -14 -29
-8 -6 -12 -19 -9 -28 4 -13 2 -12 -10 3 -9 11 -17 26 -17 33 0 17 -20 15 -20
-2 0 -8 6 -21 13 -28 6 -7 21 -29 31 -48 l19 -35 -21 19 c-12 11 -22 25 -22
31 0 19 -30 27 -49 13 -13 -11 -13 -9 2 15 10 15 13 27 8 27 -6 0 -15 -10 -22
-21 -8 -16 -13 -18 -19 -9 -4 7 -15 10 -24 7 -22 -9 -20 9 4 33 11 11 20 22
20 25 0 3 -9 1 -20 -5 -25 -13 -25 -9 -1 18 10 12 21 19 25 15 3 -3 6 9 6 28
l0 33 -16 -22 c-9 -13 -22 -21 -29 -18 -8 3 -16 -5 -20 -21 -11 -44 -14 -20
-3 30 5 26 14 47 20 47 5 0 8 5 6 12 -3 7 3 20 11 30 9 10 14 21 13 25 -2 3 2
10 10 14 11 7 10 11 -2 19 -13 8 -12 10 3 10 10 0 17 5 15 11 -2 7 5 22 15 34
11 12 48 75 82 141 50 94 67 118 81 116 18 -3 18 -2 3 13 -16 16 -15 20 12 60
16 24 28 54 27 66 -2 15 2 24 12 24 8 0 16 8 18 18 3 14 -6 21 -28 19 -3 0 -6
12 -6 26 -2 26 -1 26 8 5 9 -19 37 -39 43 -31 1 2 14 37 29 78 39 106 67 140
115 140 26 0 51 -9 79 -30z m22 20 c0 -5 -2 -10 -4 -10 -3 0 -8 5 -11 10 -3 6
-1 10 4 10 6 0 11 -4 11 -10z m1524 -14 c-3 -9 -13 -16 -22 -16 -13 0 -12 3 4
19 22 21 27 21 18 -3z m614 -4 c6 -9 9 -25 6 -36 -6 -19 -5 -19 10 -4 9 9 16
23 17 30 0 9 2 10 6 1 2 -7 20 -15 40 -19 31 -6 33 -8 17 -17 -13 -7 -19 -7
-22 1 -7 22 -22 12 -22 -13 0 -14 4 -25 9 -25 5 0 9 -12 9 -26 0 -16 -5 -23
-13 -20 -8 3 -18 -8 -26 -25 -8 -21 -17 -29 -29 -26 -13 3 -16 0 -13 -14 3
-11 11 -15 20 -12 13 5 13 3 2 -16 -16 -24 -31 -29 -23 -6 5 11 -1 15 -25 15
-25 0 -31 -4 -29 -17 2 -10 8 -21 13 -26 6 -4 -1 -6 -14 -4 -14 2 -26 9 -27
16 -1 6 0 7 3 1 2 -5 9 -7 14 -4 6 3 5 11 -2 20 -16 20 -24 18 -37 -12 -7 -14
-16 -23 -21 -19 -12 7 -118 -67 -139 -96 -13 -20 -13 -21 4 -16 31 10 98 10
119 2 26 -11 36 -26 29 -47 -6 -20 12 -25 19 -5 3 10 9 10 26 0 25 -16 34 -16
26 -3 -3 6 -1 10 5 10 5 0 9 -14 8 -31 -2 -22 -10 -35 -25 -42 -27 -12 -31
-32 -5 -23 26 10 -26 -30 -88 -66 -32 -18 -49 -33 -40 -35 16 -4 54 -63 40
-63 -4 0 -10 6 -13 13 -3 8 -10 6 -21 -8 -10 -13 -15 -15 -16 -6 0 7 -6 11
-13 8 -8 -3 -14 1 -14 7 0 8 10 12 24 10 27 -3 27 19 0 24 -21 4 -81 -44 -67
-53 5 -3 10 -12 10 -18 0 -8 -3 -8 -9 2 -12 18 -54 4 -47 -15 3 -8 2 -13 -3
-10 -4 3 -16 -3 -26 -14 -18 -19 -17 -20 6 -20 14 0 30 5 37 12 8 8 15 8 26
-1 11 -10 17 -8 28 7 20 28 66 55 99 57 23 2 29 -1 30 -19 2 -19 2 -19 6 2 3
15 10 22 19 18 8 -3 14 -1 14 4 0 6 7 10 15 10 8 0 15 6 15 14 0 18 27 29 32
13 7 -19 3 -61 -7 -78 -7 -10 -2 -9 15 4 52 37 70 42 87 25 14 -15 14 -19 0
-47 -14 -28 -14 -32 1 -41 14 -9 14 -10 -4 -5 -17 4 -25 -1 -37 -27 -9 -19
-29 -39 -46 -46 -17 -8 -29 -17 -27 -21 3 -4 -7 -6 -22 -6 -15 1 -33 -3 -40
-9 -24 -17 -125 -57 -182 -71 -132 -33 -139 -33 -185 -16 -24 9 -47 20 -51 24
-4 4 -14 7 -23 7 -14 -1 -14 -2 2 -14 9 -7 17 -17 17 -21 0 -5 -9 0 -20 10
-11 10 -18 20 -16 23 3 2 -6 21 -19 41 -30 43 -34 134 -9 182 16 31 11 56 -6
29 -8 -12 -10 -12 -10 -2 0 8 9 16 21 19 16 5 19 11 15 32 -3 14 -3 20 0 14 4
-9 11 -9 30 3 13 9 21 20 18 25 -3 5 1 12 10 15 8 3 13 11 10 17 -2 7 10 20
27 30 26 15 29 20 18 33 -6 8 -18 13 -25 10 -21 -8 -44 28 -42 69 1 22 -4 41
-10 43 -18 6 -15 16 13 46 14 15 25 23 25 17 0 -5 -5 -13 -10 -16 -6 -4 -8
-11 -4 -16 8 -14 24 -1 24 20 0 10 6 24 14 31 8 6 12 19 9 27 -4 10 -2 14 5 9
13 -8 26 29 16 45 -4 7 -3 9 3 6 6 -4 14 0 17 9 8 21 8 26 -2 20 -5 -3 -9 2
-9 10 0 9 4 11 9 6 6 -6 27 7 53 32 32 31 39 43 29 49 -8 4 -14 13 -14 18 0 6
7 3 16 -5 8 -9 18 -16 22 -16 4 0 36 23 72 50 35 28 74 53 85 55 47 10 62 11
105 7 25 -2 51 -11 58 -20z m37 18 c-3 -5 -11 -10 -16 -10 -6 0 -7 5 -4 10 3
6 11 10 16 10 6 0 7 -4 4 -10z m-2109 -9 c-3 -4 3 -19 14 -31 22 -25 24 -30
12 -30 -11 0 -43 56 -35 64 9 9 15 7 9 -3z m-296 -20 c0 -6 -4 -13 -10 -16 -5
-3 -10 1 -10 9 0 9 5 16 10 16 6 0 10 -4 10 -9z m3570 -1 c0 -5 -2 -10 -4 -10
-3 0 -8 5 -11 10 -3 6 -1 10 4 10 6 0 11 -4 11 -10z m-2735 -10 c-3 -5 -2 -10
3 -10 16 0 2 -38 -16 -45 -14 -5 -15 -4 -4 6 6 7 12 20 12 29 0 13 -1 13 -10
0 -11 -17 -13 -10 -4 14 3 9 10 16 16 16 5 0 6 -4 3 -10z m-876 -32 c-1 -22
-3 -26 -6 -13 -3 11 -10 26 -15 33 -8 9 -6 12 6 12 12 0 16 -9 15 -32z m3591
28 c0 -3 -4 -8 -10 -11 -5 -3 -10 -1 -10 4 0 6 5 11 10 11 6 0 10 -2 10 -4z
m-1862 -41 c-3 -3 -9 2 -12 12 -6 14 -5 15 5 6 7 -7 10 -15 7 -18z m-4401 -17
c-3 -7 -5 -2 -5 12 0 14 2 19 5 13 2 -7 2 -19 0 -25z m2711 -4 c-1 -23 -4 -31
-9 -22 -7 13 -2 58 7 58 2 0 3 -16 2 -36z m1682 -28 c12 -45 8 -67 -13 -65 -9
0 -9 2 1 6 6 2 12 12 12 20 0 12 -3 13 -14 4 -14 -12 -46 -5 -46 10 0 5 10 8
23 6 23 -2 28 19 12 57 -6 13 -5 17 2 13 6 -4 16 -26 23 -51z m-2001 21 c12
-15 12 -17 -3 -11 -9 3 -16 13 -16 22 0 8 1 13 3 11 1 -2 9 -12 16 -22z m1142
-24 c-12 -20 -14 -14 -5 12 4 9 9 14 11 11 3 -2 0 -13 -6 -23z m-849 -29 c-6
-11 -11 -13 -16 -5 -4 6 -2 11 4 11 7 0 9 9 5 23 -5 19 -4 20 5 5 7 -12 8 -24
2 -34z m418 -38 c-7 -7 -10 6 -9 40 l1 49 9 -39 c6 -26 6 -43 -1 -50z m1565
64 c-10 -11 -20 -18 -23 -15 -7 6 18 35 31 35 5 0 2 -9 -8 -20z m525 -50 c-6
-11 -9 -23 -8 -27 2 -4 -1 -10 -7 -13 -5 -3 -12 6 -13 19 -2 15 0 21 7 17 11
-7 14 8 12 49 -1 17 0 17 9 -3 7 -16 6 -30 0 -42z m-505 31 c-3 -6 -11 -11
-17 -11 -6 0 -6 6 2 15 14 17 26 13 15 -4z m485 -1 c0 -5 -5 -10 -11 -10 -5 0
-7 5 -4 10 3 6 8 10 11 10 2 0 4 -4 4 -10z m-2813 -22 c-3 -8 -6 -5 -6 6 -1
11 2 17 5 13 3 -3 4 -12 1 -19z m-2455 -16 c-9 -10 -18 -14 -20 -10 -5 10 21
37 30 32 4 -3 0 -13 -10 -22z m3175 -4 c-3 -7 -5 -2 -5 12 0 14 2 19 5 13 2
-7 2 -19 0 -25z m-3127 12 c0 -5 -5 -10 -11 -10 -5 0 -7 5 -4 10 3 6 8 10 11
10 2 0 4 -4 4 -10z m5184 -14 c-3 -9 -10 -13 -16 -10 -5 3 -4 12 3 20 15 18
22 13 13 -10z m-1674 -6 c0 -5 -5 -10 -11 -10 -5 0 -7 5 -4 10 3 6 8 10 11 10
2 0 4 -4 4 -10z m28 -15 c-3 -3 -9 2 -12 12 -6 14 -5 15 5 6 7 -7 10 -15 7
-18z m831 -20 c0 -5 -4 -3 -9 5 -5 8 -9 22 -9 30 0 16 17 -16 18 -35z m296 25
c-10 -11 -20 -18 -23 -15 -7 6 18 35 31 35 5 0 2 -9 -8 -20z m-3557 -70 c1
-23 0 -23 -8 -5 -5 11 -8 36 -8 55 l0 35 8 -30 c4 -16 8 -41 8 -55z m1302 65
c0 -8 -4 -15 -10 -15 -5 0 -7 7 -4 15 4 8 8 15 10 15 2 0 4 -7 4 -15z m-1283
-27 c-3 -7 -5 -2 -5 12 0 14 2 19 5 13 2 -7 2 -19 0 -25z m933 22 c0 -5 -4
-10 -10 -10 -5 0 -10 5 -10 10 0 6 5 10 10 10 6 0 10 -4 10 -10z m2247 -8
c-22 -24 -21 -33 1 -25 12 5 10 -1 -8 -20 -14 -15 -29 -27 -34 -27 -6 0 -5 5
2 12 17 17 15 41 -3 34 -25 -9 -17 1 18 23 40 26 45 26 24 3z m2179 -9 c-10
-10 -19 5 -10 18 6 11 8 11 12 0 2 -7 1 -15 -2 -18z m-3336 7 c0 -5 -2 -10 -4
-10 -3 0 -8 5 -11 10 -3 6 -1 10 4 10 6 0 11 -4 11 -10z m1200 -16 c0 -8 -4
-12 -10 -9 -5 3 -10 13 -10 21 0 8 5 12 10 9 6 -3 10 -13 10 -21z m750 -19 c0
-5 -5 -3 -10 5 -5 8 -10 20 -10 25 0 6 5 3 10 -5 5 -8 10 -19 10 -25z m85 25
c3 -5 1 -10 -4 -10 -6 0 -11 5 -11 10 0 6 2 10 4 10 3 0 8 -4 11 -10z m-3704
-23 c-10 -9 -11 -8 -5 6 3 10 9 15 12 12 3 -3 0 -11 -7 -18z m557 16 c-18 -4
-43 -66 -34 -82 3 -5 -1 -14 -9 -21 -8 -7 -15 -24 -14 -39 l1 -26 8 25 c5 15
8 18 9 8 1 -9 -2 -24 -5 -33 -5 -13 -8 -14 -15 -3 -12 18 -11 68 1 68 6 0 10
7 10 15 0 8 -6 15 -12 15 -9 0 -10 3 -2 8 6 4 19 22 28 40 10 18 24 32 34 31
16 -1 16 -2 0 -6z m543 -6 c0 -4 -3 -28 -7 -55 -5 -37 -9 -43 -15 -27 -10 25
-11 80 -2 89 8 8 25 3 24 -7z m934 -37 c-10 -16 -22 -3 -22 25 0 25 0 25 14 5
8 -11 11 -25 8 -30z m1132 35 c9 -24 -1 -27 -15 -5 -8 13 -8 20 -2 20 6 0 13
-7 17 -15z m510 -7 c-3 -8 -6 -5 -6 6 -1 11 2 17 5 13 3 -3 4 -12 1 -19z
m-2753 -4 c3 -8 2 -12 -4 -9 -6 3 -10 10 -10 16 0 14 7 11 14 -7z m750 -26 c4
-17 2 -28 -4 -28 -5 0 -10 14 -10 32 0 36 4 35 14 -4z m-522 -35 c7 -9 7 -18
-3 -29 -11 -14 -13 -14 -21 0 -5 9 -5 33 -1 53 6 32 8 34 11 13 2 -14 9 -31
14 -37z m1604 42 c-17 -13 -17 -15 -3 -21 10 -3 17 -12 17 -19 0 -8 8 -16 18
-18 16 -4 16 -5 -1 -6 -10 0 -29 11 -42 25 -13 14 -29 23 -34 19 -6 -3 -11 -4
-11 -1 0 7 52 35 65 35 6 0 1 -6 -9 -14z m-2746 -5 c0 -5 -5 -10 -11 -10 -5 0
-7 5 -4 10 3 6 8 10 11 10 2 0 4 -4 4 -10z m1161 -12 c11 -21 11 -22 -4 -9
-10 7 -17 17 -17 22 0 15 9 10 21 -13z m-2731 8 c0 -11 -19 -15 -25 -6 -3 5 1
10 9 10 9 0 16 -2 16 -4z m5089 0 c-12 -10 -60 -16 -54 -6 3 5 18 10 32 10 15
0 24 -2 22 -4z m-5119 -35 c0 -4 -6 -15 -13 -25 -12 -16 -13 -14 -13 18 0 28
3 33 13 24 7 -6 13 -14 13 -17z m2137 7 c-3 -8 -6 -5 -6 6 -1 11 2 17 5 13 3
-3 4 -12 1 -19z m353 12 c0 -5 -5 -10 -11 -10 -5 0 -7 5 -4 10 3 6 8 10 11 10
2 0 4 -4 4 -10z m4090 0 c0 -5 -4 -10 -10 -10 -5 0 -10 5 -10 10 0 6 5 10 10
10 6 0 10 -4 10 -10z m-1460 -9 c0 -13 -28 -22 -35 -11 -3 4 1 11 7 13 20 8
28 8 28 -2z m-1506 -17 c3 -8 2 -12 -4 -9 -6 3 -10 10 -10 16 0 14 7 11 14 -7z
m706 12 c0 -2 -7 -7 -16 -10 -8 -3 -12 -2 -9 4 6 10 25 14 25 6z m-4257 -20
c9 -7 17 -19 17 -27 -1 -10 -4 -9 -14 4 -7 9 -19 17 -26 17 -7 0 -19 -8 -26
-17 -10 -13 -13 -14 -14 -4 0 12 27 40 40 40 3 0 13 -6 23 -13z m4967 10 c0
-2 -7 -9 -15 -16 -13 -11 -14 -10 -9 4 5 14 24 23 24 12z m-3448 -31 c-5 -29
-18 -40 -27 -25 -3 5 -1 10 5 10 7 0 10 6 7 14 -3 8 -1 17 6 20 7 2 13 5 13 5
1 1 -1 -10 -4 -24z m25 -7 c-3 -7 -5 -2 -5 12 0 14 2 19 5 13 2 -7 2 -19 0
-25z m950 10 c-3 -8 -6 -5 -6 6 -1 11 2 17 5 13 3 -3 4 -12 1 -19z m1726 10
c3 -10 7 -10 18 -1 10 8 19 9 29 2 13 -9 13 -10 0 -6 -8 2 -22 -2 -30 -9 -13
-11 -18 -10 -28 6 -7 11 -8 20 -3 20 5 0 11 -6 14 -12z m2397 8 c0 -3 -4 -8
-10 -11 -5 -3 -10 -1 -10 4 0 6 5 11 10 11 6 0 10 -2 10 -4z m-2019 -20 c-6
-7 -9 -21 -5 -30 3 -9 1 -16 -5 -16 -6 0 -11 6 -11 14 0 23 11 46 22 46 7 0 6
-5 -1 -14z m469 -18 c0 -5 -7 -3 -15 6 -8 8 -15 18 -15 22 0 3 7 1 15 -6 8 -7
15 -17 15 -22z m55 22 c-3 -5 -14 -10 -23 -9 -14 0 -13 2 3 9 27 11 27 11 20
0z m-1928 -22 c-3 -8 -6 -5 -6 6 -1 11 2 17 5 13 3 -3 4 -12 1 -19z m1140 -5
c-3 -3 -11 -2 -17 2 -9 6 -9 10 1 16 14 8 27 -7 16 -18z m-1727 13 c0 -2 -7
-9 -15 -16 -12 -10 -15 -10 -15 4 0 9 7 16 15 16 8 0 15 -2 15 -4z m1675 -34
c-3 -3 -11 1 -20 8 -11 9 -15 9 -15 1 0 -7 -4 -9 -10 -6 -6 4 -5 11 2 19 10
10 15 9 30 -3 9 -8 15 -17 13 -19z m852 16 c-3 -8 -6 -5 -6 6 -1 11 2 17 5 13
3 -3 4 -12 1 -19z m1470 -25 c-3 -10 -5 -2 -5 17 0 19 2 27 5 18 2 -10 2 -26
0 -35z m-3954 22 c-3 -9 -8 -14 -10 -11 -3 3 -2 9 2 15 9 16 15 13 8 -4z
m-2663 -5 c0 -5 -4 -10 -10 -10 -5 0 -10 5 -10 10 0 6 5 10 10 10 6 0 10 -4
10 -10z m2004 -19 c-5 -3 -9 -12 -9 -20 0 -8 -5 -16 -12 -18 -7 -3 -9 4 -5 19
7 28 26 50 31 36 2 -6 0 -13 -5 -17z m3126 19 c0 -5 -4 -10 -9 -10 -6 0 -13 5
-16 10 -3 6 1 10 9 10 9 0 16 -4 16 -10z m-5240 -10 c0 -5 -2 -10 -4 -10 -3 0
-8 5 -11 10 -3 6 -1 10 4 10 6 0 11 -4 11 -10z m4753 -7 c4 -3 0 -11 -9 -17
-9 -7 -19 -28 -24 -46 l-8 -35 -1 38 c-1 46 23 80 42 60z m2007 -3 c0 -5 -4
-10 -10 -10 -5 0 -10 5 -10 10 0 6 5 10 10 10 6 0 10 -4 10 -10z m-5137 -15
c-3 -9 -8 -14 -10 -11 -3 3 -2 9 2 15 9 16 15 13 8 -4z m1697 -182 c0 -109 2
-207 4 -218 2 -11 1 -14 -1 -7 -3 6 -9 12 -14 12 -5 0 -9 86 -9 205 0 130 4
205 10 205 6 0 10 -73 10 -197z m1135 188 c-3 -5 5 -11 17 -14 13 -2 2 -3 -24
-3 -42 1 -45 2 -25 13 27 15 40 16 32 4z m-2318 -33 c-3 -7 -5 -2 -5 12 0 14
2 19 5 13 2 -7 2 -19 0 -25z m597 0 c-4 -14 -2 -18 5 -14 6 4 11 3 11 -3 0 -5
-4 -13 -10 -16 -5 -3 -10 -1 -10 5 0 7 -7 10 -15 6 -8 -3 -15 -1 -15 4 0 6 5
10 11 10 6 0 9 9 6 19 -3 14 -1 18 9 14 9 -3 12 -13 8 -25z m2579 25 c-7 -2
-19 -2 -25 0 -7 3 -2 5 12 5 14 0 19 -2 13 -5z m-3636 -35 c-3 -7 -5 -2 -5 12
0 14 2 19 5 13 2 -7 2 -19 0 -25z m485 -24 c-5 -9 -8 -1 -9 23 -1 33 0 35 8
15 5 -13 5 -30 1 -38z m1458 19 c0 -28 -3 -34 -10 -23 -5 8 -10 11 -10 5 -1
-5 -6 1 -11 14 -5 13 -7 26 -4 29 3 3 5 0 5 -6 0 -7 5 -12 10 -12 6 0 10 7 10
15 0 8 2 15 5 15 3 0 5 -17 5 -37z m3146 22 c-7 -19 3 -47 15 -39 5 3 9 0 9
-5 0 -6 -4 -11 -9 -11 -4 0 -5 -19 -1 -42 9 -48 9 -50 -5 -40 -16 12 -36 77
-25 80 16 6 12 32 -5 32 -8 0 -15 5 -15 10 0 6 7 10 15 10 8 0 15 5 15 10 0 6
3 10 6 10 3 0 4 -7 0 -15z m-5539 -42 c-3 -10 -5 -2 -5 17 0 19 2 27 5 18 2
-10 2 -26 0 -35z m1308 18 c-6 -5 -25 10 -25 20 0 5 6 4 14 -3 8 -7 12 -15 11
-17z m2225 -13 c0 -10 -4 -18 -10 -18 -5 0 -10 15 -10 33 0 24 3 28 10 17 5
-8 10 -23 10 -32z m580 32 c0 -5 -2 -10 -4 -10 -3 0 -8 5 -11 10 -3 6 -1 10 4
10 6 0 11 -4 11 -10z m-3700 -15 c0 -8 -4 -15 -10 -15 -5 0 -10 7 -10 15 0 8
5 15 10 15 6 0 10 -7 10 -15z m-433 -32 c-3 -10 -5 -4 -5 12 0 17 2 24 5 18 2
-7 2 -21 0 -30z m917 12 c-4 -8 -8 -15 -10 -15 -2 0 -4 7 -4 15 0 8 4 15 10
15 5 0 7 -7 4 -15z m-546 -30 c-3 -3 -9 2 -12 12 -6 14 -5 15 5 6 7 -7 10 -15
7 -18z m962 10 c0 -8 -2 -15 -4 -15 -2 0 -6 7 -10 15 -3 8 -1 15 4 15 6 0 10
-7 10 -15z m1985 4 c11 -17 0 -20 -21 -4 -17 13 -17 14 -2 15 9 0 20 -5 23
-11z m-922 -19 c3 -11 1 -20 -4 -20 -5 0 -9 9 -9 20 0 11 2 20 4 20 2 0 6 -9
9 -20z m1004 14 c-3 -3 -12 -4 -19 -1 -8 3 -5 6 6 6 11 1 17 -2 13 -5z m191
-19 c-3 -3 -9 2 -12 12 -6 14 -5 15 5 6 7 -7 10 -15 7 -18z m30 0 c-3 -3 -9 2
-12 12 -6 14 -5 15 5 6 7 -7 10 -15 7 -18z m-3638 5 c0 -5 -5 -10 -11 -10 -5
0 -7 5 -4 10 3 6 8 10 11 10 2 0 4 -4 4 -10z m821 -17 c-12 -20 -14 -14 -5 12
4 9 9 14 11 11 3 -2 0 -13 -6 -23z m159 23 c0 -3 -4 -8 -10 -11 -5 -3 -10 -1
-10 4 0 6 5 11 10 11 6 0 10 -2 10 -4z m330 -40 c-6 -16 -15 -24 -21 -20 -7 4
-7 9 -1 13 5 3 13 17 17 31 5 14 10 20 12 14 2 -6 -1 -23 -7 -38z m2075 34 c4
-6 16 -8 28 -4 22 6 22 6 2 -10 -22 -17 -61 -21 -69 -7 -3 4 7 6 22 3 26 -4
26 -4 7 12 -11 8 -15 16 -8 16 6 0 15 -5 18 -10z m-1915 -15 c0 -8 -4 -15 -10
-15 -5 0 -10 7 -10 15 0 8 5 15 10 15 6 0 10 -7 10 -15z m2110 -20 c-7 -14
-17 -25 -21 -25 -5 0 0 13 9 29 20 36 31 32 12 -4z m-2700 16 c0 -5 -9 -11
-20 -14 -20 -5 -26 3 -13 16 9 10 33 8 33 -2z m80 -24 c0 -5 -4 -5 -10 -2 -5
3 -10 14 -10 23 0 15 2 15 10 2 5 -8 10 -19 10 -23z m385 23 c3 -5 1 -10 -4
-10 -6 0 -11 5 -11 10 0 6 2 10 4 10 3 0 8 -4 11 -10z m2695 0 c0 -5 -4 -10
-10 -10 -5 0 -10 5 -10 10 0 6 5 10 10 10 6 0 10 -4 10 -10z m-1254 -12 c5 -7
3 -8 -6 -3 -10 6 -12 2 -7 -15 4 -16 3 -20 -5 -12 -6 6 -8 18 -5 26 8 19 13
20 23 4z m33 -33 c0 -5 -4 -3 -9 5 -5 8 -9 22 -9 30 0 16 17 -16 18 -35z m715
20 c3 -8 0 -15 -7 -15 -9 0 -9 -2 0 -8 8 -5 8 -11 -1 -24 -11 -15 -12 -11 -12
22 1 41 9 52 20 25z m-3147 -17 c-3 -8 -6 -5 -6 6 -1 11 2 17 5 13 3 -3 4 -12
1 -19z m227 9 c14 -8 23 -17 19 -21 -3 -3 -15 2 -25 11 -17 15 -22 15 -41 3
-20 -12 -21 -12 -8 3 16 20 21 21 55 4z m183 -14 c1 -22 -1 -24 -8 -10 -6 9
-7 22 -4 27 9 14 10 13 12 -17z m543 17 c0 -5 -2 -10 -4 -10 -3 0 -8 5 -11 10
-3 6 -1 10 4 10 6 0 11 -4 11 -10z m2680 6 c0 -3 -4 -8 -10 -11 -5 -3 -10 -1
-10 4 0 6 5 11 10 11 6 0 10 -2 10 -4z m47 -2 c-3 -3 -12 -4 -19 -1 -8 3 -5 6
6 6 11 1 17 -2 13 -5z m-3222 -14 c3 -5 -3 -10 -14 -10 -12 0 -21 5 -21 10 0
6 6 10 14 10 8 0 18 -4 21 -10z m95 -34 c0 -3 -6 -6 -14 -6 -15 0 -28 24 -19
34 6 5 33 -18 33 -28z m1473 5 c3 -12 0 -18 -7 -15 -6 2 -12 13 -12 24 0 23
12 17 19 -9z m1077 25 c0 -3 -4 -8 -10 -11 -5 -3 -10 -1 -10 4 0 6 5 11 10 11
6 0 10 -2 10 -4z m508 -5 c10 -6 10 -10 -3 -21 -13 -11 -14 -10 -9 4 5 12 2
15 -12 9 -12 -4 -15 -3 -10 5 8 14 16 15 34 3z m98 -18 c-10 -10 -19 5 -10 18
6 11 8 11 12 0 2 -7 1 -15 -2 -18z m-2618 -5 c-17 -25 -40 -30 -44 -10 -1 7 0
8 3 2 8 -16 20 -12 26 10 3 11 11 20 17 20 9 0 8 -6 -2 -22z m-1108 -3 c0 -8
-2 -15 -4 -15 -2 0 -6 7 -10 15 -3 8 -1 15 4 15 6 0 10 -7 10 -15z m405 5 c4
-6 -7 -10 -25 -10 -18 0 -29 4 -25 10 3 6 15 10 25 10 10 0 22 -4 25 -10z
m-129 -9 c8 7 14 7 14 1 0 -5 -6 -14 -13 -20 -17 -14 -42 1 -31 19 6 10 9 10
12 1 3 -10 7 -10 18 -1z m58 -6 c-4 -11 1 -15 17 -16 17 -1 13 -4 -11 -8 -43
-8 -40 -10 -33 17 3 12 11 22 19 22 8 0 11 -6 8 -15z m141 5 c3 -5 -3 -10 -15
-10 -12 0 -18 5 -15 10 3 6 10 10 15 10 5 0 12 -4 15 -10z m1942 -27 c-3 -10
-5 -4 -5 12 0 17 2 24 5 18 2 -7 2 -21 0 -30z m1183 16 c0 -5 -4 -9 -10 -9 -5
0 -10 7 -10 16 0 8 5 12 10 9 6 -3 10 -10 10 -16z m-3170 -9 c0 -5 -10 -10
-22 -9 -22 0 -22 1 -3 9 11 5 21 9 23 9 1 1 2 -3 2 -9z m80 6 c0 -3 -4 -8 -10
-11 -5 -3 -10 -1 -10 4 0 6 5 11 10 11 6 0 10 -2 10 -4z m2010 -41 c0 -3 -4
-13 -10 -23 -8 -14 -9 -12 -4 11 4 16 2 27 -5 27 -6 0 -8 7 -4 17 5 14 8 13
14 -6 5 -11 9 -24 9 -26z m1110 15 c-18 -11 -22 -7 -14 14 5 13 10 14 18 6 8
-8 7 -13 -4 -20z m117 0 c-12 -32 -27 -40 -27 -15 0 8 5 15 11 15 5 0 8 4 5 9
-4 5 0 12 6 14 7 3 14 6 15 6 1 1 -4 -12 -10 -29z m-3770 -12 c-3 -7 -5 -2 -5
12 0 14 2 19 5 13 2 -7 2 -19 0 -25z m35 5 c-5 -24 -6 -25 -12 -8 -6 16 2 33
16 35 1 0 -1 -12 -4 -27z m545 -9 c1 -20 0 -22 -4 -6 -2 12 -9 22 -15 22 -6 0
-8 -12 -4 -31 5 -27 4 -30 -9 -19 -18 15 -19 42 -3 58 19 19 33 9 35 -24z
m1829 -2 c-15 -15 -15 -15 -4 10 7 15 15 23 17 17 2 -6 -4 -18 -13 -27z
m-2153 21 c-7 -2 -19 -2 -25 0 -7 3 -2 5 12 5 14 0 19 -2 13 -5z m240 0 c-7
-2 -19 -2 -25 0 -7 3 -2 5 12 5 14 0 19 -2 13 -5z m497 -22 c5 -11 10 -26 9
-33 0 -7 -6 -2 -12 12 -6 14 -16 28 -22 32 -6 5 -6 8 2 8 7 0 17 -9 23 -19z
m30 15 c0 -3 -4 -8 -10 -11 -5 -3 -10 -1 -10 4 0 6 5 11 10 11 6 0 10 -2 10
-4z m1035 -6 c3 -5 1 -10 -4 -10 -6 0 -11 5 -11 10 0 6 2 10 4 10 3 0 8 -4 11
-10z m1075 0 c0 -5 -2 -10 -4 -10 -3 0 -8 5 -11 10 -3 6 -1 10 4 10 6 0 11 -4
11 -10z m746 -19 c-4 -6 -13 -11 -19 -11 -8 0 -7 3 2 9 8 5 10 14 6 22 -6 11
-5 11 5 2 7 -6 9 -16 6 -22z m1384 -39 c-5 -29 -8 -64 -6 -80 2 -15 1 -18 -1
-8 -4 16 -7 17 -15 5 -7 -10 -7 -5 -2 16 9 40 12 63 13 105 1 23 4 31 11 24 7
-7 7 -27 0 -62z m-6823 -4 c-2 -13 -4 -5 -4 17 -1 22 1 32 4 23 2 -10 2 -28 0
-40z m2513 42 c0 -5 -4 -10 -10 -10 -5 0 -10 5 -10 10 0 6 5 10 10 10 6 0 10
-4 10 -10z m1630 -21 c0 -6 -5 -7 -12 -3 -8 5 -9 2 -4 -11 5 -15 4 -16 -9 -5
-12 10 -15 10 -15 0 0 -8 -3 -10 -7 -7 -3 4 2 15 13 26 19 18 34 19 34 0z
m-1663 -14 c-15 -16 -19 -13 -11 9 3 9 10 13 15 10 5 -3 3 -11 -4 -19z m2558
14 c11 -17 -1 -21 -15 -4 -8 9 -8 15 -2 15 6 0 14 -5 17 -11z m-3438 -21 c-3
-8 -6 -5 -6 6 -1 11 2 17 5 13 3 -3 4 -12 1 -19z m-57 -3 c0 -8 -4 -15 -10
-15 -5 0 -7 7 -4 15 4 8 8 15 10 15 2 0 4 -7 4 -15z m1460 5 c-8 -5 -26 -9
-40 -9 l-25 1 25 8 c14 4 32 8 40 9 13 1 13 0 0 -9z m-406 -32 c-10 -51 -25
-80 -18 -38 3 19 6 43 7 53 1 9 5 17 10 17 5 0 5 -15 1 -32z m1365 -7 c-14 -4
-30 19 -22 33 3 5 12 1 20 -10 10 -13 10 -20 2 -23z m241 -3 c0 -4 -9 0 -20 9
-11 10 -20 21 -20 25 0 4 9 0 20 -9 11 -10 20 -21 20 -25z m-1690 -12 c0 -9
-4 -16 -10 -16 -5 0 -10 9 -10 20 0 14 -7 20 -22 21 -22 0 -22 1 -3 8 22 9 45
-8 45 -33z m51 13 c-5 -13 -10 -19 -10 -12 -1 15 10 45 15 40 3 -2 0 -15 -5
-28z m4229 26 c0 -3 -9 -22 -20 -42 -16 -31 -20 -33 -20 -15 0 12 5 22 10 22
6 0 10 9 10 20 0 11 5 20 10 20 6 0 10 -2 10 -5z m-5603 -20 c8 -9 12 -19 8
-23 -4 -4 -10 -1 -12 6 -3 6 -12 12 -21 12 -9 0 -24 5 -32 10 -12 8 -9 10 13
10 16 0 35 -7 44 -15z m2376 8 c-7 -2 -21 -2 -30 0 -10 3 -4 5 12 5 17 0 24
-2 18 -5z m1871 -2 c3 -4 -6 -6 -19 -3 -14 2 -25 6 -25 8 0 8 39 4 44 -5z
m-3914 -11 c0 -5 -5 -10 -11 -10 -5 0 -7 5 -4 10 3 6 8 10 11 10 2 0 4 -4 4
-10z m77 -22 c-3 -7 -5 -2 -5 12 0 14 2 19 5 13 2 -7 2 -19 0 -25z m513 28 c0
-3 -4 -8 -10 -11 -5 -3 -10 -1 -10 4 0 6 5 11 10 11 6 0 10 -2 10 -4z m-550
-16 c0 -5 -4 -10 -10 -10 -5 0 -10 5 -10 10 0 6 5 10 10 10 6 0 10 -4 10 -10z
m3880 -11 c0 -4 -7 -6 -15 -3 -8 4 -15 10 -15 15 0 4 7 6 15 3 8 -4 15 -10 15
-15z m-4285 1 c19 -8 19 -9 -2 -9 -12 -1 -25 4 -28 9 -7 12 2 12 30 0z m982
-12 c-3 -8 -6 -5 -6 6 -1 11 2 17 5 13 3 -3 4 -12 1 -19z m340 -11 c2 -35 -3
-34 -16 4 -8 23 -8 30 2 26 6 -2 13 -16 14 -30z m1110 27 c-3 -3 -12 -4 -19
-1 -8 3 -5 6 6 6 11 1 17 -2 13 -5z m373 -14 l20 -20 -20 0 c-11 0 -20 5 -20
10 0 19 -21 10 -30 -12 -7 -20 -8 -19 -7 9 2 39 26 44 57 13z m237 -7 c-9 -9
-20 -13 -24 -9 -4 4 -1 11 7 16 25 16 35 11 17 -7z m1208 7 c16 -7 12 -8 -17
-7 -20 1 -34 5 -31 10 5 9 22 8 48 -3z m-3872 -25 c-7 -21 -13 -19 -13 6 0 11
4 18 10 14 5 -3 7 -12 3 -20z m3103 16 c-4 -5 -1 -11 5 -13 9 -3 9 -11 0 -33
l-11 -30 4 28 c2 15 -1 30 -5 33 -5 3 -9 -2 -9 -10 0 -9 -5 -16 -11 -16 -10 0
-5 13 14 38 11 14 21 17 13 3z m-4638 -26 c-3 -3 -9 2 -12 12 -6 14 -5 15 5 6
7 -7 10 -15 7 -18z m1142 21 c0 -3 -4 -8 -10 -11 -5 -3 -10 -1 -10 4 0 6 5 11
10 11 6 0 10 -2 10 -4z m975 -7 c11 -16 1 -19 -13 -3 -7 8 -8 14 -3 14 5 0 13
-5 16 -11z m325 1 c0 -5 -5 -10 -11 -10 -10 0 -35 -58 -31 -72 1 -5 -2 -8 -8
-8 -14 0 -13 23 2 38 8 8 8 15 -3 28 -12 16 -12 17 4 11 11 -4 20 -1 23 8 7
17 24 20 24 5z m4287 -12 c-3 -8 -6 -5 -6 6 -1 11 2 17 5 13 3 -3 4 -12 1 -19z
m-5157 2 c0 -5 -4 -10 -10 -10 -5 0 -10 5 -10 10 0 6 5 10 10 10 6 0 10 -4 10
-10z m1457 4 c-3 -3 -12 -4 -19 -1 -8 3 -5 6 6 6 11 1 17 -2 13 -5z m868 -53
c3 -6 1 -11 -4 -11 -6 0 -11 7 -11 15 0 8 -4 15 -9 15 -5 0 -6 10 -3 22 5 22
6 22 13 -4 4 -14 10 -31 14 -37z m-2405 29 c0 -5 -5 -10 -11 -10 -5 0 -7 5 -4
10 3 6 8 10 11 10 2 0 4 -4 4 -10z m1074 -6 c3 -8 2 -12 -4 -9 -6 3 -10 10
-10 16 0 14 7 11 14 -7z m312 -30 c-3 -8 -11 -14 -18 -14 -9 0 -9 3 0 12 7 7
13 21 13 33 1 17 2 18 6 2 3 -10 2 -25 -1 -33z m3904 13 c0 -20 -1 -20 -16 -5
-9 9 -13 21 -9 27 10 16 25 3 25 -22z m-5610 13 c0 -5 -4 -10 -10 -10 -5 0
-10 5 -10 10 0 6 5 10 10 10 6 0 10 -4 10 -10z m2747 -12 c-3 -8 -6 -5 -6 6
-1 11 2 17 5 13 3 -3 4 -12 1 -19z m-892 2 c3 -5 -1 -10 -9 -10 -9 0 -16 5
-16 10 0 6 4 10 9 10 6 0 13 -4 16 -10z m602 -22 c-3 -7 -5 -2 -5 12 0 14 2
19 5 13 2 -7 2 -19 0 -25z m1046 12 c3 -11 10 -20 16 -20 6 0 8 8 5 18 -5 14
-4 14 4 2 11 -15 7 -30 -8 -30 -11 0 -40 29 -40 41 0 17 18 9 23 -11z m667 10
c0 -5 -2 -10 -4 -10 -3 0 -8 5 -11 10 -3 6 -1 10 4 10 6 0 11 -4 11 -10z
m-2017 -12 c3 -9 -7 -14 -27 -15 l-31 -2 25 13 c14 8 26 14 26 15 1 1 4 -5 7
-11z m1027 2 c8 -5 11 -10 5 -10 -5 0 -17 5 -25 10 -8 5 -10 10 -5 10 6 0 17
-5 25 -10z m210 -24 c-13 -6 -28 -5 -42 2 -20 10 -19 10 10 5 18 -3 32 -2 31
3 -4 21 2 28 11 14 7 -11 4 -17 -10 -24z m57 28 c-3 -3 -12 -4 -19 -1 -8 3 -5
6 6 6 11 1 17 -2 13 -5z m-3067 -14 c0 -5 -4 -10 -10 -10 -5 0 -10 5 -10 10 0
6 5 10 10 10 6 0 10 -4 10 -10z m40 0 c0 -5 -4 -10 -10 -10 -5 0 -10 5 -10 10
0 6 5 10 10 10 6 0 10 -4 10 -10z m850 0 c0 -5 -4 -10 -10 -10 -5 0 -10 5 -10
10 0 6 5 10 10 10 6 0 10 -4 10 -10z m1973 3 c-7 -2 -19 -2 -25 0 -7 3 -2 5
12 5 14 0 19 -2 13 -5z m-3182 -21 c-12 -22 -41 -48 -41 -36 0 8 40 54 47 54
2 0 -1 -8 -6 -18z m944 8 c8 -13 -5 -13 -25 0 -13 8 -13 10 2 10 9 0 20 -4 23
-10z m2448 3 c-7 -2 -19 -2 -25 0 -7 3 -2 5 12 5 14 0 19 -2 13 -5z m727 -3
c12 -8 11 -10 -7 -10 -13 0 -23 5 -23 10 0 13 11 13 30 0z m-3910 -10 c0 -5
-5 -10 -11 -10 -5 0 -7 5 -4 10 3 6 8 10 11 10 2 0 4 -4 4 -10z m1125 0 c-8
-12 -85 -13 -85 -1 0 5 20 9 45 9 27 1 43 -3 40 -8z m30 -40 c1 -16 -2 -30 -6
-30 -4 0 -7 16 -6 35 1 41 9 38 12 -5z m225 20 c0 -4 -7 -11 -16 -14 -13 -5
-15 -16 -12 -49 3 -23 3 -34 1 -24 -3 9 -9 17 -14 17 -12 0 0 52 14 61 5 4 7
12 3 18 -5 7 -1 9 8 5 9 -3 16 -10 16 -14z m190 5 c0 -8 -4 -15 -10 -15 -5 0
-10 7 -10 15 0 8 5 15 10 15 6 0 10 -7 10 -15z m2185 5 c-3 -5 -14 -10 -23 -9
-14 0 -13 2 3 9 27 11 27 11 20 0z m1540 0 c3 -5 1 -10 -4 -10 -6 0 -11 5 -11
10 0 6 2 10 4 10 3 0 8 -4 11 -10z m-3885 -10 c0 -5 -4 -10 -10 -10 -5 0 -10
5 -10 10 0 6 5 10 10 10 6 0 10 -4 10 -10z m455 0 c-11 -5 -27 -9 -35 -9 -9 0
-8 4 5 9 11 5 27 9 35 9 9 0 8 -4 -5 -9z m523 -15 c-3 -3 -9 2 -12 12 -6 14
-5 15 5 6 7 -7 10 -15 7 -18z m680 13 c-6 -18 -28 -21 -28 -4 0 9 7 16 16 16
9 0 14 -5 12 -12z m172 2 c0 -5 -4 -10 -10 -10 -5 0 -10 5 -10 10 0 6 5 10 10
10 6 0 10 -4 10 -10z m620 1 c0 -6 -4 -13 -10 -16 -5 -3 -10 1 -10 9 0 9 5 16
10 16 6 0 10 -4 10 -9z m-3995 -19 c-3 -3 -11 0 -18 7 -9 10 -8 11 6 5 10 -3
15 -9 12 -12z m1767 -32 c9 0 9 3 0 12 -7 7 -12 16 -12 22 0 5 6 1 14 -9 17
-24 10 -45 -16 -45 -10 0 -16 5 -13 10 3 6 1 10 -4 10 -6 0 -11 12 -11 28 l1
27 15 -27 c8 -16 20 -28 26 -28z m-726 14 c-11 -7 -22 -11 -25 -8 -3 3 3 12
13 20 11 7 22 11 25 8 3 -3 -3 -12 -13 -20z m2832 13 c-16 -6 -28 -15 -28 -20
0 -4 -5 -5 -12 -1 -8 5 -2 12 17 20 17 7 35 13 40 12 6 0 -2 -5 -17 -11z
m1589 -19 c-3 -7 -5 -2 -5 12 0 14 2 19 5 13 2 -7 2 -19 0 -25z m-5463 -7 c-2
-3 -12 3 -22 13 -16 17 -16 18 5 5 12 -7 20 -15 17 -18z m85 25 c-2 -2 -20 -6
-39 -10 -25 -4 -31 -3 -20 4 14 9 69 15 59 6z m867 -11 c-11 -8 -24 -15 -30
-15 -5 0 -1 7 10 15 10 8 24 14 29 14 6 0 1 -6 -9 -14z m1472 3 c-3 -7 -12
-14 -22 -14 -13 -2 -13 -1 -1 3 8 2 13 9 10 14 -4 5 -1 9 5 9 7 0 10 -6 8 -12z
m82 3 c0 -5 -9 -11 -21 -14 -16 -4 -18 -3 -8 9 13 16 29 19 29 5z m2927 -13
c-3 -8 -6 -5 -6 6 -1 11 2 17 5 13 3 -3 4 -12 1 -19z m-5307 2 c-8 -5 -26 -9
-40 -9 -23 1 -23 2 5 9 43 11 52 11 35 0z m1865 -1 c18 -9 18 -9 -3 -5 -16 3
-25 -1 -30 -15 -7 -19 -8 -19 -25 2 -18 20 -18 21 2 14 12 -4 21 -2 21 4 0 13
8 13 35 0z m-908 -5 c-3 -3 -12 -4 -19 -1 -8 3 -5 6 6 6 11 1 17 -2 13 -5z
m450 0 c-3 -3 -12 -4 -19 -1 -8 3 -5 6 6 6 11 1 17 -2 13 -5z m288 -4 c3 -6
-1 -7 -9 -4 -18 7 -21 14 -7 14 6 0 13 -4 16 -10z m1915 -16 c0 -8 -4 -12 -10
-9 -5 3 -10 13 -10 21 0 8 5 12 10 9 6 -3 10 -13 10 -21z m75 16 c-3 -5 -11
-10 -16 -10 -6 0 -7 5 -4 10 3 6 11 10 16 10 6 0 7 -4 4 -10z m-4982 -7 c-7
-2 -19 -2 -25 0 -7 3 -2 5 12 5 14 0 19 -2 13 -5z m2515 -5 c15 -15 16 -28 2
-28 -5 0 -10 6 -10 14 0 8 -6 17 -12 19 -7 3 -8 6 -2 6 5 1 15 -4 22 -11z
m2185 5 c-7 -2 -19 -2 -25 0 -7 3 -2 5 12 5 14 0 19 -2 13 -5z m117 -3 c0 -5
-7 -10 -16 -10 -8 0 -12 5 -9 10 3 6 10 10 16 10 5 0 9 -4 9 -10z m-4885 -37
c29 -43 34 -67 8 -37 -19 21 -43 60 -43 69 0 13 11 2 35 -32z m3095 32 c0 -13
-50 -58 -56 -52 -4 4 -2 7 4 7 7 0 12 5 12 10 0 6 -7 10 -16 10 -8 0 -12 5 -9
10 4 6 15 8 26 5 11 -4 19 -2 19 4 0 6 5 11 10 11 6 0 10 -2 10 -5z m1915 -5
c3 -5 1 -10 -4 -10 -6 0 -11 5 -11 10 0 6 2 10 4 10 3 0 8 -4 11 -10z m-4975
-22 c0 -13 -23 -5 -28 10 -2 7 2 10 12 6 9 -3 16 -11 16 -16z m2610 12 c0 -5
-4 -10 -10 -10 -5 0 -10 5 -10 10 0 6 5 10 10 10 6 0 10 -4 10 -10z m2200 -1
c0 -11 -27 -12 -34 -1 -2 4 4 9 15 9 10 1 19 -2 19 -8z m-4750 -9 c0 -5 -4
-10 -10 -10 -5 0 -10 5 -10 10 0 6 5 10 10 10 6 0 10 -4 10 -10z m2573 -20 c3
-11 1 -18 -4 -14 -5 3 -9 12 -9 20 0 20 7 17 13 -6z m347 10 c0 -5 -4 -10 -10
-10 -5 0 -10 5 -10 10 0 6 5 10 10 10 6 0 10 -4 10 -10z m1755 0 c3 -5 -1 -10
-9 -10 -8 0 -18 5 -21 10 -3 6 1 10 9 10 8 0 18 -4 21 -10z m1900 0 c3 -5 1
-10 -4 -10 -6 0 -11 5 -11 10 0 6 2 10 4 10 3 0 8 -4 11 -10z m-1842 -17 c-7
-2 -21 -2 -30 0 -10 3 -4 5 12 5 17 0 24 -2 18 -5z m-4738 -33 c3 -5 1 -10 -4
-10 -6 0 -11 5 -11 10 0 6 2 10 4 10 3 0 8 -4 11 -10z m5 -47 c0 -7 0 -16 1
-20 0 -4 -4 -9 -11 -11 -6 -2 -10 0 -9 5 4 21 -2 31 -21 36 -11 3 -20 10 -20
15 0 7 11 6 30 -1 17 -6 30 -17 30 -24z m2128 -20 c-10 -2 -26 -2 -35 0 -10 3
-2 5 17 5 19 0 27 -2 18 -5z m1149 1 c-3 -3 -12 -4 -19 -1 -8 3 -5 6 6 6 11 1
17 -2 13 -5z m-2671 -22 c-21 -2 -42 0 -47 5 -4 4 13 6 39 3 l47 -5 -39 -3z
m2609 8 c-11 -5 -38 -8 -60 -8 l-40 1 45 7 c64 10 78 10 55 0z m1788 3 c-7 -2
-21 -2 -30 0 -10 3 -4 5 12 5 17 0 24 -2 18 -5z m-4329 -11 c3 -5 -1 -9 -9 -9
-8 0 -15 4 -15 9 0 4 4 8 9 8 6 0 12 -4 15 -8z m1006 -2 c0 -5 -2 -10 -4 -10
-3 0 -8 5 -11 10 -3 6 -1 10 4 10 6 0 11 -4 11 -10z m468 3 c-10 -2 -26 -2
-35 0 -10 3 -2 5 17 5 19 0 27 -2 18 -5z m62 -3 c0 -5 -4 -10 -10 -10 -5 0
-10 5 -10 10 0 6 5 10 10 10 6 0 10 -4 10 -10z m1067 4 c-3 -3 -12 -4 -19 -1
-8 3 -5 6 6 6 11 1 17 -2 13 -5z m141 -6 c-3 -7 -11 -13 -18 -13 -7 0 -15 6
-17 13 -3 7 4 12 17 12 13 0 20 -5 18 -12z m392 2 c0 -5 -4 -10 -10 -10 -5 0
-10 5 -10 10 0 6 5 10 10 10 6 0 10 -4 10 -10z m808 3 c-10 -2 -28 -2 -40 0
-13 2 -5 4 17 4 22 1 32 -1 23 -4z m565 0 c-13 -2 -33 -2 -45 0 -13 2 -3 4 22
4 25 0 35 -2 23 -4z m103 -8 c9 -8 11 -15 6 -15 -5 0 -15 7 -22 15 -7 8 -9 15
-6 15 4 0 14 -7 22 -15z m64 11 c0 -3 -4 -8 -10 -11 -5 -3 -10 -1 -10 4 0 6 5
11 10 11 6 0 10 -2 10 -4z m535 -6 c3 -5 2 -10 -4 -10 -5 0 -13 5 -16 10 -3 6
-2 10 4 10 5 0 13 -4 16 -10z m-65 -10 c11 6 20 7 20 3 0 -5 -9 -14 -20 -21
-16 -10 -24 -10 -40 0 -11 7 -20 16 -20 21 0 4 9 3 20 -3 14 -8 26 -8 40 0z
m-5815 -10 c3 -5 1 -10 -4 -10 -6 0 -11 5 -11 10 0 6 2 10 4 10 3 0 8 -4 11
-10z m422 4 c-3 -3 -12 -4 -19 -1 -8 3 -5 6 6 6 11 1 17 -2 13 -5z m1833 2 c0
-2 -7 -9 -15 -16 -13 -11 -14 -10 -9 4 5 14 24 23 24 12z m1685 -6 c-3 -5 -10
-10 -16 -10 -5 0 -9 5 -9 10 0 6 7 10 16 10 8 0 12 -4 9 -10z m55 0 c0 -5 -4
-10 -9 -10 -6 0 -13 5 -16 10 -3 6 1 10 9 10 9 0 16 -4 16 -10z m1920 -10 c0
-5 -2 -10 -4 -10 -3 0 -8 5 -11 10 -3 6 -1 10 4 10 6 0 11 -4 11 -10z m-5278
-22 c-5 -21 -4 -21 19 -5 31 22 51 21 82 -3 17 -13 24 -27 21 -38 -5 -14 -3
-14 10 2 8 10 13 22 11 26 -2 4 1 7 8 8 7 1 25 4 40 8 22 5 34 1 54 -17 19
-17 24 -19 20 -7 -3 10 0 19 9 22 37 14 42 7 45 -74 4 -84 17 -112 42 -91 10
8 15 34 16 82 0 39 3 75 7 80 7 13 144 12 144 -1 0 -6 11 -3 25 6 28 19 53 13
84 -20 17 -18 21 -29 13 -42 -9 -15 -11 -15 -31 5 -22 22 -51 25 -58 6 -4 -13
51 -46 69 -42 7 2 10 2 6 0 -3 -2 1 -17 10 -33 l17 -29 25 77 c20 61 29 77 45
77 15 0 25 -16 45 -67 19 -49 29 -65 39 -59 10 7 11 14 2 32 -10 20 -7 18 13
-6 14 -16 26 -34 26 -40 0 -5 -4 -4 -9 4 -16 25 -43 -6 -36 -40 4 -16 2 -36
-3 -44 -8 -15 -11 -14 -24 7 -8 13 -18 33 -22 46 -11 33 -61 28 -60 -5 0 -13
-3 -23 -7 -23 -4 0 -11 -9 -14 -21 -7 -20 -7 -20 -23 -1 -14 15 -20 17 -29 7
-8 -9 -9 -15 0 -24 8 -8 5 -11 -13 -11 -13 0 -20 3 -16 7 14 14 -68 28 -135
23 -121 -9 -158 -2 -181 34 l-19 31 6 -31 c4 -23 2 -33 -9 -37 -9 -4 -17 -3
-20 1 -7 11 -75 2 -83 -11 -4 -6 2 -8 15 -5 13 4 20 2 16 -4 -3 -5 -17 -7 -30
-4 -13 4 -24 2 -24 -3 0 -6 -7 -8 -15 -5 -8 4 -15 10 -15 15 0 4 7 6 15 3 10
-4 15 0 16 12 0 11 3 14 6 6 2 -6 9 -9 15 -6 5 4 3 13 -7 24 -15 17 -17 17
-41 -7 -21 -21 -31 -24 -62 -19 -54 9 -102 7 -112 -5 -3 -3 -19 -2 -37 3 -26
7 -33 15 -39 43 -3 20 -4 45 -2 58 l4 22 -42 -20 c-23 -11 -42 -22 -42 -25 0
-64 -2 -70 -29 -70 -24 -1 -26 -2 -12 -13 8 -7 18 -21 22 -32 7 -19 6 -19 -7
-2 -16 20 -32 22 -39 5 -4 -10 -7 -10 -18 0 -11 10 -10 12 4 12 10 0 17 8 17
20 0 11 5 20 11 20 7 0 9 35 7 104 -2 57 -1 104 2 104 3 -1 12 2 21 6 9 4 35
1 57 -7 35 -12 43 -12 53 -1 6 7 37 15 72 17 34 2 63 4 64 5 0 1 -1 -8 -5 -20z
m3212 -23 c13 -32 13 -36 1 -20 -8 11 -18 25 -23 30 -5 6 -7 16 -4 23 5 17 7
15 26 -33z m1497 9 c18 -16 19 -16 19 -1 0 15 17 17 142 17 118 0 145 -3 160
-17 10 -9 18 -19 18 -24 0 -4 11 -26 24 -50 l24 -42 -5 67 c-5 66 -5 68 18 64
18 -2 25 -11 29 -33 4 -24 7 -26 12 -12 4 9 5 25 2 35 -4 12 -3 13 3 4 7 -9
14 -8 30 8 12 11 23 15 25 9 2 -5 13 -11 26 -12 12 0 22 -5 22 -10 0 -4 4 -5
10 -2 6 3 7 -1 4 -9 -3 -9 -1 -16 5 -16 6 0 8 -7 5 -15 -4 -8 -1 -15 5 -15 6
0 11 -4 11 -9 0 -15 -51 1 -63 20 -24 39 -57 9 -57 -51 0 -60 32 -89 60 -55
16 19 11 24 -22 27 -39 3 -21 42 21 46 38 4 61 -12 61 -42 1 -11 12 14 26 56
l25 77 37 -1 c20 -1 31 -3 24 -6 -6 -2 -12 -9 -12 -16 0 -17 24 -66 32 -66 4
0 5 -6 2 -13 -2 -7 2 -32 11 -56 19 -56 19 -61 -4 -61 -13 0 -23 11 -31 35
-10 29 -16 35 -40 35 -29 0 -39 -17 -41 -70 0 -14 -3 -19 -6 -12 -2 6 -14 12
-25 12 -12 0 -18 5 -15 13 19 46 19 52 -2 27 -11 -14 -21 -30 -21 -35 0 -6
-17 -9 -39 -7 -21 2 -42 -1 -45 -7 -4 -6 -12 -11 -19 -11 -6 0 -3 6 6 13 15
11 14 14 -4 37 -12 14 -20 18 -19 10 7 -50 -29 -56 -57 -10 -9 17 -21 30 -25
30 -4 0 -7 3 -6 8 0 4 -4 18 -10 32 -9 22 -11 17 -11 -36 l-1 -62 -42 -3 c-66
-6 -112 4 -116 23 -2 11 5 19 20 23 21 5 23 11 23 70 l0 65 -41 0 -42 0 -1
-92 c-1 -51 -3 -93 -5 -95 -2 -2 -11 -1 -20 3 -13 5 -16 22 -16 95 l0 89 -30
0 c-16 0 -30 -4 -30 -8 0 -15 25 -62 33 -62 4 0 7 -4 7 -10 0 -5 -7 -7 -15 -4
-8 4 -15 15 -15 25 0 10 -2 19 -4 19 -2 0 -12 3 -22 7 -13 5 -15 3 -9 -8 5 -8
5 -11 -1 -6 -5 5 -10 13 -10 18 -1 5 -2 14 -3 19 -1 12 -48 14 -55 2 -8 -14
11 -35 24 -27 9 5 11 4 6 -3 -4 -7 -1 -12 7 -12 8 0 26 -9 41 -21 29 -23 35
-63 12 -94 -13 -18 -19 -19 -111 -15 -16 0 -46 -2 -65 -4 -19 -3 -54 -2 -78 1
-34 5 -46 11 -53 29 -4 13 -13 24 -18 24 -5 0 -7 9 -4 20 3 11 1 20 -5 20 -6
0 -12 -19 -14 -42 -3 -37 -7 -44 -27 -46 -17 -3 -20 -6 -11 -12 10 -6 8 -10
-7 -19 -25 -13 -66 10 -43 24 9 5 11 4 6 -3 -4 -7 -1 -12 7 -12 22 0 27 23 27
126 0 88 1 95 24 109 29 19 73 11 100 -19 13 -15 17 -16 13 -5 -3 9 0 22 6 28
16 16 99 14 124 -4 17 -12 23 -12 32 -1 6 7 8 16 5 19 -15 15 60 -14 77 -29z
m-3734 5 c12 -4 29 -21 37 -36 8 -15 15 -22 16 -14 0 25 42 61 69 61 29 -1 61
-21 61 -39 0 -7 10 0 23 14 14 16 32 27 47 26 43 -1 69 -5 65 -9 -2 -3 0 -13
6 -24 7 -14 7 -23 -2 -34 -10 -12 -8 -14 11 -12 13 2 25 -3 28 -12 5 -13 3
-13 -11 -1 -14 11 -17 11 -17 0 -1 -8 -14 1 -29 19 -29 34 -60 40 -69 14 -2
-8 12 -19 36 -29 51 -20 83 -72 64 -104 -7 -11 -11 -23 -8 -27 8 -14 -101 -7
-118 7 -21 17 -20 30 4 61 11 14 18 17 14 8 -6 -19 38 -54 56 -43 22 13 8 41
-29 58 -47 21 -51 21 -51 -2 0 -10 -11 -35 -25 -55 -30 -45 -32 -55 -5 -31 11
10 20 13 20 7 0 -6 -8 -16 -17 -22 -17 -11 -17 -11 -1 -6 21 6 34 -10 14 -17
-8 -3 -22 3 -32 14 -9 10 -27 19 -38 19 -25 0 -37 8 -57 37 l-16 23 -13 -25
c-7 -14 -20 -25 -28 -25 -12 0 -12 -3 -2 -15 8 -9 9 -15 2 -15 -6 0 -14 5 -17
10 -3 6 -24 10 -46 10 l-39 0 0 99 c0 132 9 143 97 110z m56 -16 c-6 -14 -8
-14 -14 3 -12 30 -10 37 5 24 8 -6 12 -19 9 -27z m482 23 c21 -20 -2 -36 -53
-36 -39 0 -43 -2 -40 -22 3 -22 42 -36 53 -18 12 19 22 1 17 -29 -2 -17 -9
-28 -14 -25 -6 4 -14 0 -19 -7 -6 -10 -9 -11 -9 -1 0 6 -7 12 -16 12 -11 0
-14 -8 -12 -27 2 -18 8 -27 18 -25 8 2 29 1 47 -3 44 -8 45 -35 0 -35 -17 0
-47 -4 -64 -9 -28 -8 -33 -7 -39 12 -12 35 -4 211 9 219 20 13 108 9 122 -6z
m157 -8 c-5 -20 -6 -21 -12 -3 -4 12 -9 15 -13 8 -4 -7 -3 -14 3 -18 15 -9 12
-45 -5 -51 -9 -4 -23 4 -34 17 -18 22 -21 23 -37 7 -19 -18 -22 -92 -4 -113
12 -14 50 -9 50 7 0 5 -5 6 -11 2 -7 -4 -10 -1 -7 7 3 9 15 13 33 11 24 -3 27
-1 22 18 -6 22 12 71 36 103 22 27 72 22 98 -10 l22 -28 -7 30 c-4 17 -3 25 2
17 7 -10 15 -9 40 3 25 13 36 14 54 4 13 -7 26 -17 30 -23 4 -6 14 -4 27 8 23
21 80 24 91 6 5 -8 10 -9 14 -2 4 7 78 10 205 10 109 0 204 3 210 7 7 4 43 4
81 0 l69 -7 26 -51 c14 -28 25 -59 25 -69 0 -45 31 6 64 105 3 11 13 17 23 15
15 -3 19 -17 21 -88 l3 -85 30 79 c21 58 26 82 17 87 -6 4 4 7 22 6 33 -2 35
-4 55 -67 25 -82 30 -90 57 -85 31 6 34 14 12 29 -14 11 -21 11 -27 3 -5 -8
-7 -7 -5 3 1 8 -3 24 -9 36 -17 29 -6 58 28 78 27 16 31 16 64 0 19 -9 36 -19
36 -23 8 -37 5 -47 -14 -46 -10 1 -23 9 -29 18 -13 23 -48 22 -48 -1 0 -13 13
-24 39 -34 77 -31 88 -98 20 -132 -28 -14 -36 -14 -60 -2 -16 8 -31 10 -34 6
-11 -18 -33 2 -39 36 -10 48 -46 48 -69 -1 -11 -23 -24 -35 -37 -35 -13 0 -18
-4 -14 -11 4 -8 0 -8 -15 0 -17 9 -21 22 -22 59 0 26 -3 40 -6 32 -20 -55 -37
-78 -59 -83 -13 -2 -27 0 -31 6 -4 6 -1 7 7 2 9 -6 10 -2 5 16 -15 48 -24 56
-25 21 0 -18 -5 -43 -11 -54 -8 -14 -8 -23 0 -31 8 -8 11 -8 11 1 0 7 5 12 11
12 8 0 8 -4 0 -14 -14 -16 -4 -46 14 -46 7 0 15 6 18 13 3 9 8 8 20 -3 15 -14
13 -15 -16 -14 -51 2 -59 3 -53 13 3 4 -3 19 -14 31 -16 18 -18 25 -8 32 16
10 17 10 -74 13 -51 2 -78 0 -78 -7 0 -6 -8 -4 -17 5 -12 10 -28 13 -45 10
-21 -4 -28 -1 -28 11 0 9 -6 16 -12 16 -9 0 -9 3 -2 8 6 4 10 37 10 75 0 65
-1 67 -24 67 -14 0 -31 8 -38 18 -10 12 -10 7 1 -21 11 -26 13 -43 6 -56 -6
-10 -6 -22 -2 -27 5 -5 11 -27 14 -49 3 -22 3 -34 0 -28 -3 9 -13 6 -33 -9
-20 -15 -36 -19 -57 -14 -49 10 -188 9 -209 -2 -16 -8 -27 -7 -49 7 -23 13
-34 15 -52 7 -13 -6 -23 -14 -23 -18 0 -12 -73 16 -83 33 -9 15 -12 16 -22 3
-6 -8 -27 -19 -46 -23 -32 -7 -38 -5 -59 21 l-22 28 -24 -25 c-15 -16 -34 -25
-54 -25 -17 0 -29 -5 -27 -11 1 -6 -4 -13 -11 -14 -7 -2 -8 -1 -2 2 7 3 1 22
-16 50 -53 91 -10 203 73 190 18 -3 35 -1 38 4 12 19 33 9 27 -13z m2383 12
c4 -6 10 -8 15 -5 14 9 40 -6 40 -23 0 -13 -3 -12 -15 4 -14 18 -16 18 -26 2
-7 -13 -23 -18 -54 -18 -41 0 -45 -2 -45 -23 0 -20 5 -24 31 -25 39 -1 46 -8
33 -30 -7 -11 -21 -16 -38 -14 -22 3 -26 0 -26 -22 0 -14 6 -26 13 -27 6 0 29
-2 50 -5 26 -3 37 -1 37 8 0 9 3 8 10 -2 6 -10 10 -11 10 -2 0 6 5 12 11 12 8
0 8 -5 -1 -15 -7 -8 -16 -12 -21 -9 -5 3 -9 0 -9 -5 0 -6 5 -11 10 -11 6 0 10
-3 10 -7 0 -5 -60 -7 -132 -6 -130 2 -133 3 -154 29 -18 22 -22 23 -28 9 -3
-9 -4 -20 -1 -25 3 -4 -2 -11 -11 -14 -8 -3 -13 -2 -10 3 4 5 -11 7 -33 4 -31
-4 -42 -1 -60 18 -15 16 -21 19 -21 8 0 -8 6 -21 13 -28 10 -11 9 -13 -6 -7
-10 3 -25 6 -32 6 -12 0 -45 46 -71 100 -11 23 -12 19 -13 -37 -1 -64 -7 -73
-48 -65 -15 3 -26 16 -33 38 -16 47 -53 48 -66 2 -7 -23 -17 -34 -39 -39 -41
-12 -56 4 -50 55 l4 41 -16 -32 c-15 -29 -14 -33 4 -60 23 -32 38 -93 23 -93
-9 0 -11 7 -14 52 -1 19 -16 37 -16 20 0 -7 -7 -12 -15 -12 -8 0 -15 5 -15 11
0 5 4 8 9 5 10 -7 23 19 14 28 -4 3 -12 1 -19 -5 -21 -17 -41 -4 -49 30 -9 44
-21 46 -22 4 0 -19 -5 -39 -11 -45 -22 -22 -32 5 -32 92 0 110 -4 122 -39 114
-14 -4 -23 -3 -18 2 4 4 25 9 47 10 46 2 59 -12 86 -96 l17 -53 28 63 c16 34
27 66 24 70 -5 9 18 20 40 20 11 0 15 -20 17 -82 l3 -83 26 80 c20 63 30 80
45 80 15 0 24 -16 41 -69 13 -38 25 -72 29 -75 3 -3 5 23 4 59 -1 36 -1 71 -1
78 1 17 21 15 44 -5 19 -17 20 -17 14 0 -4 11 -3 16 4 12 5 -4 8 -14 5 -23 -3
-10 6 -37 20 -62 l25 -45 -4 68 -5 67 28 -2 c22 -2 26 -6 23 -23 -4 -19 -4
-19 15 3 25 28 71 29 100 2 22 -21 33 -25 31 -12 -4 23 4 32 25 32 22 0 24 -3
16 -29 -14 -49 3 -151 25 -151 22 0 29 20 31 95 1 38 2 73 3 77 3 16 157 23
166 8z m193 4 c12 -4 22 -14 22 -24 0 -10 6 -20 13 -23 7 -2 8 -8 3 -13 -5 -5
-11 -4 -13 4 -3 7 -24 12 -54 12 -46 0 -49 -2 -49 -25 0 -21 5 -25 23 -24 44
4 57 -1 57 -21 0 -11 -7 -20 -15 -20 -13 0 -19 -11 -17 -31 1 -3 -6 -6 -14 -6
-10 0 -11 4 -4 11 21 21 8 34 -19 17 -8 -5 -11 -16 -7 -29 6 -17 14 -20 51
-17 38 2 45 0 45 -16 0 -14 -8 -19 -32 -20 -18 -1 -46 -2 -61 -3 -49 -3 -50 4
-48 183 1 29 6 41 19 44 26 7 74 7 100 1z m-4532 -31 c-10 -10 -19 5 -10 18 6
11 8 11 12 0 2 -7 1 -15 -2 -18z m641 -5 c-3 -7 -5 -2 -5 12 0 14 2 19 5 13 2
-7 2 -19 0 -25z m513 23 c0 -6 -4 -13 -10 -16 -5 -3 -10 1 -10 9 0 9 5 16 10
16 6 0 10 -4 10 -9z m479 -8 c-7 -8 -15 -10 -18 -6 -4 4 -10 11 -14 14 -4 4 4
7 18 7 21 0 23 -3 14 -15z m2025 -16 c-6 -17 -24 -14 -24 4 0 6 5 7 12 3 8 -5
9 -1 4 12 -5 14 -4 16 4 8 6 -6 8 -18 4 -27z m941 17 c-9 -9 -19 -13 -23 -10
-3 4 0 11 8 16 24 15 33 11 15 -6z m982 -6 c-3 -8 -6 -5 -6 6 -1 11 2 17 5 13
3 -3 4 -12 1 -19z m31 -3 c-3 -3 -9 2 -12 12 -6 14 -5 15 5 6 7 -7 10 -15 7
-18z m492 21 c0 -3 -4 -8 -10 -11 -5 -3 -10 -1 -10 4 0 6 5 11 10 11 6 0 10
-2 10 -4z m-5137 -39 c-7 -11 -23 2 -23 19 0 12 2 12 14 2 8 -7 12 -16 9 -21z
m2137 19 c0 -3 -4 -8 -10 -11 -5 -3 -10 -1 -10 4 0 6 5 11 10 11 6 0 10 -2 10
-4z m445 -15 c-3 -6 -11 -11 -16 -11 -5 0 -4 6 3 14 14 16 24 13 13 -3z
m-3830 -9 c-3 -3 -11 0 -18 7 -9 10 -8 11 6 5 10 -3 15 -9 12 -12z m1916 -9
c-12 -20 -14 -14 -5 12 4 9 9 14 11 11 3 -2 0 -13 -6 -23z m1369 15 c0 -4 -11
-8 -25 -8 -14 0 -25 4 -25 8 0 4 11 8 25 8 14 0 25 -4 25 -8z m-3010 -18 c0
-5 -7 -10 -16 -10 -8 0 -12 5 -9 10 3 6 10 10 16 10 5 0 9 -4 9 -10z m5760
-47 c0 -16 -4 -21 -15 -17 -12 5 -13 10 -4 20 9 11 8 15 -4 20 -9 3 -18 12
-21 20 -4 11 0 10 19 -3 13 -10 25 -28 25 -40z m-3865 26 c0 -7 -9 -15 -20
-17 l-20 -4 20 17 c11 9 14 14 8 10 -7 -3 -13 -1 -13 5 0 7 6 10 13 8 6 -3 12
-11 12 -19z m2502 -27 c-4 -13 -5 -12 -6 5 -1 18 -6 21 -28 17 -20 -3 -24 -2
-13 5 8 5 18 7 22 5 4 -3 8 1 8 8 0 8 5 6 11 -5 6 -10 8 -25 6 -35z m-3440 16
c-3 -8 -6 -5 -6 6 -1 11 2 17 5 13 3 -3 4 -12 1 -19z m1683 18 c0 -3 -4 -8
-10 -11 -5 -3 -10 -1 -10 4 0 6 5 11 10 11 6 0 10 -2 10 -4z m895 -14 c-3 -3
-11 0 -18 7 -9 10 -8 11 6 5 10 -3 15 -9 12 -12z m-2885 -2 c0 -5 -5 -10 -11
-10 -5 0 -7 5 -4 10 3 6 8 10 11 10 2 0 4 -4 4 -10z m4510 -5 c0 -8 -4 -15
-10 -15 -5 0 -10 7 -10 15 0 8 5 15 10 15 6 0 10 -7 10 -15z m-5357 -23 c-3
-12 -9 -19 -14 -16 -5 3 -3 14 3 24 15 24 19 21 11 -8z m2117 24 c0 -9 -32
-36 -42 -36 -6 0 0 9 13 20 25 21 29 23 29 16z m4083 -3 c-7 -2 -19 -2 -25 0
-7 3 -2 5 12 5 14 0 19 -2 13 -5z m-1633 -13 c0 -5 -2 -10 -4 -10 -3 0 -8 5
-11 10 -3 6 -1 10 4 10 6 0 11 -4 11 -10z m220 -9 c7 -14 7 -22 -1 -26 -6 -4
-8 -18 -4 -33 l7 -27 -21 27 c-12 14 -21 32 -21 40 0 10 2 10 10 -2 14 -22 23
-5 10 19 -7 13 -7 21 -1 21 6 0 15 -9 21 -19z m-2970 -1 c0 -5 -2 -10 -4 -10
-3 0 -8 5 -11 10 -3 6 -1 10 4 10 6 0 11 -4 11 -10z m1782 -12 c-7 -7 -12 -8
-12 -2 0 14 12 26 19 19 2 -3 -1 -11 -7 -17z m1744 -15 c-10 -10 -19 5 -10 18
6 11 8 11 12 0 2 -7 1 -15 -2 -18z m-4496 7 c0 -5 -4 -10 -10 -10 -5 0 -10 5
-10 10 0 6 5 10 10 10 6 0 10 -4 10 -10z m993 -5 c4 -8 3 -16 -1 -19 -4 -3 -9
4 -9 15 -2 23 3 25 10 4z m2692 -5 c-10 -11 -20 -18 -23 -16 -5 6 21 35 32 36
5 0 1 -9 -9 -20z m852 -2 c-3 -8 -6 -5 -6 6 -1 11 2 17 5 13 3 -3 4 -12 1 -19z
m-3663 -3 c-4 -8 -11 -12 -16 -9 -6 4 -5 10 3 15 19 12 19 11 13 -6z m350 -1
c3 -8 2 -12 -4 -9 -6 3 -10 10 -10 16 0 14 7 11 14 -7z m757 -7 c-10 -9 -11
-8 -5 6 3 10 9 15 12 12 3 -3 0 -11 -7 -18z m1905 -4 c-10 -10 -19 5 -10 18 6
11 8 11 12 0 2 -7 1 -15 -2 -18z m-4422 2 c-7 -16 -24 -21 -24 -6 0 8 7 13 27
20 1 1 0 -6 -3 -14z m1036 -6 c0 -5 -4 -9 -10 -9 -5 0 -10 5 -10 11 0 5 -5 7
-12 3 -7 -4 -8 -3 -4 4 7 12 36 5 36 -9z m3457 -1 c-3 -8 -6 -5 -6 6 -1 11 2
17 5 13 3 -3 4 -12 1 -19z m1201 -2 c13 -14 18 -27 13 -31 -6 -3 -8 -11 -5
-19 3 -7 -2 -13 -11 -13 -9 0 -14 6 -11 14 3 7 1 13 -4 13 -6 0 -10 -11 -10
-25 0 -14 -3 -25 -7 -26 -5 0 -23 -2 -42 -5 -19 -2 -33 -3 -30 -2 2 2 15 12
28 23 14 11 21 14 17 8 -4 -8 -1 -13 9 -13 9 0 15 6 14 13 -4 32 2 46 16 41
19 -8 19 3 0 22 -8 9 -19 12 -25 9 -5 -3 -10 -1 -10 4 0 19 34 11 58 -13z
m-5928 -1 c0 -15 -37 -16 -43 -2 -3 7 5 12 19 12 13 0 24 -5 24 -10z m5280 11
c0 -3 -4 -8 -10 -11 -5 -3 -10 -1 -10 4 0 6 5 11 10 11 6 0 10 -2 10 -4z m730
-6 c0 -5 -7 -10 -15 -10 -8 0 -15 5 -15 10 0 6 7 10 15 10 8 0 15 -4 15 -10z
m-4849 -22 c-5 -13 -14 -23 -20 -23 -6 0 -16 -7 -21 -15 -6 -10 -10 -11 -10
-3 0 7 9 18 20 25 11 7 20 18 20 25 0 7 4 13 10 13 6 0 6 -9 1 -22z m2132 15
c-7 -2 -19 -2 -25 0 -7 3 -2 5 12 5 14 0 19 -2 13 -5z m232 -3 c-4 -6 0 -22 9
-35 12 -18 12 -25 3 -28 -7 -3 -5 -6 6 -6 19 -1 24 -21 4 -21 -7 0 -19 15 -28
33 -15 34 -14 67 2 67 6 0 7 -5 4 -10z m449 -5 c3 -8 1 -15 -4 -15 -6 0 -10 7
-10 15 0 8 2 15 4 15 2 0 6 -7 10 -15z m-3851 -15 c-3 -11 -11 -20 -18 -20 -7
0 -15 -6 -17 -12 -3 -7 -7 -2 -10 10 -6 20 -3 22 15 16 19 -6 20 -5 8 10 -12
14 -11 16 7 16 15 0 19 -5 15 -20z m1647 11 c0 -5 -7 -11 -15 -15 -15 -5 -20
5 -8 17 9 10 23 9 23 -2z m2046 -32 c-13 -19 -16 -20 -16 -6 0 9 5 17 11 17 6
0 8 7 4 18 -5 13 -3 14 6 5 9 -9 8 -17 -5 -34z m1357 16 c-10 -7 -20 -12 -21
-10 -7 7 23 33 31 28 5 -3 0 -11 -10 -18z m617 9 c0 -8 -7 -22 -15 -30 -8 -9
-15 -11 -15 -5 0 5 5 13 11 16 6 4 8 13 5 21 -3 8 -1 14 4 14 6 0 10 -7 10
-16z m-5557 -23 c-6 -3 -13 -13 -16 -21 -4 -11 -6 -9 -6 6 -1 24 22 51 28 33
2 -6 -1 -14 -6 -18z m1213 3 c-3 -8 1 -14 10 -14 8 0 13 -4 9 -10 -3 -5 6 -17
20 -26 14 -9 25 -20 25 -25 0 -5 -16 1 -35 13 -19 13 -35 29 -35 36 0 6 -8 13
-17 13 -16 1 -16 2 0 6 11 3 16 11 13 19 -3 9 -1 12 5 9 6 -4 8 -13 5 -21z
m657 -8 c3 -6 -3 -12 -12 -12 -9 -1 -23 -3 -31 -6 -8 -3 -12 -3 -7 -1 4 3 5 9
2 14 -4 5 2 6 11 2 13 -5 16 -3 11 10 -4 11 -2 14 8 11 7 -3 16 -11 18 -18z
m1176 12 c11 -6 16 -19 14 -29 -5 -17 -7 -17 -24 5 -29 36 -25 46 10 24z
m1541 2 c0 -5 -5 -10 -11 -10 -5 0 -7 5 -4 10 3 6 8 10 11 10 2 0 4 -4 4 -10z
m441 -17 c-12 -20 -14 -14 -5 12 4 9 9 14 11 11 3 -2 0 -13 -6 -23z m-3484 10
c-4 -3 -2 -12 4 -20 9 -9 8 -13 0 -13 -6 0 -11 2 -11 4 0 2 -3 11 -6 20 -4 10
-1 16 7 16 7 0 9 -3 6 -7z m2070 -5 c-2 -7 2 -21 11 -30 10 -12 11 -18 4 -18
-7 0 -12 5 -12 12 0 6 -9 3 -20 -7 -16 -15 -23 -16 -33 -6 -9 10 -8 11 6 5 13
-5 20 1 28 25 6 17 13 31 16 31 2 0 3 -6 0 -12z m104 -32 c-6 -8 -9 -20 -6
-28 3 -8 0 -15 -7 -15 -7 0 -13 11 -13 24 0 13 3 23 6 23 4 0 10 10 14 23 6
19 8 20 12 4 3 -10 0 -24 -6 -31z m50 11 c-13 -13 -31 0 -24 19 4 11 8 12 20
3 9 -8 10 -16 4 -22z m1971 11 c-7 -7 -12 -8 -12 -2 0 14 12 26 19 19 2 -3 -1
-11 -7 -17z m-5268 0 c-5 -7 0 -9 14 -6 14 4 22 0 25 -13 3 -11 1 -19 -4 -19
-5 0 -9 5 -9 11 0 6 -6 9 -13 6 -14 -5 -39 17 -30 27 11 11 24 6 17 -6z m257
-5 c11 -15 11 -16 -1 -6 -10 9 -17 10 -27 1 -10 -8 -17 -8 -26 1 -9 10 -8 11
4 6 10 -4 20 -2 24 4 8 14 10 14 26 -6z m1244 7 c-28 -12 -37 -12 -30 0 3 6
16 10 28 9 21 0 21 -1 2 -9z m148 -10 c-3 -12 -8 -19 -11 -16 -5 6 5 36 12 36
2 0 2 -9 -1 -20z m377 10 c0 -5 -4 -10 -10 -10 -5 0 -10 5 -10 10 0 6 5 10 10
10 6 0 10 -4 10 -10z m404 -2 c-5 -8 -2 -9 9 -5 9 3 19 2 22 -3 4 -6 -8 -10
-26 -10 -27 0 -30 2 -19 15 15 18 24 20 14 3z m366 2 c0 -5 -10 -10 -22 -10
-19 0 -20 2 -8 10 19 13 30 13 30 0z m1045 0 c3 -5 1 -10 -4 -10 -6 0 -11 5
-11 10 0 6 2 10 4 10 3 0 8 -4 11 -10z m645 6 c0 -3 -4 -8 -10 -11 -5 -3 -10
-1 -10 4 0 6 5 11 10 11 6 0 10 -2 10 -4z m325 -6 c3 -5 2 -10 -4 -10 -5 0
-13 5 -16 10 -3 6 -2 10 4 10 5 0 13 -4 16 -10z m-5470 -10 c3 -6 -1 -7 -9 -4
-18 7 -21 14 -7 14 6 0 13 -4 16 -10z m612 -26 c2 -20 0 -25 -7 -14 -5 8 -6
18 -3 23 3 5 -1 14 -8 19 -12 8 -11 9 1 5 8 -2 16 -17 17 -33z m515 4 c-9 -9
-12 -7 -12 12 0 19 3 21 12 12 9 -9 9 -15 0 -24z m124 6 c-4 -9 -9 -15 -11
-12 -3 3 -3 13 1 22 4 9 9 15 11 12 3 -3 3 -13 -1 -22z m329 16 c3 -5 1 -10
-4 -10 -6 0 -11 5 -11 10 0 6 2 10 4 10 3 0 8 -4 11 -10z m71 1 c-4 -5 -1 -12
4 -14 6 -3 5 -4 -2 -3 -15 3 -23 26 -8 26 6 0 9 -4 6 -9z m801 -2 c10 -10 6
-56 -6 -63 -20 -11 -62 -16 -56 -6 3 5 17 10 31 10 20 0 24 5 24 31 0 27 -3
30 -22 24 -18 -5 -20 -4 -8 4 19 13 24 13 37 0z m348 1 c7 -12 -2 -12 -30 0
-19 8 -19 9 2 9 12 1 25 -3 28 -9z m1300 -17 c-28 -20 -41 -16 -19 6 10 10 23
16 28 13 5 -3 1 -11 -9 -19z m129 18 c4 -5 0 -11 -6 -14 -7 -2 -10 -8 -6 -12
9 -9 40 14 33 24 -2 4 2 8 10 8 23 0 18 -11 -14 -35 -23 -17 -30 -18 -34 -7
-3 7 -18 15 -34 18 -26 4 -26 4 5 6 19 0 31 5 27 11 -3 6 -2 10 4 10 5 0 12
-4 15 -9z m560 -3 c-3 -4 -9 -8 -15 -8 -5 0 -9 4 -9 8 0 5 7 9 15 9 8 0 12 -4
9 -9z m56 0 c0 -4 11 -8 25 -8 14 0 25 -4 25 -9 0 -6 -12 -6 -32 0 -36 10 -56
26 -33 26 8 0 15 -4 15 -9z m116 -8 c-22 -11 -42 -18 -44 -15 -5 5 57 34 73
34 6 0 -8 -9 -29 -19z m481 -6 c-9 -9 -28 6 -21 18 4 6 10 6 17 -1 6 -6 8 -13
4 -17z m206 5 c-7 -26 -51 -74 -60 -66 -3 4 1 15 10 25 10 10 17 23 17 28 0
12 21 34 31 34 4 0 5 -9 2 -21z m122 11 c-28 -12 -37 -12 -30 0 3 6 16 10 28
9 21 0 21 -1 2 -9z m-5518 -6 c-3 -3 -12 -4 -19 -1 -8 3 -5 6 6 6 11 1 17 -2
13 -5z m523 2 c0 -3 -4 -8 -10 -11 -5 -3 -10 -1 -10 4 0 6 5 11 10 11 6 0 10
-2 10 -4z m1040 -6 c8 -5 11 -10 5 -10 -5 0 -17 5 -25 10 -8 5 -10 10 -5 10 6
0 17 -5 25 -10z m154 -5 c-4 -8 -8 -15 -10 -15 -2 0 -4 7 -4 15 0 8 4 15 10
15 5 0 7 -7 4 -15z m569 -4 c3 -11 -1 -22 -8 -25 -8 -3 -11 4 -10 17 4 35 10
37 18 8z m149 3 c-12 -8 -28 -13 -35 -11 -7 3 -1 9 13 15 37 16 47 14 22 -4z
m1028 6 c0 -5 -2 -10 -4 -10 -3 0 -8 5 -11 10 -3 6 -1 10 4 10 6 0 11 -4 11
-10z m270 -10 c-8 -5 -17 -7 -19 -4 -3 3 1 9 9 14 8 5 17 7 19 4 3 -3 -1 -9
-9 -14z m67 14 c-3 -3 -12 -4 -19 -1 -8 3 -5 6 6 6 11 1 17 -2 13 -5z m420 0
c-3 -3 -12 -4 -19 -1 -8 3 -5 6 6 6 11 1 17 -2 13 -5z m691 -11 c-9 -10 -18
-25 -21 -33 -3 -9 -6 -4 -6 12 -1 17 5 28 17 31 9 3 19 5 21 6 2 0 -3 -7 -11
-16z m-4713 -12 c-3 -6 -11 -11 -16 -11 -5 0 -4 6 3 14 14 16 24 13 13 -3z
m600 9 c-3 -5 -13 -10 -21 -10 -8 0 -12 5 -9 10 3 6 13 10 21 10 8 0 12 -4 9
-10z m311 3 c-11 -11 -35 -12 -42 -2 -3 5 7 9 22 9 15 0 24 -3 20 -7z m789 -3
c-3 -5 -10 -10 -16 -10 -5 0 -9 5 -9 10 0 6 7 10 16 10 8 0 12 -4 9 -10z m222
-10 c-3 -21 -17 -40 -17 -22 0 13 11 42 16 42 2 0 3 -9 1 -20z m248 -9 c-6 -5
-25 10 -25 20 0 5 6 4 14 -3 8 -7 12 -15 11 -17z m755 19 c13 -8 12 -11 -5
-24 -11 -8 -22 -12 -25 -10 -2 3 2 9 10 15 13 8 13 10 0 19 -8 5 -10 10 -5 10
6 0 17 -5 25 -10z m487 4 c-3 -3 -12 -4 -19 -1 -8 3 -5 6 6 6 11 1 17 -2 13
-5z m98 -46 c8 -10 11 -18 6 -18 -5 0 -19 13 -30 29 -24 33 -28 57 -5 26 8
-11 21 -28 29 -37z m620 42 c3 -5 -1 -10 -9 -10 -9 0 -16 5 -16 10 0 6 4 10 9
10 6 0 13 -4 16 -10z m171 -4 c8 -8 14 -18 14 -22 0 -5 -5 -3 -12 4 -7 7 -20
12 -31 12 -10 0 -15 5 -12 10 9 14 24 12 41 -4z m69 4 c3 -5 1 -10 -4 -10 -6
0 -11 5 -11 10 0 6 2 10 4 10 3 0 8 -4 11 -10z m242 4 c-3 -3 -12 -4 -19 -1
-8 3 -5 6 6 6 11 1 17 -2 13 -5z m321 -20 c1 -11 -6 -25 -18 -32 -11 -7 -20
-8 -20 -3 0 5 8 12 17 15 12 5 14 9 5 18 -16 16 -15 31 1 26 6 -3 13 -13 15
-24z m299 20 c-3 -3 -12 -4 -19 -1 -8 3 -5 6 6 6 11 1 17 -2 13 -5z m57 -34
c-6 -5 -24 21 -24 34 0 6 6 1 14 -10 8 -10 12 -21 10 -24z m-5164 24 c0 -3 -6
-12 -14 -19 -17 -18 -29 -8 -13 11 12 14 27 18 27 8z m1047 0 c-3 -3 -12 -4
-19 -1 -8 3 -5 6 6 6 11 1 17 -2 13 -5z m657 -16 c-9 -31 -9 -31 -33 -16 -29
18 -26 30 4 22 15 -4 25 -2 25 5 0 6 3 11 6 11 3 0 2 -10 -2 -22z m141 12 c3
-5 1 -10 -4 -10 -6 0 -11 5 -11 10 0 6 2 10 4 10 3 0 8 -4 11 -10z m724 -3 c8
-11 7 -18 -8 -31 -17 -16 -18 -15 -19 14 -1 32 9 38 27 17z m886 3 c3 -5 -1
-10 -10 -10 -9 0 -13 5 -10 10 3 6 8 10 10 10 2 0 7 -4 10 -10z m995 0 c0 -5
9 -10 21 -10 11 0 17 -4 14 -10 -4 -6 -17 -4 -36 5 -32 17 -37 25 -14 25 8 0
15 -4 15 -10z m79 -11 c-14 -8 -29 -3 -29 11 0 4 9 6 21 3 15 -4 17 -8 8 -14z
m111 15 c0 -8 -48 -54 -56 -54 -3 0 3 14 13 30 15 26 43 41 43 24z m300 -4 c0
-5 -4 -10 -10 -10 -5 0 -10 5 -10 10 0 6 5 10 10 10 6 0 10 -4 10 -10z m-5310
-16 c0 -8 -4 -12 -10 -9 -5 3 -10 10 -10 16 0 5 5 9 10 9 6 0 10 -7 10 -16z
m40 6 c0 -5 -4 -10 -10 -10 -5 0 -10 5 -10 10 0 6 5 10 10 10 6 0 10 -4 10
-10z m240 0 c0 -5 -4 -10 -10 -10 -5 0 -10 5 -10 10 0 6 5 10 10 10 6 0 10 -4
10 -10z m1237 4 c-3 -3 -12 -4 -19 -1 -8 3 -5 6 6 6 11 1 17 -2 13 -5z m150 0
c-3 -3 -12 -4 -19 -1 -8 3 -5 6 6 6 11 1 17 -2 13 -5z m450 -16 c-3 -8 -6 -5
-6 6 -1 11 2 17 5 13 3 -3 4 -12 1 -19z m483 17 c0 -2 -10 -13 -22 -24 -20
-20 -44 -20 -32 0 3 5 9 7 14 4 4 -3 13 2 20 10 13 15 20 19 20 10z m300 1 c0
-11 -19 -15 -25 -6 -3 5 1 10 9 10 9 0 16 -2 16 -4z m320 0 c0 -2 -7 -7 -16
-10 -8 -3 -12 -2 -9 4 6 10 25 14 25 6z m1110 -14 c-8 -2 -25 -8 -37 -14 -13
-6 -26 -8 -29 -5 -9 9 58 37 70 29 6 -3 3 -7 -4 -10z m710 3 c0 -8 -2 -15 -4
-15 -2 0 -6 7 -10 15 -3 8 -1 15 4 15 6 0 10 -7 10 -15z m-5125 -7 c4 -4 -2
-4 -14 -1 -12 3 -21 1 -21 -5 0 -15 21 -20 60 -14 32 5 34 4 21 -11 -15 -19
-26 -23 -15 -5 5 8 0 9 -16 5 -21 -6 -73 13 -83 30 -6 10 59 11 68 1z m275 1
c0 -7 12 -10 30 -7 17 3 30 1 30 -4 0 -9 -41 -11 -64 -2 -18 7 -22 24 -6 24 6
0 10 -5 10 -11z m1810 1 c0 -9 -61 -20 -74 -13 -4 3 -3 9 4 13 16 10 70 10 70
0z m1339 6 c-2 -2 -17 -6 -34 -10 -22 -5 -26 -4 -15 4 14 9 59 15 49 6z m181
-17 c0 -6 -4 -7 -10 -4 -5 3 -10 11 -10 16 0 6 5 7 10 4 6 -3 10 -11 10 -16z
m260 17 c0 -3 -4 -8 -10 -11 -5 -3 -10 -1 -10 4 0 6 5 11 10 11 6 0 10 -2 10
-4z m870 0 c0 -3 -4 -8 -10 -11 -5 -3 -10 -1 -10 4 0 6 5 11 10 11 6 0 10 -2
10 -4z m-4324 -33 c-6 -6 -36 9 -36 18 0 5 9 4 20 -3 10 -7 18 -14 16 -15z
m72 9 c2 -7 -2 -10 -12 -6 -9 3 -16 11 -16 16 0 13 23 5 28 -10z m457 8 c3 -5
-3 -10 -14 -10 -12 0 -21 5 -21 10 0 6 6 10 14 10 8 0 18 -4 21 -10z m2231 -5
c9 -8 11 -15 6 -15 -5 0 -15 7 -22 15 -7 8 -9 15 -6 15 4 0 14 -7 22 -15z
m1291 -7 c-3 -8 -6 -5 -6 6 -1 11 2 17 5 13 3 -3 4 -12 1 -19z m223 12 c0 -5
-2 -10 -4 -10 -3 0 -8 5 -11 10 -3 6 -1 10 4 10 6 0 11 -4 11 -10z m-3670 -4
c0 -3 -4 -8 -10 -11 -5 -3 -10 -1 -10 4 0 6 5 11 10 11 6 0 10 -2 10 -4z m135
-6 c3 -5 1 -10 -4 -10 -6 0 -11 5 -11 10 0 6 2 10 4 10 3 0 8 -4 11 -10z m452
4 c-3 -3 -12 -4 -19 -1 -8 3 -5 6 6 6 11 1 17 -2 13 -5z m53 -4 c0 -5 -10 -10
-22 -10 -19 0 -20 2 -8 10 19 13 30 13 30 0z m138 3 c-10 -2 -26 -2 -35 0 -10
3 -2 5 17 5 19 0 27 -2 18 -5z m1487 -11 c-3 -3 -11 0 -18 7 -9 10 -8 11 6 5
10 -3 15 -9 12 -12z m58 11 c-7 -2 -19 -2 -25 0 -7 3 -2 5 12 5 14 0 19 -2 13
-5z m967 -3 c0 -5 -5 -10 -11 -10 -5 0 -7 5 -4 10 3 6 8 10 11 10 2 0 4 -4 4
-10z m673 3 c-7 -2 -19 -2 -25 0 -7 3 -2 5 12 5 14 0 19 -2 13 -5z m334 1 c-3
-3 -12 -4 -19 -1 -8 3 -5 6 6 6 11 1 17 -2 13 -5z m-4220 -10 c-3 -3 -12 -4
-19 -1 -8 3 -5 6 6 6 11 1 17 -2 13 -5z m150 0 c-3 -3 -12 -4 -19 -1 -8 3 -5
6 6 6 11 1 17 -2 13 -5z m2846 -1 c-7 -2 -21 -2 -30 0 -10 3 -4 5 12 5 17 0
24 -2 18 -5z m1104 1 c-3 -3 -12 -4 -19 -1 -8 3 -5 6 6 6 11 1 17 -2 13 -5z
m435 -1 c-8 -3 -5 -11 10 -24 13 -10 18 -18 12 -19 -9 0 -54 36 -54 43 0 2 10
3 23 4 12 0 16 -1 9 -4z m-5567 -43 c3 -5 -1 -10 -9 -10 -9 0 -16 5 -16 10 0
6 4 10 9 10 6 0 13 -4 16 -10z m145 -50 c0 -5 -4 -10 -9 -10 -6 0 -13 5 -16
10 -3 6 1 10 9 10 9 0 16 -4 16 -10z m5267 -25 c-12 -13 -24 -19 -26 -14 -1 6
5 17 15 24 29 22 35 17 11 -10z m-5110 -56 c-10 -6 -25 -8 -32 -5 -8 3 -17 1
-20 -4 -4 -6 -14 -10 -23 -10 -13 0 -13 2 4 15 10 8 35 14 54 14 29 0 32 -1
17 -10z m4988 1 c3 -5 1 -10 -4 -10 -6 0 -11 5 -11 10 0 6 2 10 4 10 3 0 8 -4
11 -10z m45 -4 c0 -11 -19 -15 -25 -6 -3 5 1 10 9 10 9 0 16 -2 16 -4z m-43
-32 c-3 -3 -12 -4 -19 -1 -8 3 -5 6 6 6 11 1 17 -2 13 -5z m-4817 -44 c-8 -5
-19 -10 -25 -10 -5 0 -3 5 5 10 8 5 20 10 25 10 6 0 3 -5 -5 -10z m4573 3
c-13 -2 -33 -2 -45 0 -13 2 -3 4 22 4 25 0 35 -2 23 -4z m167 -3 c0 -13 -39
-18 -49 -6 -6 8 -1 11 20 12 16 1 29 -2 29 -6z m-4655 -10 c3 -5 -3 -10 -15
-10 -12 0 -18 5 -15 10 3 6 10 10 15 10 5 0 12 -4 15 -10z m4582 4 c-3 -3 -12
-4 -19 -1 -8 3 -5 6 6 6 11 1 17 -2 13 -5z m-4727 -8 c0 -3 -4 -8 -10 -11 -5
-3 -10 -1 -10 4 0 6 5 11 10 11 6 0 10 -2 10 -4z m4705 -16 c3 -5 1 -10 -4
-10 -6 0 -11 5 -11 10 0 6 2 10 4 10 3 0 8 -4 11 -10z m-61 -39 c3 -5 -1 -12
-10 -15 -8 -3 -12 -2 -9 3 3 6 -9 12 -27 14 l-33 4 37 1 c20 1 39 -2 42 -7z
m-4507 -7 c-3 -3 -12 -4 -19 -1 -8 3 -5 6 6 6 11 1 17 -2 13 -5z m110 0 c-3
-3 -12 -4 -19 -1 -8 3 -5 6 6 6 11 1 17 -2 13 -5z m4308 -14 c3 -5 -3 -10 -14
-10 -12 0 -21 5 -21 10 0 6 6 10 14 10 8 0 18 -4 21 -10z m-4322 -7 c-7 -2
-21 -2 -30 0 -10 3 -4 5 12 5 17 0 24 -2 18 -5z m4272 -3 c3 -5 1 -10 -4 -10
-6 0 -11 5 -11 10 0 6 2 10 4 10 3 0 8 -4 11 -10z m-4290 -20 c3 -5 1 -10 -4
-10 -6 0 -11 5 -11 10 0 6 2 10 4 10 3 0 8 -4 11 -10z m202 -36 c-3 -3 -12 -4
-19 -1 -8 3 -5 6 6 6 11 1 17 -2 13 -5z m-14 -21 c-7 -2 -19 -2 -25 0 -7 3 -2
5 12 5 14 0 19 -2 13 -5z m3894 1 c-3 -3 -12 -4 -19 -1 -8 3 -5 6 6 6 11 1 17
-2 13 -5z m-157 -14 c0 -5 -4 -10 -10 -10 -5 0 -10 5 -10 10 0 6 5 10 10 10 6
0 10 -4 10 -10z m147 -16 c-3 -3 -12 -4 -19 -1 -8 3 -5 6 6 6 11 1 17 -2 13
-5z m-220 -30 c-3 -3 -12 -4 -19 -1 -8 3 -5 6 6 6 11 1 17 -2 13 -5z m-37 -14
c0 -5 -4 -10 -10 -10 -5 0 -10 5 -10 10 0 6 5 10 10 10 6 0 10 -4 10 -10z
m-3303 -6 c-3 -3 -12 -4 -19 -1 -8 3 -5 6 6 6 11 1 17 -2 13 -5z m248 -64 c-3
-5 -16 -10 -28 -9 -20 1 -20 2 3 9 14 4 26 8 28 9 2 1 0 -3 -3 -9z m58 3 c-7
-2 -19 -2 -25 0 -7 3 -2 5 12 5 14 0 19 -2 13 -5z m2670 -10 c-7 -2 -19 -2
-25 0 -7 3 -2 5 12 5 14 0 19 -2 13 -5z m-2676 -9 c-3 -3 -12 -4 -19 -1 -8 3
-5 6 6 6 11 1 17 -2 13 -5z m2763 2 c0 -2 -7 -7 -16 -10 -8 -3 -12 -2 -9 4 6
10 25 14 25 6z m-70 -22 c0 -2 -15 -4 -32 -4 -23 0 -29 3 -19 9 12 8 51 4 51
-5z m-2363 -40 c-3 -3 -12 -4 -19 -1 -8 3 -5 6 6 6 11 1 17 -2 13 -5z m1841
-6 c-2 -6 -10 -13 -16 -14 -7 -1 -8 0 -2 3 5 2 8 9 4 14 -3 5 0 9 6 9 7 0 10
-5 8 -12z m267 2 c3 -5 1 -10 -4 -10 -6 0 -11 5 -11 10 0 6 2 10 4 10 3 0 8
-4 11 -10z m-1955 -16 c0 -2 -35 -3 -77 -2 -65 1 -70 2 -33 7 44 6 110 3 110
-5z m1858 -1 c-10 -2 -28 -2 -40 0 -13 2 -5 4 17 4 22 1 32 -1 23 -4z m-1840
-20 c-10 -2 -28 -2 -40 0 -13 2 -5 4 17 4 22 1 32 -1 23 -4z m1725 0 c-7 -2
-21 -2 -30 0 -10 3 -4 5 12 5 17 0 24 -2 18 -5z m-1563 -13 c0 -5 -2 -10 -4
-10 -3 0 -8 5 -11 10 -3 6 -1 10 4 10 6 0 11 -4 11 -10z m347 -26 c-3 -3 -12
-4 -19 -1 -8 3 -5 6 6 6 11 1 17 -2 13 -5z m176 -1 c-7 -2 -21 -2 -30 0 -10 3
-4 5 12 5 17 0 24 -2 18 -5z m175 -10 c-10 -2 -28 -2 -40 0 -13 2 -5 4 17 4
22 1 32 -1 23 -4z m99 -9 c-3 -3 -12 -4 -19 -1 -8 3 -5 6 6 6 11 1 17 -2 13
-5z"/>
<path d="M4230 3050 c-8 -5 -35 -10 -60 -10 -47 -1 -87 -21 -75 -39 3 -6 -1
-18 -9 -27 -19 -18 -20 -30 -4 -40 7 -5 8 -3 3 6 -5 9 -2 10 13 6 22 -7 34 11
26 41 -3 12 2 25 13 33 12 9 14 10 7 1 -16 -18 -6 -51 13 -44 12 5 12 7 2 14
-8 4 -10 11 -6 15 4 4 14 1 23 -7 16 -17 10 -49 -10 -49 -6 0 -17 -10 -25 -22
-7 -13 -10 -20 -6 -16 5 4 14 0 20 -9 11 -15 13 -15 19 5 5 15 15 22 32 22 13
0 24 4 24 10 0 5 -7 7 -15 4 -10 -4 -15 0 -15 15 0 14 6 21 20 21 11 0 20 -7
20 -15 0 -8 5 -15 11 -15 8 0 10 -17 7 -50 -4 -34 -2 -47 6 -43 7 5 7 2 -1 -8
-9 -11 -53 -116 -53 -126 0 -1 21 7 46 17 71 31 167 111 199 168 11 17 23 32
27 32 4 0 8 18 8 40 0 53 -22 64 -136 64 -51 1 -90 4 -87 9 6 10 -19 8 -37 -3z
m105 -20 c-11 -5 -32 -11 -47 -14 -22 -5 -26 -10 -22 -31 4 -24 4 -25 -16 -8
-11 10 -20 19 -20 20 0 6 48 27 75 34 41 10 54 9 30 -1z m-88 -6 c-3 -3 -12
-4 -19 -1 -8 3 -5 6 6 6 11 1 17 -2 13 -5z m120 -10 c-3 -3 -12 -4 -19 -1 -8
3 -5 6 6 6 11 1 17 -2 13 -5z m89 -1 c-2 -2 -19 -6 -37 -8 -21 -3 -29 -1 -20
4 13 9 66 12 57 4z m4 -68 c0 -5 -5 -3 -10 5 -5 8 -10 20 -10 25 0 6 5 3 10
-5 5 -8 10 -19 10 -25z m-28 -47 c-6 -6 -7 0 -4 19 5 21 7 23 10 9 2 -10 0
-22 -6 -28z m-30 0 c-6 -6 -15 -8 -19 -4 -4 4 -1 11 7 16 19 12 27 3 12 -12z
m-28 -43 c-4 -8 -8 -15 -10 -15 -2 0 -4 7 -4 15 0 8 4 15 10 15 5 0 7 -7 4
-15z m-59 -55 c3 -5 1 -10 -4 -10 -6 0 -11 5 -11 10 0 6 2 10 4 10 3 0 8 -4
11 -10z m-25 -21 c13 -9 13 -10 -2 -6 -9 3 -22 -1 -28 -9 -7 -8 -17 -14 -23
-14 -10 0 22 38 33 39 3 0 12 -4 20 -10z"/>
<path d="M4020 3011 c0 -12 32 -24 39 -14 4 4 5 7 2 6 -2 -1 -12 2 -22 8 -11
6 -19 6 -19 0z"/>
<path d="M4087 2909 c7 -7 15 -10 18 -7 3 3 -2 9 -12 12 -14 6 -15 5 -6 -5z"/>
<path d="M4133 2886 c4 -10 7 -24 7 -32 0 -9 4 -13 9 -10 11 7 3 44 -12 53 -7
4 -8 0 -4 -11z"/>
<path d="M4020 2840 c-9 -6 -10 -10 -3 -10 6 0 15 5 18 10 8 12 4 12 -15 0z"/>
<path d="M3800 2041 c-5 -11 -6 -22 -1 -25 4 -3 13 6 19 19 14 30 -2 34 -18 6z"/>
<path d="M3958 2033 c-10 -2 -18 -9 -18 -14 0 -14 16 -11 30 6 7 8 11 14 9 14
-2 -1 -12 -3 -21 -6z"/>
<path d="M1980 3155 c7 -8 17 -15 22 -15 5 0 3 7 -6 15 -8 8 -18 15 -22 15 -3
0 -1 -7 6 -15z"/>
<path d="M2340 2141 c0 -6 5 -13 10 -16 6 -3 10 1 10 9 0 9 -4 16 -10 16 -5 0
-10 -4 -10 -9z"/>
<path d="M2480 2075 c0 -8 4 -15 10 -15 5 0 7 7 4 15 -4 8 -8 15 -10 15 -2 0
-4 -7 -4 -15z"/>
<path d="M3156 2375 c-4 -19 -11 -35 -16 -35 -19 0 -10 -28 10 -33 18 -5 20 0
20 49 0 62 -5 69 -14 19z"/>
<path d="M2790 1860 c0 -5 5 -10 10 -10 6 0 10 5 10 10 0 6 -4 10 -10 10 -5 0
-10 -4 -10 -10z"/>
<path d="M4900 2416 c0 -9 5 -16 10 -16 6 0 10 4 10 9 0 6 -4 13 -10 16 -5 3
-10 -1 -10 -9z"/>
<path d="M4924 2398 c-15 -23 -14 -76 2 -89 9 -7 14 -8 14 -1 0 6 -5 14 -10
17 -6 4 -7 12 -3 18 4 7 6 20 5 30 -4 19 8 23 24 7 6 -6 15 -6 24 0 12 8 11
10 -5 10 -12 0 -26 5 -32 11 -8 8 -13 7 -19 -3z"/>
<path d="M5097 2369 c7 -7 15 -10 18 -7 3 3 -2 9 -12 12 -14 6 -15 5 -6 -5z"/>
<path d="M5340 2070 c-9 -6 -10 -10 -3 -10 6 0 15 5 18 10 8 12 4 12 -15 0z"/>
<path d="M2910 2456 c0 -9 5 -16 10 -16 6 0 10 4 10 9 0 6 -4 13 -10 16 -5 3
-10 -1 -10 -9z"/>
<path d="M690 1511 c0 -6 6 -11 13 -11 8 0 7 -3 -3 -10 -8 -5 -11 -12 -7 -17
11 -10 42 11 42 28 0 8 -10 15 -22 17 -13 2 -23 -1 -23 -7z"/>
<path d="M820 1494 c0 -17 4 -24 13 -21 25 9 55 -11 55 -38 0 -15 -3 -23 -7
-17 -3 5 -18 10 -33 10 -24 0 -28 -5 -28 -27 0 -23 4 -26 40 -28 29 -2 40 1
40 12 0 24 22 29 39 7 18 -24 54 -23 59 1 2 10 -10 22 -30 33 -49 24 -68 44
-68 71 0 20 -5 23 -40 23 -36 0 -40 -2 -40 -26z m50 6 c0 -5 -8 -10 -17 -10
-15 0 -16 2 -3 10 19 12 20 12 20 0z m96 -108 c-5 -4 -46 35 -46 45 0 3 11 -4
25 -17 14 -13 23 -25 21 -28z"/>
<path d="M944 1508 c-7 -10 20 -38 38 -38 15 0 8 19 -9 23 -17 4 -17 5 0 6 10
1 21 -9 27 -23 13 -36 30 -42 30 -11 0 14 -4 24 -9 20 -6 -3 -15 4 -21 15 -12
22 -45 27 -56 8z"/>
<path d="M1099 1513 c-1 -5 -1 -11 0 -15 0 -5 -3 -8 -9 -8 -14 0 -12 -84 2
-98 7 -7 15 -12 20 -12 10 0 -3 33 -16 42 -6 5 4 5 23 1 l34 -6 -6 37 c-6 38
-22 66 -38 66 -5 0 -10 -3 -10 -7z m28 -75 c-3 -8 -6 -5 -6 6 -1 11 2 17 5 13
3 -3 4 -12 1 -19z"/>
<path d="M1334 1453 c4 -94 26 -97 26 -4 0 55 -3 71 -14 71 -12 0 -14 -14 -12
-67z"/>
<path d="M1403 1483 c0 -21 5 -41 11 -45 7 -5 7 -8 -1 -8 -7 0 -13 -11 -13
-25 0 -16 6 -25 15 -25 8 0 15 4 15 9 0 20 33 21 47 1 11 -16 18 -18 34 -10
28 16 24 24 -31 58 -39 24 -50 37 -50 57 0 15 -6 25 -14 25 -10 0 -14 -12 -13
-37z m37 -63 c0 -5 -5 -10 -11 -10 -5 0 -7 5 -4 10 3 6 8 10 11 10 2 0 4 -4 4
-10z"/>
<path d="M1640 1465 c0 -8 4 -15 10 -15 5 0 7 7 4 15 -4 8 -8 15 -10 15 -2 0
-4 -7 -4 -15z"/>
<path d="M5290 1500 c0 -13 7 -20 19 -20 25 0 38 20 20 31 -23 15 -39 10 -39
-11z"/>
<path d="M5420 1496 c0 -21 4 -24 28 -22 32 3 53 -10 46 -29 -4 -10 0 -12 15
-8 22 6 28 19 11 25 -5 2 -11 15 -12 31 -2 25 -6 27 -45 27 -39 0 -43 -2 -43
-24z"/>
<path d="M5870 1450 c0 -53 3 -70 14 -70 10 0 13 17 12 70 -1 49 -5 70 -13 70
-9 0 -13 -21 -13 -70z"/>
<path d="M6281 1464 c0 -11 3 -14 6 -6 3 7 2 16 -1 19 -3 4 -6 -2 -5 -13z"/>
<path d="M5361 1457 c-8 -11 -8 -23 0 -48 19 -56 29 -56 22 2 -7 64 -7 63 -22
46z"/>
<path d="M5521 1431 c-8 -5 -34 -8 -58 -5 -40 3 -43 2 -43 -21 0 -17 6 -25 18
-26 9 -1 29 -3 45 -5 21 -2 27 1 27 16 0 10 7 21 16 24 22 9 24 8 18 -9 -8
-20 46 -42 58 -23 13 22 10 27 -28 43 -43 18 -36 17 -53 6z m74 -31 c3 -5 1
-10 -4 -10 -6 0 -11 5 -11 10 0 6 2 10 4 10 3 0 8 -4 11 -10z"/>
<path d="M1830 1445 c0 -43 4 -75 10 -75 6 0 10 4 10 9 0 5 9 11 20 14 29 7
29 101 1 117 -37 19 -41 12 -41 -65z"/>
<path d="M1992 1508 c-28 -36 -25 -111 6 -123 22 -8 52 29 52 64 0 27 -24 71
-39 71 -5 0 -13 -6 -19 -12z m31 -45 c-6 -15 -23 -18 -23 -3 0 6 4 10 10 10 5
0 7 8 4 18 -5 13 -4 14 4 3 6 -8 8 -20 5 -28z"/>
<path d="M2626 1498 c-31 -44 -13 -108 29 -108 26 0 28 4 28 67 0 32 -17 63
-34 63 -4 0 -15 -10 -23 -22z m38 -14 c3 -8 2 -12 -4 -9 -6 3 -10 10 -10 16 0
14 7 11 14 -7z m-19 -14 c3 -5 1 -10 -4 -10 -6 0 -11 5 -11 10 0 6 2 10 4 10
3 0 8 -4 11 -10z"/>
<path d="M2765 1510 c-11 -18 17 -42 41 -37 13 2 22 1 21 -2 -1 -4 17 -29 41
-56 35 -40 46 -47 59 -39 9 6 18 15 20 21 5 13 -65 55 -78 47 -5 -3 -8 0 -7 8
2 7 -2 12 -9 11 -7 -2 -10 4 -7 12 4 10 0 15 -10 15 -9 0 -19 7 -22 15 -7 17
-40 20 -49 5z"/>
<path d="M2894 1508 c-4 -7 0 -16 10 -22 65 -39 81 -54 84 -79 7 -55 22 -25
22 43 0 72 -6 84 -28 50 -7 -12 -18 -17 -29 -13 -12 5 -14 3 -8 -7 5 -8 4 -11
-3 -7 -5 4 -8 16 -5 27 4 15 0 20 -15 20 -12 0 -24 -5 -28 -12z m99 -38 c-3
-11 -9 -17 -15 -14 -5 3 -4 12 3 20 16 19 18 18 12 -6z"/>
<path d="M3060 1450 c0 -71 7 -83 30 -55 7 9 19 14 26 11 7 -3 15 0 18 7 2 7
4 1 3 -13 -3 -34 36 -36 41 -2 2 12 -2 22 -8 22 -7 0 -25 10 -42 21 -25 18
-32 19 -39 8 -5 -8 -7 3 -4 29 3 32 0 42 -11 42 -11 0 -14 -16 -14 -70z m60
-20 c0 -5 -2 -10 -4 -10 -3 0 -8 5 -11 10 -3 6 -1 10 4 10 6 0 11 -4 11 -10z
m45 -30 c3 -5 1 -10 -4 -10 -6 0 -11 5 -11 10 0 6 2 10 4 10 3 0 8 -4 11 -10z"/>
<path d="M3130 1502 c0 -23 70 -57 82 -39 12 19 9 27 -6 21 -8 -3 -19 3 -26
15 -13 26 -50 28 -50 3z"/>
<path d="M3320 1440 c0 -62 3 -80 14 -80 8 0 17 6 20 13 3 6 3 2 0 -10 -3 -13
-1 -23 5 -23 7 0 11 33 11 90 0 89 0 90 -25 90 -25 0 -25 -1 -25 -80z"/>
<path d="M3420 1494 c0 -14 4 -23 10 -19 18 11 50 -6 50 -26 0 -14 -7 -19 -30
-19 -25 0 -30 -4 -30 -25 0 -25 16 -33 65 -33 18 0 20 6 20 74 l0 74 -42 0
c-39 0 -43 -2 -43 -26z"/>
<path d="M2728 1431 c-3 -22 -1 -27 13 -24 10 3 18 -3 22 -17 4 -16 12 -21 29
-18 34 5 35 35 1 50 -15 7 -34 18 -41 25 -18 18 -19 17 -24 -16z m72 -31 c0
-5 -5 -10 -11 -10 -5 0 -7 5 -4 10 3 6 8 10 11 10 2 0 4 -4 4 -10z"/>
<path d="M3906 1405 c-15 -11 -17 -18 -9 -26 16 -16 43 -3 43 21 0 24 -8 25
-34 5z"/>
<path d="M4602 1508 c-6 -7 -13 -29 -17 -48 -8 -46 23 -92 51 -74 29 17 28 34
-1 34 -22 0 -26 4 -23 23 2 17 11 23 43 28 22 3 31 7 20 8 -11 0 -26 10 -33
21 -14 23 -25 25 -40 8z"/>
<path d="M1270 3340 c-12 -8 -11 -10 8 -10 12 0 22 5 22 10 0 13 -11 13 -30 0z"/>
<path d="M6698 2697 c12 -13 22 -33 22 -45 0 -12 5 -22 11 -22 5 0 9 10 7 23
-3 24 -36 67 -52 67 -5 0 0 -10 12 -23z"/>
<path d="M6693 2666 c3 -8 1 -17 -6 -19 -7 -2 -8 -8 -4 -13 4 -5 12 -2 17 6
13 20 12 40 -1 40 -6 0 -9 -6 -6 -14z"/>
<path d="M6525 1350 c-3 -5 -1 -10 4 -10 6 0 11 5 11 10 0 6 -2 10 -4 10 -3 0
-8 -4 -11 -10z"/>
<path d="M5318 743 c7 -3 16 -2 19 1 4 3 -2 6 -13 5 -11 0 -14 -3 -6 -6z"/>
<path d="M3963 155 c-3 -9 -3 -19 1 -22 3 -4 6 1 6 10 0 11 8 17 25 17 18 0
25 -5 25 -20 0 -16 -7 -20 -30 -20 -27 0 -30 -3 -30 -30 0 -27 3 -30 33 -29
30 2 30 2 5 6 -20 3 -28 10 -28 24 0 25 45 26 60 2 8 -14 9 -9 4 22 -4 22 -9
43 -11 48 -8 13 -54 7 -60 -8z"/>
<path d="M4390 152 c0 -13 -7 -18 -22 -18 -20 1 -23 -4 -23 -34 0 -31 3 -35
28 -36 26 -1 27 1 27 52 0 30 -2 54 -5 54 -3 0 -5 -8 -5 -18z m-5 -52 c0 -36
-29 -33 -33 3 -3 23 0 28 15 25 12 -2 18 -12 18 -28z"/>
<path d="M4562 158 c-19 -19 -14 -28 23 -44 19 -8 35 -19 35 -24 0 -18 -32
-24 -54 -10 -19 12 -20 12 -7 -3 17 -21 45 -22 61 -2 18 22 6 41 -29 48 -17 4
-31 11 -31 17 0 18 32 24 54 10 19 -12 20 -12 7 3 -16 20 -42 22 -59 5z"/>
<path d="M4683 115 c0 -33 2 -45 4 -27 2 18 2 45 0 60 -2 15 -4 0 -4 -33z"/>
<path d="M4952 155 c0 -11 3 -29 8 -40 11 -25 11 1 0 35 -6 20 -8 21 -8 5z"/>
<path d="M5007 163 c-4 -3 -7 -13 -7 -22 0 -13 2 -13 9 -2 6 10 11 6 20 -15
10 -25 11 -26 6 -4 -2 14 -5 31 -5 38 0 13 -13 16 -23 5z"/>
<path d="M5070 150 c0 -11 2 -20 4 -20 2 0 6 9 9 20 3 11 1 20 -4 20 -5 0 -9
-9 -9 -20z"/>
<path d="M5117 152 c-22 -24 -21 -55 1 -75 35 -32 82 -10 82 38 0 49 -52 71
-83 37z m63 -6 c28 -35 -11 -93 -47 -70 -36 22 -23 84 17 84 10 0 23 -7 30
-14z"/>
<path d="M5302 158 c-19 -19 -14 -28 23 -44 19 -8 35 -19 35 -24 0 -18 -32
-24 -54 -10 -20 11 -20 11 -4 -5 11 -12 24 -16 43 -11 39 10 31 47 -12 58 -18
5 -33 13 -33 19 0 17 32 23 54 9 19 -12 20 -12 7 3 -16 20 -42 22 -59 5z"/>
<path d="M5643 153 c-3 -10 -12 -33 -20 -52 -7 -19 -11 -36 -8 -39 2 -3 7 3
11 12 8 21 50 21 58 0 4 -9 9 -15 11 -12 7 6 -25 97 -36 104 -5 3 -12 -3 -16
-13z m27 -40 c0 -7 -7 -13 -15 -13 -16 0 -19 9 -9 35 5 13 8 14 15 3 5 -7 9
-19 9 -25z"/>
<path d="M5992 123 c-1 -38 -6 -53 -16 -53 -8 0 -17 6 -19 13 -4 9 -6 9 -6 -1
-1 -17 28 -27 40 -15 6 6 8 32 6 59 l-3 49 -2 -52z"/>
<path d="M6021 113 c1 -32 4 -46 6 -31 3 20 11 28 31 31 l27 4 -27 2 c-21 1
-28 6 -28 20 0 15 8 21 33 24 31 4 31 4 -5 5 l-38 2 1 -57z"/>
<path d="M5549 149 c-2 -29 3 -74 9 -81 4 -4 6 13 5 38 -1 43 -12 74 -14 43z"/>
<path d="M4064 126 c-10 -27 5 -66 26 -66 10 0 21 4 24 8 3 5 -4 8 -16 8 -12
-1 -23 5 -25 12 -3 7 5 12 22 12 20 0 26 4 23 18 -4 22 -46 29 -54 8z m46 -6
c0 -5 -9 -10 -21 -10 -11 0 -17 5 -14 10 3 6 13 10 21 10 8 0 14 -4 14 -10z"/>
<path d="M4217 133 c-13 -12 -7 -23 18 -35 33 -15 32 -32 -1 -25 -16 3 -22 1
-16 -5 15 -15 46 -5 50 14 2 12 -5 19 -22 24 -33 8 -34 28 -1 22 13 -3 22 -1
19 3 -6 11 -38 12 -47 2z"/>
<path d="M4426 132 c-3 -5 6 -7 19 -4 33 6 32 -14 -1 -22 -35 -9 -29 -41 9
-42 26 -1 28 1 25 35 -2 28 -8 37 -25 39 -11 2 -24 -1 -27 -6z m44 -42 c0 -12
-28 -25 -36 -17 -9 9 6 27 22 27 8 0 14 -5 14 -10z"/>
<path d="M4653 100 c0 -25 2 -35 4 -22 2 12 2 32 0 45 -2 12 -4 2 -4 -23z"/>
<path d="M4715 103 c19 -45 23 -50 29 -32 3 8 10 26 15 42 15 38 4 34 -12 -5
l-13 -33 -12 33 c-6 17 -14 32 -17 32 -3 0 2 -17 10 -37z"/>
<path d="M4786 132 c-3 -5 6 -7 19 -4 33 6 32 -14 -1 -22 -35 -9 -29 -41 9
-42 26 -1 28 1 25 35 -2 28 -8 37 -25 39 -11 2 -24 -1 -27 -6z m44 -42 c0 -12
-28 -25 -36 -17 -9 9 6 27 22 27 8 0 14 -5 14 -10z"/>
<path d="M5396 132 c-3 -5 6 -7 19 -4 33 6 32 -14 -1 -22 -35 -9 -29 -41 9
-42 26 -1 28 1 25 35 -2 28 -8 37 -25 39 -11 2 -24 -1 -27 -6z m44 -42 c0 -12
-28 -25 -36 -17 -9 9 6 27 22 27 8 0 14 -5 14 -10z"/>
<path d="M5471 96 l2 -41 6 35 c8 48 38 54 44 8 l4 -33 -1 35 c-1 31 -4 35
-28 36 -26 1 -28 -1 -27 -40z"/>
<path d="M5711 96 l2 -41 6 35 c8 48 38 54 44 8 l4 -33 -1 35 c-1 31 -4 35
-28 36 -26 1 -28 -1 -27 -40z"/>
<path d="M5796 132 c-3 -5 6 -7 19 -4 33 6 32 -14 -1 -22 -35 -9 -29 -41 9
-42 26 -1 28 1 25 35 -2 28 -8 37 -25 39 -11 2 -24 -1 -27 -6z m44 -42 c0 -12
-28 -25 -36 -17 -9 9 6 27 22 27 8 0 14 -5 14 -10z"/>
<path d="M4140 125 c0 -5 5 -17 10 -25 5 -8 10 -10 10 -5 0 6 -5 17 -10 25 -5
8 -10 11 -10 5z"/>
<path d="M4171 94 c-7 -20 -11 -38 -8 -40 3 -3 10 11 17 31 16 47 8 55 -9 9z"/>
<path d="M4990 107 c0 -9 -4 -17 -10 -17 -5 0 -10 -7 -10 -15 0 -8 4 -15 9
-15 10 0 25 50 16 58 -3 3 -5 -2 -5 -11z"/>
<path d="M5060 107 c0 -9 -4 -17 -10 -17 -5 0 -10 -7 -10 -15 0 -8 4 -15 9
-15 10 0 25 50 16 58 -3 3 -5 -2 -5 -11z"/>
<path d="M4298 93 c7 -3 16 -2 19 1 4 3 -2 6 -13 5 -11 0 -14 -3 -6 -6z"/>
<path d="M4508 93 c7 -3 16 -2 19 1 4 3 -2 6 -13 5 -11 0 -14 -3 -6 -6z"/>
</g>
</svg>
